{"glyphs":{"0":{"ha":715,"x_min":57,"x_max":657,"o":"m 329 -19 q 140 116 213 -4 q 57 482 57 251 q 140 848 57 713 q 329 983 213 968 l 329 930 q 245 829 272 918 q 214 482 214 723 q 281 63 214 137 q 329 34 302 40 l 329 -19 m 385 33 q 468 134 441 45 q 499 482 499 239 q 431 901 499 826 q 385 930 410 924 l 385 983 q 574 849 501 968 q 657 482 657 713 q 574 115 657 252 q 385 -19 501 -4 l 385 33 z "},"1":{"ha":715,"x_min":137,"x_max":588,"o":"m 290 937 q 375 985 337 958 l 443 985 l 443 183 q 447 113 443 137 q 466 80 451 90 q 502 64 481 70 q 546 55 523 59 q 588 41 569 51 l 588 0 l 142 0 l 142 41 q 185 55 162 51 q 230 64 209 59 q 285 110 279 77 q 290 183 290 141 l 290 937 m 234 836 q 137 848 209 847 l 137 890 q 234 918 193 901 l 234 836 z "},"2":{"ha":715,"x_min":35,"x_max":623,"o":"m 284 931 q 184 890 223 927 q 145 810 145 854 q 172 791 157 800 q 201 772 187 782 q 234 712 234 747 q 185 640 234 656 q 155 636 171 636 q 83 667 109 636 q 58 748 58 699 q 74 836 58 798 q 118 904 89 873 q 284 983 181 971 l 284 931 m 216 115 l 332 115 q 509 171 465 115 q 546 236 532 199 q 573 297 561 273 l 606 297 l 606 0 l 134 0 l 216 115 m 72 0 l 35 0 l 49 128 q 275 390 195 303 q 387 521 355 476 q 454 714 454 618 q 340 926 454 896 l 340 985 q 552 902 474 981 q 623 722 623 829 q 340 288 623 538 q 264 221 300 252 q 157 117 180 147 l 72 0 z "},"3":{"ha":715,"x_min":47,"x_max":636,"o":"m 287 935 q 207 906 240 931 q 168 835 174 882 q 214 811 201 822 q 243 747 243 787 q 220 685 243 708 q 157 663 197 663 q 92 690 117 663 q 66 767 66 718 q 83 851 66 816 q 129 913 99 886 q 287 983 192 972 l 287 935 m 47 178 q 157 308 47 308 q 213 278 190 308 q 233 223 233 250 q 227 182 233 197 q 208 157 220 168 q 149 127 189 140 q 189 60 151 87 q 287 31 229 32 l 287 -20 q 109 41 174 -15 q 47 178 47 96 m 401 517 q 636 269 636 475 q 556 73 636 153 q 343 -20 474 -10 l 343 36 q 472 258 472 64 q 422 435 472 379 q 313 481 381 481 l 282 480 q 263 479 273 479 q 224 509 224 479 q 263 538 224 538 q 336 546 319 541 q 374 561 354 551 q 412 593 395 571 q 454 732 454 642 q 343 931 454 903 l 343 984 q 538 911 465 979 q 612 746 612 844 q 401 519 612 562 l 401 517 z "},"4":{"ha":715,"x_min":22,"x_max":669,"o":"m 538 143 q 564 68 538 81 q 592 59 576 62 q 629 43 609 56 l 629 0 l 271 0 l 271 39 q 314 60 291 55 q 349 68 338 65 q 368 80 359 71 q 385 149 385 98 l 385 892 l 446 985 l 538 985 l 538 143 m 330 690 q 215 510 272 599 q 101 330 158 421 l 329 330 l 329 258 l 22 258 l 22 334 l 329 805 l 330 690 m 595 330 l 669 330 l 669 258 l 595 258 l 595 330 z "},"5":{"ha":715,"x_min":43,"x_max":650,"o":"m 285 -21 q 109 41 177 -17 q 43 168 43 96 q 143 294 43 294 q 203 273 180 294 q 226 222 226 251 q 218 179 226 193 q 199 157 211 166 q 146 132 185 146 q 189 61 148 90 q 285 31 231 32 l 285 -21 m 586 891 q 579 880 586 891 q 545 850 571 868 q 480 826 518 831 q 395 821 441 821 q 193 836 349 821 l 171 561 l 169 495 q 158 479 162 488 q 149 463 153 471 q 128 445 138 445 q 96 490 96 445 q 102 610 96 540 q 114 727 109 680 q 134 975 122 821 q 334 957 255 957 q 545 972 515 957 q 563 982 555 977 q 593 996 581 996 q 609 992 604 996 q 613 976 613 989 q 607 938 613 962 q 586 891 602 914 m 227 591 q 343 616 276 616 q 469 593 411 616 q 567 530 526 570 q 650 321 650 448 q 571 94 650 189 q 341 -19 486 -6 l 341 36 q 481 306 481 61 q 435 490 481 426 q 304 554 388 554 q 227 536 265 554 l 227 591 z "},"6":{"ha":715,"x_min":64,"x_max":661,"o":"m 503 888 q 412 933 492 930 l 411 933 l 411 985 q 560 941 503 985 q 615 842 615 899 q 591 762 615 786 q 532 737 568 737 q 475 756 497 737 q 452 817 452 776 q 486 876 452 852 q 503 888 495 882 m 355 924 q 225 524 225 873 l 225 342 q 290 60 225 125 q 340 31 312 39 l 340 -19 q 137 108 209 -5 q 64 421 64 222 q 151 827 64 678 q 355 981 227 958 l 355 924 m 375 545 q 281 513 322 545 l 281 567 q 391 603 338 603 q 490 586 445 603 q 572 534 534 570 q 661 307 661 452 q 588 77 661 168 q 397 -20 515 -14 l 397 31 q 495 174 476 46 q 503 293 503 222 q 493 413 503 364 q 467 491 484 461 q 375 545 437 545 z "},"7":{"ha":715,"x_min":75,"x_max":659,"o":"m 87 974 q 245 964 181 964 l 583 964 l 508 852 l 315 852 q 221 835 257 852 q 151 746 172 811 q 142 718 146 732 q 121 664 130 680 l 75 664 l 87 974 m 330 -21 q 232 104 232 -21 q 419 614 232 300 q 568 852 462 686 l 645 964 l 659 964 l 659 879 q 567 734 612 808 q 485 581 521 661 q 404 205 404 398 q 410 128 404 161 q 415 66 415 94 q 330 -21 415 -21 z "},"8":{"ha":715,"x_min":43,"x_max":654,"o":"m 431 597 q 487 662 469 627 q 504 761 504 697 q 471 873 504 825 q 380 932 437 921 l 380 984 q 557 911 489 976 q 622 765 622 849 q 547 606 622 671 q 492 564 523 585 l 431 597 m 268 414 q 166 229 166 342 q 207 92 166 144 q 323 30 248 39 l 323 -21 q 118 53 194 -17 q 43 232 43 123 q 206 449 43 357 l 268 414 m 248 482 q 127 577 166 528 q 77 724 77 640 q 144 895 77 821 q 323 983 213 970 l 323 935 q 228 887 265 928 q 192 800 192 846 q 205 725 192 754 q 244 670 218 696 q 404 561 286 627 l 459 530 q 654 267 654 431 q 586 77 654 155 q 380 -19 511 -7 l 380 29 q 489 90 448 37 q 528 211 528 141 q 397 399 528 321 q 308 449 356 424 l 248 482 z "},"9":{"ha":714,"x_min":58,"x_max":648,"o":"m 299 -20 q 111 76 159 -14 q 95 149 95 106 q 116 215 95 192 q 163 239 138 239 q 201 232 189 239 q 222 214 214 225 q 239 173 239 193 q 235 143 239 153 q 226 124 231 132 q 215 108 221 115 q 207 93 210 100 q 231 52 207 70 q 299 31 254 35 l 299 -20 m 292 423 q 355 411 316 411 q 434 443 395 411 l 434 387 q 322 353 381 353 q 218 373 262 353 q 138 433 173 394 q 58 647 58 519 q 127 882 58 790 q 321 984 198 976 l 321 933 q 216 663 216 910 q 292 423 216 463 m 490 538 q 480 734 490 662 q 455 849 471 807 q 377 932 429 919 l 377 983 q 570 863 498 968 q 648 549 648 748 q 568 140 648 288 q 355 -19 490 -2 l 355 37 q 456 172 424 62 q 490 538 490 292 z "}," ":{"ha":358,"x_min":0,"x_max":0,"o":""},"!":{"ha":402,"x_min":111,"x_max":290,"o":"m 168 269 q 146 505 161 374 q 126 689 131 635 q 114 861 114 813 q 120 929 114 909 q 137 962 126 950 q 201 985 158 985 q 261 967 245 985 q 288 888 288 937 q 285 790 288 838 q 276 688 281 741 q 264 579 271 635 q 252 469 258 524 q 233 269 236 331 l 168 269 m 255 144 q 290 82 290 109 q 283 39 290 55 q 264 11 276 23 q 210 -14 238 -14 q 164 -7 181 -14 q 136 11 148 -1 q 111 74 111 35 q 136 138 111 113 q 198 163 161 163 q 255 144 236 163 z "},"\"":{"ha":536,"x_min":37,"x_max":342,"o":"m 37 914 q 97 985 37 985 q 157 914 157 985 q 155 876 157 897 q 150 829 153 855 l 130 618 q 98 579 125 579 q 66 618 71 579 l 45 829 q 37 914 37 886 m 223 914 q 283 985 223 985 q 342 914 342 985 q 340 876 342 897 q 335 829 338 855 l 313 618 q 283 579 309 579 q 250 618 255 579 l 230 829 q 223 914 223 894 z "},"#":{"ha":714,"x_min":24,"x_max":691,"o":"m 648 300 l 510 300 l 465 0 l 373 0 l 418 300 l 256 300 l 212 0 l 119 0 l 164 300 l 24 300 l 24 382 l 176 382 l 205 582 l 66 582 l 66 664 l 216 664 l 261 964 l 353 964 l 309 664 l 470 664 l 513 964 l 607 964 l 562 664 l 691 664 l 691 582 l 552 582 l 522 382 l 648 382 l 648 300 m 298 582 l 267 382 l 429 382 l 459 582 l 298 582 z "},"$":{"ha":715,"x_min":71,"x_max":678,"o":"m 288 888 q 221 757 221 845 q 296 629 221 678 q 345 602 319 614 l 345 1065 l 414 1065 l 414 572 q 608 460 552 513 q 678 288 678 392 q 620 123 678 201 q 471 18 561 44 l 471 79 q 536 143 515 102 q 557 224 557 184 q 546 291 557 264 q 515 338 535 317 q 414 407 479 377 l 414 -111 l 345 -111 l 345 437 q 120 628 157 519 q 108 706 108 665 q 121 785 108 748 q 157 853 134 823 q 288 947 205 916 l 288 888 m 210 215 q 177 163 180 182 q 248 79 184 111 q 288 64 267 69 l 288 10 q 134 84 195 25 q 71 228 71 144 q 127 332 71 307 q 172 340 144 340 q 222 321 201 340 q 244 258 244 301 q 210 215 244 215 m 524 851 q 471 906 515 889 l 471 958 q 592 894 545 943 q 637 789 637 846 q 552 694 637 694 q 494 715 515 694 q 473 761 473 735 q 483 798 473 787 q 503 808 492 808 q 524 851 517 823 z "},"%":{"ha":1015,"x_min":64,"x_max":959,"o":"m 779 20 q 844 244 844 47 q 779 468 844 440 l 779 507 q 905 429 855 496 q 959 244 959 356 q 905 58 959 132 q 779 -19 857 -9 l 779 20 m 722 468 q 660 244 660 441 q 722 20 660 46 l 722 -19 q 597 60 646 -7 q 544 244 544 132 q 597 429 544 357 q 722 507 646 496 l 722 468 m 119 -21 l 821 985 l 902 985 l 200 -21 l 119 -21 m 299 495 q 364 719 364 523 q 299 943 364 916 l 299 983 q 426 904 376 971 q 479 720 479 831 q 426 534 479 608 q 299 456 377 467 l 299 495 m 243 943 q 180 719 180 917 q 243 495 180 522 l 243 456 q 117 535 167 468 q 64 720 64 607 q 117 905 64 833 q 243 983 166 971 l 243 943 z "},"&":{"ha":1044,"x_min":50,"x_max":1013,"o":"m 429 596 q 546 786 546 673 q 524 881 546 842 q 459 930 503 920 l 459 984 q 609 924 551 977 q 664 813 664 872 q 646 715 664 754 q 600 644 629 676 q 463 545 551 591 l 429 596 m 250 443 q 198 294 198 391 q 255 140 198 208 q 396 56 311 73 l 396 -21 l 386 -21 q 148 52 241 -21 q 50 260 50 129 q 148 452 50 374 q 213 497 178 475 l 250 443 m 827 -17 q 632 58 717 -17 q 452 -17 552 -3 l 452 52 q 584 102 532 58 q 431 262 489 189 q 172 745 172 583 q 237 909 172 842 q 403 983 299 972 l 403 931 q 326 818 326 918 q 395 582 326 703 q 637 270 499 420 q 690 216 665 239 q 737 351 725 270 q 741 397 741 373 q 729 436 741 421 q 702 459 718 452 q 667 469 686 466 q 635 481 649 473 l 635 525 l 977 525 l 977 482 q 941 473 959 477 q 906 463 923 469 q 848 411 867 447 q 825 355 836 385 q 801 294 814 325 q 733 167 770 218 q 801 97 781 112 q 875 68 840 68 q 964 164 947 68 l 1013 144 q 902 -4 989 32 q 827 -17 870 -17 z "},"'":{"ha":358,"x_min":119,"x_max":238,"o":"m 119 914 q 179 985 119 985 q 238 914 238 985 q 231 829 238 894 l 209 618 q 179 579 205 579 q 146 618 151 579 l 126 829 q 119 914 119 894 z "},"(":{"ha":627,"x_min":123,"x_max":595,"o":"m 586 -277 q 251 -82 381 -260 q 123 363 123 94 q 252 798 123 614 q 461 971 336 918 q 595 1003 524 998 l 595 947 q 376 800 463 934 q 275 363 275 646 q 439 -156 275 -14 q 586 -221 503 -212 l 586 -277 z "},")":{"ha":627,"x_min":32,"x_max":504,"o":"m 40 1003 q 229 944 143 995 q 375 808 314 892 q 504 363 504 629 q 374 -72 504 111 q 165 -244 291 -191 q 32 -277 102 -271 l 32 -221 q 251 -73 165 -208 q 351 363 351 82 q 252 807 351 654 q 40 947 170 933 l 40 1003 z "},"*":{"ha":625,"x_min":20,"x_max":605,"o":"m 605 839 l 366 715 l 605 590 l 559 510 l 346 657 l 354 399 l 271 399 l 279 657 l 66 510 l 20 590 l 259 714 l 20 839 l 66 920 l 279 772 l 271 1031 l 354 1031 l 346 772 l 559 920 l 605 839 z "},"+":{"ha":966,"x_min":97,"x_max":868,"o":"m 429 665 l 536 665 l 536 379 l 868 379 l 868 286 l 536 286 l 536 0 l 429 0 l 429 286 l 97 286 l 97 379 l 429 379 l 429 665 z "},",":{"ha":358,"x_min":87,"x_max":283,"o":"m 100 -229 q 147 -163 127 -197 q 167 -98 167 -128 q 151 -3 167 -45 q 106 25 124 5 q 87 83 87 45 q 111 144 87 120 q 166 168 134 168 q 217 160 198 168 q 251 136 237 153 q 283 26 283 98 q 156 -258 283 -123 l 100 -229 z "},"-":{"ha":432,"x_min":52,"x_max":380,"o":"m 380 378 l 380 288 l 52 288 l 52 378 l 380 378 z "},".":{"ha":358,"x_min":86,"x_max":271,"o":"m 142 161 q 179 168 159 168 q 215 161 198 168 q 244 142 232 154 q 271 77 271 115 q 215 -7 271 16 q 179 -14 198 -14 q 142 -7 159 -14 q 113 12 125 0 q 86 77 86 37 q 142 161 86 138 z "},"/":{"ha":403,"x_min":-77,"x_max":478,"o":"m -77 -21 l 364 985 l 478 985 l 37 -21 l -77 -21 z "},":":{"ha":358,"x_min":86,"x_max":271,"o":"m 142 644 q 179 652 159 652 q 215 645 198 652 q 244 625 232 637 q 271 559 271 599 q 215 476 271 498 q 179 469 198 469 q 142 476 159 469 q 113 495 125 483 q 86 559 86 520 q 142 644 86 621 m 142 161 q 179 168 159 168 q 215 161 198 168 q 244 142 232 154 q 271 77 271 115 q 215 -7 271 16 q 179 -14 198 -14 q 142 -7 159 -14 q 113 12 125 0 q 86 77 86 37 q 142 161 86 138 z "},";":{"ha":358,"x_min":86,"x_max":283,"o":"m 100 -229 q 148 -163 127 -197 q 168 -97 168 -128 q 151 -3 168 -45 q 106 25 124 4 q 87 83 87 45 q 111 144 87 120 q 166 168 135 168 q 217 160 198 168 q 251 136 237 153 q 283 26 283 98 q 157 -258 283 -124 l 100 -229 m 142 644 q 179 652 159 652 q 215 645 198 652 q 244 625 232 637 q 271 559 271 599 q 215 476 271 498 q 179 469 198 469 q 142 476 159 469 q 113 495 125 483 q 86 559 86 520 q 142 644 86 621 z "},"<":{"ha":966,"x_min":97,"x_max":868,"o":"m 97 282 l 97 379 l 868 671 l 868 575 l 97 282 m 293 306 l 868 90 l 868 -5 l 168 258 l 293 306 z "},"=":{"ha":966,"x_min":97,"x_max":868,"o":"m 868 404 l 97 404 l 97 497 l 868 497 l 868 404 m 868 168 l 97 168 l 97 261 l 868 261 l 868 168 z "},">":{"ha":966,"x_min":97,"x_max":868,"o":"m 868 383 l 868 286 l 97 -5 l 97 90 l 868 383 m 672 359 l 97 575 l 97 671 l 798 408 l 672 359 z "},"?":{"ha":627,"x_min":64,"x_max":576,"o":"m 270 926 q 187 899 220 926 q 155 840 157 876 q 221 808 197 831 q 245 750 245 784 q 223 695 245 716 q 160 673 201 673 q 91 701 118 673 q 64 774 64 728 q 79 854 64 821 q 119 916 93 888 q 270 983 176 972 l 270 926 m 412 758 q 326 916 412 882 l 326 985 q 511 911 441 981 q 576 758 576 847 q 509 602 576 670 q 445 547 479 573 q 382 492 411 522 q 314 332 314 422 l 314 273 l 250 273 l 250 346 q 292 492 250 427 q 331 544 310 519 q 370 598 352 569 q 412 758 412 668 m 345 144 q 378 82 378 109 q 372 39 378 55 q 353 11 365 23 q 299 -14 328 -14 q 253 -7 270 -14 q 225 11 237 -1 q 200 74 200 35 q 225 138 200 113 q 287 163 250 163 q 345 144 325 163 z "},"@":{"ha":1288,"x_min":-263,"x_max":906,"o":"m 377 41 q 631 84 520 43 q 702 113 666 97 l 722 62 q 502 -6 575 5 q 377 -20 429 -18 l 377 41 m 321 -20 q -105 138 62 -12 q -263 460 -263 280 q -99 832 -263 687 q 321 984 64 976 l 321 928 q 12 798 132 918 q -119 453 -119 667 q 3 179 -119 296 q 321 43 127 58 l 321 -20 m 555 317 q 618 264 555 264 q 772 361 709 264 q 828 554 828 450 q 701 807 828 697 q 377 928 570 920 l 377 984 q 753 856 602 977 q 865 722 825 799 q 906 555 906 645 q 825 326 906 432 q 591 208 733 208 q 491 235 530 208 q 444 302 452 261 l 441 302 q 362 239 393 256 q 257 208 304 208 q 180 219 211 208 q 127 252 149 230 q 81 390 81 299 q 124 551 81 469 q 239 685 166 632 q 406 741 316 741 q 501 708 465 741 l 486 648 q 427 675 464 675 q 351 653 389 675 q 281 593 313 631 q 205 389 205 503 q 230 303 205 332 q 292 273 254 273 q 362 298 330 273 q 420 361 393 323 q 500 534 473 437 l 551 724 l 669 724 l 565 374 q 555 317 555 340 z "},"A":{"ha":850,"x_min":-24,"x_max":874,"o":"m 482 306 l 276 306 l 293 368 l 462 368 l 482 306 m 348 680 l 189 204 q 168 114 168 144 q 178 74 169 83 q 201 60 186 64 q 233 54 215 56 q 271 41 252 51 l 271 0 l -24 0 l -24 41 q 5 54 -10 50 q 35 65 21 59 q 78 110 68 80 l 307 790 l 348 680 m 331 859 q 281 885 294 872 q 285 912 283 899 q 290 937 288 924 q 295 958 292 949 q 444 985 424 985 q 471 942 458 973 l 768 121 q 813 65 783 80 q 842 54 827 58 q 874 41 857 50 l 874 0 l 507 0 l 507 41 q 540 52 523 49 q 571 58 557 55 q 602 89 602 66 q 570 199 602 109 q 512 358 537 288 q 375 750 442 554 l 331 859 z "},"B":{"ha":909,"x_min":57,"x_max":848,"o":"m 426 908 q 377 903 393 908 l 377 964 l 448 964 q 716 897 626 964 q 799 726 799 836 q 735 581 799 640 q 564 511 672 524 l 564 509 q 826 363 766 481 q 848 265 848 321 q 829 160 848 208 q 768 76 809 112 q 509 0 679 0 l 377 0 l 377 60 q 438 56 392 56 q 610 103 555 56 q 665 256 665 151 q 606 417 665 361 q 426 473 547 473 l 377 473 l 377 533 l 403 533 q 615 725 615 533 q 426 908 615 908 m 321 0 l 57 0 l 57 40 q 93 53 75 48 q 123 65 110 58 q 152 125 152 81 l 152 839 q 123 899 152 882 q 93 911 110 906 q 57 924 75 916 l 57 964 l 321 964 l 321 0 z "},"C":{"ha":896,"x_min":58,"x_max":831,"o":"m 710 917 q 750 953 734 917 l 810 953 l 810 614 l 764 614 q 715 698 736 640 q 681 791 694 757 q 647 853 667 825 q 523 927 602 916 l 523 983 q 687 926 608 975 q 710 917 701 917 m 523 44 q 735 193 672 44 q 766 317 757 245 l 831 301 q 734 65 810 143 q 523 -20 658 -14 l 523 44 m 467 -20 q 171 124 283 -11 q 58 482 58 260 q 175 840 58 698 q 467 985 290 979 l 467 928 q 267 687 317 913 q 249 485 249 603 q 267 290 249 368 q 316 161 286 212 q 467 48 372 66 l 467 -20 z "},"D":{"ha":984,"x_min":57,"x_max":916,"o":"m 560 892 q 457 913 507 913 q 388 909 406 913 l 388 964 l 454 964 q 795 829 671 964 q 916 482 916 699 q 795 134 916 264 q 454 0 671 0 l 388 0 l 388 55 q 461 52 415 52 q 561 72 507 52 q 650 142 614 93 q 725 482 725 244 q 560 892 725 828 m 332 0 l 57 0 l 57 40 q 93 53 75 48 q 123 65 110 58 q 152 125 152 81 l 152 839 q 123 899 152 882 q 93 911 110 906 q 57 924 75 916 l 57 964 l 332 964 l 332 0 z "},"E":{"ha":850,"x_min":57,"x_max":794,"o":"m 57 0 l 57 40 q 94 56 73 50 q 123 66 115 61 q 138 81 132 71 q 152 158 152 102 l 152 804 q 142 877 152 861 q 124 897 132 892 q 104 905 115 901 q 57 924 71 914 l 57 964 l 321 964 l 321 0 l 57 0 m 377 56 l 390 55 q 606 87 543 55 q 701 221 673 121 q 712 259 707 242 q 722 291 716 277 q 750 339 732 321 l 794 339 l 794 0 l 377 0 l 377 56 m 628 964 q 764 974 670 964 l 764 642 l 716 642 q 680 710 692 672 q 653 784 667 748 q 626 842 640 820 q 592 878 612 863 q 482 908 551 908 q 377 898 412 908 l 377 964 l 628 964 m 377 574 l 575 574 l 575 446 l 377 446 l 377 574 z "},"F":{"ha":774,"x_min":57,"x_max":749,"o":"m 591 869 q 580 878 591 869 q 537 895 569 886 q 455 904 505 904 q 377 899 404 904 l 377 964 l 606 964 q 749 974 651 964 l 749 642 l 704 642 q 668 708 680 667 q 648 775 656 749 q 626 827 640 802 q 591 869 612 852 m 321 154 q 331 85 321 100 q 351 65 341 70 q 372 58 360 61 q 399 52 385 55 q 431 40 414 48 l 431 0 l 57 0 l 57 40 q 94 56 73 50 q 123 66 115 61 q 138 81 132 71 q 152 158 152 102 l 152 804 q 142 877 152 861 q 124 897 132 892 q 104 905 115 901 q 57 924 71 914 l 57 964 l 321 964 l 321 154 m 377 566 l 575 566 l 575 438 l 377 438 l 377 566 z "},"G":{"ha":924,"x_min":60,"x_max":878,"o":"m 694 920 q 730 956 718 920 l 787 956 l 787 618 l 742 618 q 693 715 713 654 q 660 808 673 776 q 627 865 648 840 q 498 926 582 922 l 498 984 q 605 959 559 980 q 668 929 651 938 q 694 920 685 920 m 807 164 q 829 53 807 102 l 804 37 q 607 17 733 17 q 576 8 600 17 q 498 -14 531 -7 l 498 35 q 608 96 575 39 q 638 265 638 150 q 634 353 638 328 q 618 388 630 378 q 591 404 607 398 q 557 413 575 410 q 522 422 538 416 l 522 468 l 878 468 q 863 429 874 444 q 840 401 852 415 q 807 317 807 366 l 807 164 m 442 923 q 251 478 251 885 q 368 68 251 146 q 442 38 402 45 l 442 -17 q 163 119 267 -17 q 60 482 60 256 q 165 826 60 685 q 442 983 274 970 l 442 923 z "},"H":{"ha":983,"x_min":55,"x_max":928,"o":"m 667 814 q 656 879 667 864 q 637 897 646 893 q 618 905 629 901 q 572 924 585 914 l 572 964 l 928 964 l 928 924 q 893 911 909 916 q 863 899 876 906 q 836 839 836 882 l 836 125 q 863 65 836 81 q 893 53 876 58 q 928 40 909 48 l 928 0 l 572 0 l 572 40 q 663 113 650 51 q 667 160 667 133 l 667 814 m 315 154 q 344 65 315 80 q 375 55 353 61 q 410 40 397 48 l 410 0 l 55 0 l 55 40 q 90 53 73 48 q 119 65 106 58 q 146 125 146 81 l 146 839 q 119 899 146 882 q 90 911 106 906 q 55 924 73 916 l 55 964 l 410 964 l 410 924 q 373 907 395 913 q 343 897 351 901 q 328 882 334 892 q 315 807 315 861 l 315 154 m 610 471 l 372 471 l 372 533 l 610 533 l 610 471 z "},"I":{"ha":492,"x_min":63,"x_max":429,"o":"m 427 964 l 427 924 q 390 911 408 916 q 359 899 372 906 q 330 839 330 882 l 330 125 q 359 65 330 81 q 391 53 373 58 q 429 40 408 48 l 429 0 l 63 0 l 63 40 q 100 53 83 48 q 132 65 118 58 q 161 125 161 81 l 161 839 q 132 899 161 882 q 100 911 118 906 q 63 924 83 916 l 63 964 l 427 964 z "},"J":{"ha":655,"x_min":14,"x_max":602,"o":"m 219 -20 q 65 33 121 -16 q 14 140 14 77 q 41 232 14 203 q 110 260 68 260 q 174 237 151 260 q 197 184 197 214 q 191 141 197 155 q 175 119 184 127 q 132 97 165 110 q 157 53 134 71 q 219 31 180 35 l 219 -20 m 338 843 q 303 899 338 884 q 268 911 288 906 q 229 924 248 916 l 229 964 l 602 964 l 602 924 q 568 911 585 916 q 538 899 551 906 q 509 843 509 884 l 509 237 q 450 51 509 113 q 275 -20 392 -12 l 275 35 q 325 75 311 45 q 339 161 339 105 l 338 843 z "},"K":{"ha":909,"x_min":57,"x_max":932,"o":"m 377 548 l 589 803 q 608 823 598 813 q 625 843 617 833 q 644 877 644 865 q 635 895 644 889 q 613 904 627 901 q 582 911 599 908 q 551 922 566 914 l 551 964 l 884 964 l 884 922 q 858 910 873 914 q 823 899 843 905 q 736 847 773 883 l 515 586 l 817 117 q 874 64 838 79 q 904 54 889 58 q 932 41 918 50 l 932 0 l 552 0 l 552 41 q 578 53 564 50 q 607 61 593 57 q 640 90 640 71 q 631 119 640 104 q 607 160 622 134 l 377 513 l 377 548 m 321 151 q 336 79 321 97 q 415 40 361 50 l 415 0 l 57 0 l 57 40 q 93 53 75 48 q 123 65 110 58 q 152 125 152 81 l 152 810 q 142 878 152 863 q 123 897 132 893 q 104 905 115 901 q 57 924 70 914 l 57 964 l 415 964 l 415 924 q 345 895 359 913 q 321 811 321 865 l 321 151 z "},"L":{"ha":774,"x_min":61,"x_max":743,"o":"m 61 0 l 61 40 q 88 52 73 48 q 115 60 102 55 q 151 97 147 70 q 156 167 156 124 l 156 798 q 138 891 156 877 q 99 909 124 903 q 61 924 73 916 l 61 964 l 425 964 l 425 924 q 395 912 410 916 q 366 903 379 908 q 330 867 334 892 q 326 799 326 840 l 326 0 l 61 0 m 382 56 q 403 56 392 56 l 425 56 q 609 136 553 56 q 648 219 634 172 q 669 283 663 267 q 701 345 682 320 l 743 345 l 743 0 l 382 0 l 382 56 z "},"M":{"ha":1163,"x_min":57,"x_max":1105,"o":"m 613 347 l 795 964 l 1100 964 l 1100 924 q 1067 911 1084 916 q 1038 901 1051 907 q 1010 850 1010 886 l 1010 125 q 1039 66 1010 83 q 1069 54 1052 59 q 1105 40 1086 48 l 1105 0 l 750 0 l 750 40 q 782 54 766 48 q 811 66 798 59 q 840 125 840 83 l 840 867 l 838 867 l 649 229 l 613 347 m 229 801 l 229 144 q 260 70 229 92 q 293 55 275 60 q 329 40 311 49 l 329 0 l 57 0 l 57 40 q 90 53 73 48 q 121 68 107 58 q 152 143 152 89 l 152 830 l 229 801 m 232 852 q 57 924 89 907 l 57 964 l 363 964 l 623 140 l 581 0 l 501 0 l 232 852 z "},"N":{"ha":969,"x_min":37,"x_max":926,"o":"m 747 361 l 747 839 q 713 895 747 876 q 679 910 698 903 q 642 925 661 917 l 642 965 l 926 965 l 926 925 q 891 910 909 917 q 859 895 873 903 q 825 839 825 876 l 825 239 l 747 361 m 221 720 l 221 126 q 256 71 221 89 q 293 55 272 62 q 335 40 313 48 l 335 0 l 37 0 l 37 40 q 75 55 56 48 q 109 71 94 62 q 143 126 143 90 l 143 822 l 221 720 m 224 804 q 79 911 151 890 q 41 924 60 918 l 41 964 l 306 964 l 825 143 l 825 -5 l 725 -5 l 224 804 z "},"O":{"ha":969,"x_min":58,"x_max":909,"o":"m 455 -20 q 168 137 281 -8 q 58 482 58 278 q 168 826 58 685 q 455 983 281 971 l 455 928 q 305 822 355 918 q 249 482 249 712 q 370 65 249 144 q 455 36 408 41 l 455 -20 m 511 36 q 703 278 663 52 q 718 482 718 361 q 596 898 718 819 q 511 928 558 922 l 511 984 q 799 827 686 972 q 909 482 909 686 q 799 137 909 279 q 511 -20 686 -7 l 511 36 z "},"P":{"ha":834,"x_min":61,"x_max":813,"o":"m 622 711 q 435 913 622 913 q 382 909 405 913 l 382 964 l 441 964 q 785 825 707 964 q 813 716 813 777 q 791 609 813 656 q 725 528 769 562 q 460 453 630 453 l 382 453 l 382 504 q 562 548 505 504 q 622 711 622 597 m 326 161 q 329 98 326 115 q 345 73 333 81 q 372 60 356 64 q 408 52 389 56 q 444 40 427 48 l 444 0 l 61 0 l 61 40 q 87 52 73 48 q 115 60 102 55 q 152 98 148 70 q 156 163 156 126 l 156 802 q 138 891 156 877 q 99 909 124 903 q 61 924 73 916 l 61 964 l 326 964 l 326 161 z "},"Q":{"ha":969,"x_min":58,"x_max":983,"o":"m 511 36 q 703 278 663 52 q 718 482 718 361 q 596 898 718 819 q 511 928 558 922 l 511 984 q 799 827 686 972 q 909 482 909 686 q 827 178 909 309 q 608 0 745 45 q 693 -51 655 -26 q 760 -93 730 -75 q 848 -132 823 -132 q 884 -129 873 -132 q 903 -121 895 -126 q 918 -108 911 -115 q 935 -94 925 -101 l 983 -138 q 868 -224 943 -202 q 795 -233 840 -233 q 706 -211 750 -233 q 626 -158 661 -190 q 564 -89 591 -126 q 511 -20 536 -52 l 511 36 m 455 -20 q 168 137 281 -8 q 58 482 58 278 q 168 826 58 685 q 455 983 281 971 l 455 928 q 305 822 355 918 q 249 482 249 712 q 370 65 249 144 q 455 36 408 41 l 455 -20 z "},"R":{"ha":909,"x_min":61,"x_max":893,"o":"m 407 964 q 805 724 805 964 q 733 561 805 626 q 528 488 658 493 l 528 485 q 637 414 599 468 q 682 323 658 385 q 721 225 707 261 q 749 159 735 189 q 806 94 781 94 q 823 103 816 94 q 838 123 831 112 q 876 153 859 153 q 886 149 878 153 q 893 134 893 145 q 888 111 893 123 q 830 31 850 50 q 737 -11 788 -11 q 655 5 686 -11 q 605 49 625 22 q 572 113 585 77 q 550 188 559 149 q 530 267 540 227 q 507 343 521 307 q 416 452 474 424 q 382 468 402 460 l 382 524 q 614 631 574 524 q 628 720 628 669 q 574 862 628 811 q 410 913 521 913 q 382 911 391 913 l 382 964 l 407 964 m 326 161 q 328 98 326 117 q 341 72 331 80 q 364 59 351 64 q 393 52 378 55 q 420 40 408 48 l 420 0 l 61 0 l 61 40 q 85 52 71 48 q 114 60 100 55 q 152 98 148 70 q 156 163 156 126 l 156 802 q 138 891 156 877 q 99 909 124 903 q 61 924 73 916 l 61 964 l 326 964 l 326 161 z "},"S":{"ha":789,"x_min":73,"x_max":725,"o":"m 401 983 q 487 960 452 978 q 536 934 523 941 q 558 926 549 926 q 574 930 568 926 q 585 940 580 935 q 593 952 589 945 q 600 964 596 958 l 662 964 l 662 646 l 613 646 q 579 714 598 661 q 547 798 560 766 q 514 856 534 829 q 401 927 471 916 l 401 983 m 264 4 q 244 13 264 4 q 208 30 224 22 q 174 37 191 37 q 136 0 157 37 l 73 0 l 73 335 l 119 335 q 146 292 134 319 q 171 234 158 265 q 200 169 184 202 q 238 107 216 136 q 366 36 288 44 l 366 -20 q 264 4 304 -14 m 422 37 q 535 96 495 45 q 570 200 570 142 q 549 295 570 259 q 494 358 528 330 q 416 408 460 385 q 326 452 372 430 q 236 498 280 474 q 159 553 193 522 q 82 725 82 624 q 152 900 82 827 q 345 984 227 976 l 345 928 q 232 842 261 917 q 222 781 222 817 q 244 712 222 744 q 301 655 266 680 q 381 609 336 630 q 474 566 427 588 q 566 519 521 545 q 646 461 611 494 q 725 279 725 386 q 642 79 725 164 q 422 -20 554 -12 l 422 37 z "},"T":{"ha":805,"x_min":23,"x_max":781,"o":"m 486 964 l 486 155 q 498 86 486 102 q 519 67 509 71 q 541 60 529 62 q 593 40 576 51 l 593 0 l 212 0 l 212 40 q 251 56 227 50 q 285 66 275 62 q 302 80 295 71 q 317 155 317 100 l 317 964 l 486 964 m 688 964 q 781 974 715 964 l 781 653 l 734 653 q 718 708 725 679 q 702 765 711 736 q 682 819 693 793 q 652 865 670 845 q 543 908 611 908 l 543 964 l 688 964 m 24 974 q 74 964 57 964 l 260 964 l 260 908 q 122 818 163 908 q 91 727 102 775 q 71 653 79 678 l 23 653 l 23 972 l 24 974 z "},"U":{"ha":953,"x_min":43,"x_max":921,"o":"m 538 35 q 724 146 680 41 q 739 227 739 181 l 739 831 q 673 909 739 887 q 636 924 654 916 l 636 964 l 921 964 l 921 924 q 884 909 903 916 q 850 894 865 903 q 817 831 817 873 l 817 248 q 538 -19 817 1 l 538 35 m 481 -21 q 159 137 228 -21 q 136 257 136 189 l 136 839 q 109 899 136 882 q 80 911 97 906 q 43 924 63 916 l 43 964 l 398 964 l 398 924 q 361 911 378 916 q 331 899 344 906 q 304 839 304 883 l 304 225 q 353 95 304 146 q 481 37 399 46 l 481 -21 z "},"V":{"ha":805,"x_min":-18,"x_max":836,"o":"m 475 290 q 496 353 475 295 q 532 456 516 410 q 565 549 548 501 q 597 646 581 597 q 625 735 613 694 q 654 852 654 828 q 645 886 654 876 q 624 900 637 896 q 596 907 611 904 q 568 921 581 911 l 568 964 l 836 964 l 836 921 q 812 909 825 914 q 785 898 799 905 q 741 843 754 881 l 509 174 l 475 290 m 485 106 l 443 -16 l 359 -16 l 68 861 q 9 909 57 894 q -18 921 -4 913 l -18 964 l 332 964 l 332 921 q 298 910 315 914 q 270 901 282 906 q 241 870 241 890 q 249 829 241 850 q 266 781 257 808 l 485 106 z "},"W":{"ha":1163,"x_min":-16,"x_max":1197,"o":"m 878 319 q 940 533 905 410 q 989 704 975 656 q 1014 790 1002 751 q 1025 852 1025 828 q 1017 886 1025 876 q 997 902 1009 896 q 968 911 984 907 q 937 921 953 915 l 937 964 l 1197 964 l 1197 921 q 1176 910 1187 914 q 1152 901 1164 906 q 1115 869 1124 888 q 1090 799 1103 843 l 913 198 l 878 319 m 888 114 l 850 -16 l 765 -16 l 581 608 l 578 608 l 458 188 l 424 313 l 520 647 q 534 693 528 673 q 544 730 541 713 q 515 840 532 798 q 489 890 498 882 q 468 903 479 898 q 446 911 457 907 q 427 921 435 914 l 427 964 l 750 964 l 750 921 q 723 911 737 915 q 696 903 709 908 q 668 873 668 892 q 674 833 668 853 q 690 782 681 812 l 888 114 m 435 104 l 401 -16 l 312 -16 l 69 823 q 32 898 49 889 q 15 906 24 903 q -16 921 -10 914 l -16 964 l 301 964 l 301 921 q 275 910 289 914 q 250 902 261 907 q 221 870 221 890 q 228 831 221 850 q 241 787 235 811 l 435 104 z "},"X":{"ha":834,"x_min":-16,"x_max":850,"o":"m 474 652 q 533 737 508 701 q 574 799 557 773 q 606 869 606 850 q 598 894 606 887 q 579 905 591 901 q 552 912 567 909 q 524 921 538 915 l 524 964 l 825 964 l 825 921 q 783 906 811 913 q 719 878 736 895 q 562 661 660 813 q 511 585 538 623 l 474 652 m 363 376 q 298 280 326 320 q 253 212 271 240 q 223 167 235 184 q 206 138 212 149 q 196 100 196 119 q 204 72 196 81 q 225 60 212 64 q 253 55 237 57 q 285 41 269 52 l 285 0 l -16 0 l -16 41 q 19 58 -4 51 q 77 83 64 69 q 115 130 102 112 l 320 444 l 363 376 m 132 835 q 116 859 124 848 q 100 880 107 869 q 65 902 87 896 q 30 911 43 907 q 5 921 16 914 l 5 964 l 366 964 l 366 925 q 339 913 352 918 q 315 905 326 909 q 292 878 292 897 q 309 836 292 865 l 696 189 q 742 120 714 158 q 782 74 769 83 q 807 60 795 65 q 830 52 819 56 q 850 41 841 49 l 850 0 l 479 0 l 479 41 q 510 52 494 49 q 539 59 526 55 q 570 93 570 68 q 543 151 570 108 l 132 835 z "},"Y":{"ha":805,"x_min":-21,"x_max":834,"o":"m 481 537 q 622 818 612 793 q 633 864 633 848 q 625 888 633 879 q 603 902 616 897 q 573 911 589 907 q 543 921 557 915 l 543 964 l 834 964 l 834 921 q 796 904 823 913 q 756 889 769 896 q 726 856 744 883 q 680 779 707 828 q 627 677 653 730 q 574 571 600 625 q 522 465 548 517 l 481 537 m 493 409 l 486 399 l 486 157 q 523 65 486 80 q 546 58 534 61 q 596 40 583 49 l 596 0 l 208 0 l 208 40 q 247 55 222 50 q 281 65 271 60 q 300 80 292 69 q 317 160 317 102 l 317 401 l 81 852 q 5 909 62 890 q -21 921 -8 914 l -21 964 l 358 964 l 358 921 q 325 911 342 914 q 296 903 309 907 q 266 869 266 893 q 287 811 266 852 q 329 729 308 770 q 380 629 349 689 q 454 485 411 570 l 493 409 z "},"Z":{"ha":789,"x_min":40,"x_max":742,"o":"m 294 60 q 453 70 387 60 q 550 96 520 79 q 600 136 581 113 q 631 187 620 159 q 652 243 643 215 q 694 346 678 323 l 742 346 l 742 0 l 260 0 l 294 60 m 83 974 q 192 964 129 964 l 511 964 l 477 904 q 271 879 326 904 q 187 798 212 852 q 157 720 172 766 q 129 656 142 674 l 83 656 l 83 974 m 572 964 l 730 964 l 730 913 l 193 0 l 40 0 l 40 62 l 572 964 z "},"[":{"ha":670,"x_min":227,"x_max":496,"o":"m 227 975 l 496 975 l 496 928 q 487 918 496 920 q 459 911 477 916 q 378 894 393 905 q 360 869 363 883 q 356 833 356 855 l 356 -109 q 371 -163 356 -153 q 459 -186 394 -180 q 487 -192 477 -189 q 496 -203 496 -195 l 496 -249 l 227 -249 l 227 975 z "},"\\":{"ha":403,"x_min":-77,"x_max":478,"o":"m 37 985 l 478 -21 l 364 -21 l -77 985 l 37 985 z "},"]":{"ha":670,"x_min":174,"x_max":443,"o":"m 443 -249 l 174 -249 l 174 -203 q 183 -192 174 -195 q 218 -186 193 -189 q 263 -179 243 -183 q 294 -166 283 -174 q 313 -109 313 -153 l 313 833 q 298 888 313 878 q 210 911 277 905 q 183 918 193 916 q 174 928 174 920 l 174 975 l 443 975 l 443 -249 z "},"^":{"ha":966,"x_min":143,"x_max":823,"o":"m 143 461 l 433 964 l 533 964 l 823 461 l 702 461 l 483 846 l 263 461 l 143 461 z "},"_":{"ha":805,"x_min":0,"x_max":805,"o":"m 0 -174 l 0 -104 l 805 -104 l 805 -174 l 0 -174 z "},"`":{"ha":432,"x_min":-6,"x_max":332,"o":"m 267 743 l 37 879 q -6 933 -6 904 q 24 977 -6 962 q 53 981 35 981 q 137 929 82 981 l 332 743 l 267 743 z "},"a":{"ha":715,"x_min":41,"x_max":713,"o":"m 388 346 q 206 154 206 280 q 231 72 206 103 q 303 41 255 41 q 388 77 352 41 l 388 13 q 270 -18 336 -18 q 164 -5 204 -18 q 98 30 125 7 q 41 150 41 75 q 315 382 41 304 q 388 403 353 394 l 388 346 m 227 589 q 264 524 264 574 q 241 471 264 491 q 179 452 218 452 q 118 473 140 452 q 95 527 95 494 q 111 587 95 560 q 155 633 126 613 q 303 683 214 676 l 303 631 q 227 589 248 626 m 631 67 q 678 135 668 67 l 713 117 q 676 16 706 51 q 583 -18 647 -18 q 508 0 532 -18 q 444 90 469 30 l 444 513 q 422 586 444 555 q 359 627 400 616 l 359 683 q 589 440 589 671 l 589 119 q 631 67 589 67 z "},"b":{"ha":744,"x_min":26,"x_max":691,"o":"m 599 73 q 502 5 557 28 q 396 -18 448 -18 q 307 -8 345 -18 l 307 59 q 370 40 335 40 q 528 328 528 40 q 444 602 528 557 q 388 616 416 616 q 342 604 359 616 q 307 576 324 591 l 307 655 q 407 684 355 684 q 509 663 459 684 q 600 598 559 642 q 691 332 691 501 q 599 73 691 171 m 97 -5 q 106 149 106 61 l 106 846 q 80 902 106 886 q 54 914 68 909 q 26 926 39 918 l 26 968 l 251 968 l 251 9 q 201 41 216 23 q 169 16 182 32 q 152 -5 156 -1 l 97 -5 z "},"c":{"ha":656,"x_min":48,"x_max":607,"o":"m 493 574 q 408 627 474 621 l 408 682 q 552 623 498 677 q 599 515 599 576 q 551 430 599 452 q 507 422 534 422 q 457 443 479 422 q 435 491 435 464 q 441 531 435 518 q 456 552 447 544 q 475 565 465 560 q 493 574 485 570 m 408 43 q 530 148 491 56 q 551 200 542 174 l 607 183 q 483 8 569 52 q 408 -15 451 -9 l 408 43 m 210 334 q 352 43 210 68 l 352 -18 q 138 73 224 -16 q 48 326 48 169 q 132 568 48 465 q 352 683 219 673 l 352 623 q 220 451 250 600 q 210 334 210 400 z "},"d":{"ha":744,"x_min":54,"x_max":718,"o":"m 493 856 q 466 905 493 892 q 438 915 454 911 q 407 926 422 918 l 407 968 l 637 968 l 637 123 q 692 52 637 69 q 718 40 705 47 l 718 0 l 493 0 l 493 856 m 361 616 q 216 328 216 616 q 353 40 216 40 q 437 90 393 40 l 437 9 q 331 -18 392 -18 q 220 5 270 -18 q 134 72 171 28 q 54 326 54 169 q 133 583 54 484 q 334 684 213 684 q 437 658 388 684 l 437 593 q 361 616 404 616 z "},"e":{"ha":712,"x_min":48,"x_max":650,"o":"m 488 404 q 391 624 488 600 l 391 682 q 586 576 517 671 q 650 345 650 487 l 267 345 l 267 404 l 488 404 m 393 41 q 561 153 511 47 q 585 215 575 183 l 644 193 q 488 3 606 52 q 393 -18 447 -14 l 393 41 m 210 375 q 337 47 210 83 l 337 -16 q 126 95 204 -1 q 48 332 48 189 q 126 578 48 481 q 334 683 205 675 l 334 627 q 210 375 210 612 z "},"f":{"ha":448,"x_min":28,"x_max":535,"o":"m 281 150 q 312 60 281 75 q 347 50 327 53 q 390 36 366 47 l 390 0 l 37 0 l 37 36 q 74 51 51 45 q 106 60 96 56 q 122 73 115 64 q 137 138 137 91 l 137 606 l 28 606 l 28 644 q 66 658 37 654 q 136 679 122 665 q 166 867 143 817 q 215 940 189 917 q 281 975 241 964 l 281 150 m 448 895 q 359 933 433 933 q 338 930 349 933 l 338 983 q 379 985 353 985 q 436 976 406 985 q 488 952 466 968 q 535 861 535 918 q 511 803 535 825 q 469 785 491 785 q 434 788 446 785 q 414 799 422 792 q 393 842 393 814 q 448 895 393 881 m 338 665 l 426 665 l 426 606 l 338 606 l 338 665 z "},"g":{"ha":701,"x_min":68,"x_max":673,"o":"m 241 217 q 223 143 223 182 q 242 141 223 140 q 293 141 262 141 q 365 139 325 140 q 448 131 406 137 q 530 114 490 125 q 602 83 570 102 q 672 -37 672 39 q 594 -184 672 -124 q 384 -252 513 -247 l 384 -208 q 516 -161 465 -202 q 563 -70 563 -123 q 510 14 563 -16 q 372 45 458 45 q 233 39 286 45 q 180 -37 186 22 q 178 -77 178 -54 q 189 -122 178 -100 q 220 -163 200 -145 q 321 -207 260 -200 l 321 -252 q 133 -190 203 -245 q 68 -69 68 -139 q 136 54 68 9 q 172 72 154 66 l 172 75 q 119 132 137 84 q 113 166 113 149 q 119 193 113 182 q 133 213 124 203 q 176 246 149 229 l 241 217 m 232 461 q 315 290 232 309 l 315 243 q 199 279 256 247 q 83 467 83 346 q 147 612 83 553 q 315 680 211 670 l 315 633 q 232 461 232 614 m 613 619 q 598 619 613 619 q 568 633 583 619 q 553 661 553 647 q 564 703 553 675 q 515 639 522 701 q 579 572 564 600 q 605 473 605 526 q 588 381 605 420 q 540 313 571 342 q 371 243 475 252 l 371 289 q 457 461 457 308 q 371 633 457 614 l 371 680 q 467 661 420 677 q 584 755 485 755 q 641 741 622 755 q 673 686 673 715 q 658 638 673 658 q 613 619 643 619 z "},"h":{"ha":806,"x_min":47,"x_max":770,"o":"m 279 107 q 307 61 279 75 q 335 49 319 54 q 364 36 350 44 l 364 0 l 48 0 l 48 36 q 78 49 63 44 q 106 61 94 54 q 134 107 134 75 l 134 856 q 106 905 134 892 q 79 915 94 911 q 47 926 63 918 l 47 968 l 279 968 l 279 107 m 437 611 q 335 569 381 611 l 335 643 q 473 684 395 684 q 623 635 564 684 q 686 492 686 582 l 686 107 q 714 61 686 76 q 741 49 726 54 q 770 36 756 44 l 770 0 l 507 0 l 507 49 q 513 67 507 61 q 524 80 518 74 q 541 119 541 98 l 541 494 q 437 611 541 611 z "},"i":{"ha":431,"x_min":66,"x_max":381,"o":"m 296 673 l 296 107 q 324 61 296 75 q 352 49 337 54 q 381 36 367 44 l 381 0 l 66 0 l 66 36 q 95 49 80 44 q 123 61 111 54 q 152 107 152 75 l 152 561 q 125 610 152 597 q 97 620 113 616 q 66 632 81 624 l 66 669 l 296 673 m 127 884 q 127 903 127 884 q 152 947 127 923 q 207 971 177 971 q 253 965 236 971 q 281 947 269 958 q 307 884 307 922 q 281 821 307 846 q 217 798 256 798 q 152 821 177 798 q 127 884 127 845 z "},"j":{"ha":372,"x_min":-113,"x_max":273,"o":"m 68 -282 q 56 -283 62 -283 l 44 -283 q -102 -214 -65 -283 q -113 -162 -113 -193 q -91 -111 -113 -131 q -42 -90 -70 -90 q -1 -97 -15 -90 q 22 -115 13 -104 q 37 -158 37 -136 q 20 -204 37 -204 q 58 -220 26 -220 l 68 -220 l 68 -282 m 124 555 q 94 605 124 588 q 64 617 80 612 q 34 632 48 623 l 34 673 l 269 673 l 269 7 q 195 -236 269 -170 q 124 -273 167 -261 l 124 555 m 183 971 q 248 947 222 971 q 273 884 273 923 q 248 821 273 845 q 183 798 222 798 q 119 821 144 798 q 94 884 94 845 q 119 947 94 923 q 183 971 144 971 z "},"k":{"ha":730,"x_min":35,"x_max":741,"o":"m 266 136 q 293 61 266 74 q 311 54 301 58 q 351 36 338 45 l 351 0 l 35 0 l 35 36 q 66 52 50 48 q 94 61 81 55 q 121 136 121 76 l 121 825 q 95 904 121 893 q 77 910 87 907 q 35 926 47 917 l 35 968 l 266 968 l 266 136 m 322 406 l 443 518 q 490 582 490 562 q 435 613 490 602 q 408 623 420 616 l 408 665 l 709 665 l 709 625 q 675 610 693 618 q 633 589 656 602 q 518 498 579 557 l 441 424 l 644 94 q 683 58 662 64 q 715 48 703 51 q 741 37 728 45 l 741 0 l 443 0 l 443 36 q 477 83 476 52 q 473 100 477 92 l 322 365 l 322 406 z "},"l":{"ha":387,"x_min":37,"x_max":355,"o":"m 269 968 l 269 107 q 297 61 269 75 q 325 49 309 54 q 355 36 340 44 l 355 0 l 39 0 l 39 36 q 68 49 53 44 q 96 61 83 54 q 124 107 124 76 l 124 854 q 95 902 124 886 q 66 913 82 909 q 37 926 51 918 l 37 968 l 269 968 z "},"m":{"ha":1162,"x_min":37,"x_max":1131,"o":"m 326 644 q 459 684 384 684 q 635 601 580 684 q 659 549 651 576 l 659 107 q 685 60 659 74 q 711 48 697 53 q 739 36 726 44 l 739 0 l 479 0 l 479 46 q 491 70 479 59 q 508 89 503 81 q 513 111 513 96 l 513 503 q 418 611 513 611 q 326 575 363 611 l 326 644 m 807 611 q 715 578 755 611 l 715 644 q 835 682 776 682 q 931 671 895 682 q 993 635 967 659 q 1048 489 1048 586 l 1048 107 q 1076 60 1048 74 q 1102 48 1087 53 q 1131 36 1116 44 l 1131 0 l 869 0 l 869 46 q 881 71 869 59 q 903 113 903 93 l 903 509 q 807 611 903 611 m 269 107 q 297 61 269 75 q 325 49 309 54 q 355 36 340 44 l 355 0 l 39 0 l 39 36 q 68 49 53 44 q 96 61 83 54 q 124 107 124 76 l 124 528 q 98 606 124 595 q 80 612 90 609 q 37 628 50 618 l 37 669 l 269 669 l 269 107 z "},"n":{"ha":806,"x_min":47,"x_max":770,"o":"m 438 611 q 335 567 382 611 l 335 641 q 475 684 395 684 q 627 635 569 684 q 686 492 686 584 l 686 135 q 712 60 686 71 q 730 54 720 56 q 770 36 755 47 l 770 0 l 507 0 l 507 46 q 519 70 507 59 q 536 89 530 81 q 541 111 541 96 l 541 498 q 438 611 541 611 m 279 138 q 306 61 279 74 q 323 54 314 58 q 364 36 351 45 l 364 0 l 48 0 l 48 36 q 79 52 60 45 q 106 61 98 58 q 121 73 115 64 q 134 136 134 91 l 134 528 q 107 606 134 595 q 90 612 99 609 q 47 628 60 618 l 47 669 l 279 669 l 279 138 z "},"o":{"ha":714,"x_min":54,"x_max":662,"o":"m 328 -17 q 137 81 212 -5 q 54 332 54 178 q 137 583 54 486 q 328 682 212 671 l 328 629 q 240 551 268 618 q 210 332 210 478 q 277 60 210 117 q 328 36 299 41 l 328 -17 m 384 35 q 504 332 504 56 q 433 608 504 551 q 384 630 411 625 l 384 683 q 576 586 499 674 q 662 332 662 488 q 578 79 662 176 q 384 -18 500 -9 l 384 35 z "},"p":{"ha":744,"x_min":21,"x_max":691,"o":"m 251 589 l 251 -158 q 281 -205 252 -191 q 311 -216 294 -211 q 345 -229 327 -221 l 345 -265 l 21 -265 l 21 -229 q 51 -216 35 -221 q 78 -205 66 -211 q 106 -158 106 -190 l 106 561 q 79 610 106 597 q 52 620 67 616 q 21 632 37 624 l 21 673 l 246 673 l 251 589 m 410 -18 q 307 2 352 -18 l 308 62 q 378 40 341 40 q 443 57 415 40 q 489 110 470 75 q 528 328 528 184 q 444 602 528 553 q 396 616 419 616 q 360 610 374 616 q 337 594 347 604 q 307 554 325 583 l 307 650 q 419 684 357 684 q 530 656 480 684 q 615 581 579 629 q 691 332 691 480 q 612 75 691 170 q 410 -18 534 -18 z "},"q":{"ha":744,"x_min":54,"x_max":724,"o":"m 647 669 q 637 515 637 582 l 637 -158 q 666 -205 637 -190 q 693 -216 678 -211 q 724 -229 709 -221 l 724 -265 l 399 -265 l 399 -229 q 434 -216 417 -221 q 464 -205 450 -212 q 493 -158 493 -190 l 493 634 q 516 626 502 630 q 538 619 530 622 l 589 669 l 647 669 m 362 40 q 437 81 408 40 l 437 1 q 337 -18 395 -18 q 227 5 280 -18 q 136 74 174 29 q 54 330 54 169 q 144 587 54 486 q 353 684 231 684 q 437 665 395 684 l 437 601 q 374 616 412 616 q 307 600 336 616 q 258 547 278 583 q 216 326 216 475 q 362 40 216 40 z "},"r":{"ha":551,"x_min":47,"x_max":552,"o":"m 275 509 l 275 134 q 305 61 275 73 q 326 54 315 57 q 376 36 361 44 l 376 0 l 50 0 l 50 36 q 77 49 62 44 q 103 61 91 54 q 131 107 131 75 l 131 500 q 118 590 131 578 q 94 608 106 602 q 69 617 82 613 q 47 628 56 621 l 47 669 l 267 669 l 275 509 m 483 487 q 468 487 483 487 q 436 501 453 487 q 419 536 419 515 q 437 578 419 557 q 421 582 431 582 q 332 517 375 581 l 332 621 q 446 684 382 684 q 544 620 519 684 q 552 567 552 600 q 532 510 552 534 q 483 487 513 487 z "},"s":{"ha":610,"x_min":56,"x_max":567,"o":"m 321 36 q 402 74 372 43 q 433 144 433 104 q 417 206 433 184 q 375 244 401 228 q 316 272 349 260 q 248 297 283 285 q 180 326 214 310 q 121 363 147 341 q 63 489 63 411 q 116 613 63 559 q 272 683 176 675 l 272 629 q 209 597 233 622 q 186 538 186 572 q 202 484 186 504 q 245 449 218 464 q 306 423 272 435 q 376 398 340 411 q 447 369 412 385 q 507 329 481 353 q 567 192 567 276 q 511 60 567 118 q 321 -18 445 -10 l 321 36 m 367 524 q 404 589 367 574 q 328 631 383 626 l 328 683 q 477 633 418 676 q 536 530 536 591 q 514 473 536 494 q 452 452 491 452 q 390 471 413 452 q 367 524 367 491 m 226 142 q 189 77 226 91 q 264 34 210 39 l 264 -18 q 115 32 177 -12 q 56 135 56 75 q 79 193 56 172 q 141 214 102 214 q 203 194 180 214 q 226 142 226 174 z "},"t":{"ha":477,"x_min":28,"x_max":460,"o":"m 321 657 l 432 657 l 432 597 l 321 597 l 321 657 m 264 -18 q 126 87 147 -12 q 119 157 119 118 l 119 597 l 28 597 l 28 639 q 50 653 38 648 q 73 665 62 659 q 117 701 103 680 q 139 747 130 722 q 155 797 149 772 q 167 845 161 821 q 182 892 173 869 l 264 896 l 264 -18 m 321 44 q 400 117 372 44 q 417 165 409 139 l 460 155 q 377 0 442 34 q 321 -16 353 -12 l 321 44 z "},"u":{"ha":789,"x_min":40,"x_max":748,"o":"m 366 54 q 466 98 421 54 l 466 20 q 315 -18 405 -18 q 132 85 168 -18 q 119 172 119 121 l 119 557 q 93 606 119 592 q 67 616 81 612 q 40 628 53 620 l 40 669 l 264 669 l 264 160 q 366 54 264 54 m 522 557 q 495 606 522 593 q 468 616 483 612 q 438 628 453 620 l 438 669 l 667 669 l 667 111 q 694 62 667 76 q 721 52 707 56 q 748 40 735 48 l 748 0 l 532 0 l 522 72 l 522 557 z "},"v":{"ha":627,"x_min":-32,"x_max":657,"o":"m 374 230 l 465 476 q 493 572 493 554 q 484 597 493 590 q 461 609 475 605 q 434 615 448 612 q 408 623 419 617 l 408 665 l 657 665 l 657 623 q 638 614 649 616 q 614 606 627 611 q 567 549 580 592 q 562 536 565 543 l 410 138 l 374 230 m 387 73 l 353 -14 l 275 -14 l 50 570 q 12 606 41 593 q -32 631 -21 619 l -32 665 l 285 665 l 285 624 q 259 615 273 618 q 232 609 245 612 q 203 579 203 600 q 209 552 203 566 q 223 512 214 538 q 246 450 233 486 q 275 372 259 414 q 309 281 290 330 q 349 172 327 231 l 387 73 z "},"w":{"ha":983,"x_min":-23,"x_max":1009,"o":"m 333 -14 l 261 -14 l 56 572 q -1 616 45 605 q -23 627 -13 619 l -23 665 l 290 665 l 290 628 q 265 617 279 621 q 237 610 250 614 q 205 578 205 602 q 213 544 205 565 q 243 455 220 523 q 299 288 266 387 q 366 90 332 189 l 333 -14 m 749 257 l 821 479 q 839 534 831 513 q 847 572 847 555 q 838 596 847 589 q 815 608 829 604 q 787 614 802 612 q 760 623 772 617 l 760 665 l 1009 665 l 1009 629 q 986 613 1003 617 q 961 605 970 608 q 939 578 953 602 q 904 507 925 555 q 864 403 884 459 q 783 160 831 313 l 749 257 m 762 95 q 725 -14 747 50 l 657 -14 l 490 460 l 486 460 l 388 157 l 353 257 l 447 546 q 431 593 442 573 q 410 644 410 631 l 410 659 q 410 665 410 662 l 625 665 l 635 614 q 595 595 595 614 q 651 415 606 543 q 726 199 696 288 l 762 95 z "},"x":{"ha":701,"x_min":-6,"x_max":720,"o":"m 404 452 q 440 499 424 479 q 468 534 457 519 q 492 580 492 567 q 485 598 492 593 q 468 608 478 604 q 445 615 457 612 q 422 623 433 618 l 422 665 l 696 665 l 696 628 q 675 618 686 621 q 651 610 664 614 q 606 586 619 600 q 584 564 592 572 q 569 547 576 555 l 447 398 l 404 452 m 304 227 q 233 135 259 170 q 206 86 206 100 q 214 67 206 73 q 232 56 221 60 q 254 48 242 52 q 275 39 266 45 l 275 0 l -6 0 l -6 39 q 24 52 8 47 q 58 65 39 56 q 145 139 102 87 l 262 282 l 304 227 m 422 140 q 356 228 389 184 q 288 315 323 272 l 108 557 q 32 614 74 604 q 8 624 20 618 l 8 665 l 330 665 l 330 623 q 309 615 321 618 q 287 610 297 613 q 263 589 263 604 q 300 522 263 573 q 355 449 338 471 q 420 366 399 392 l 613 107 q 659 66 635 77 q 695 51 683 55 q 720 39 708 47 l 720 0 l 382 0 l 382 37 q 406 47 393 43 q 430 56 419 52 q 454 81 454 65 q 422 140 454 97 l 422 140 z "},"y":{"ha":627,"x_min":-26,"x_max":652,"o":"m 380 248 q 422 365 403 311 q 456 459 441 418 q 488 569 488 547 q 481 598 488 591 q 462 608 473 604 q 437 615 451 612 q 412 624 424 618 l 412 665 l 652 665 l 652 624 q 630 614 641 617 q 608 606 618 610 q 574 570 584 595 l 419 159 l 380 248 m 119 -95 q 123 -100 119 -95 q 134 -116 128 -104 q 139 -147 139 -127 q 115 -192 139 -167 q 142 -205 125 -205 q 219 -153 182 -205 q 285 -4 256 -100 l 52 576 q -5 617 41 606 q -26 624 -16 620 l -26 665 l 285 665 l 285 625 q 256 616 271 620 q 231 608 242 612 q 204 582 204 598 q 232 500 204 572 l 233 499 q 313 295 273 397 q 393 92 353 194 l 314 -114 q 118 -279 248 -279 q 0 -210 30 -279 q -9 -154 -9 -188 q 13 -98 -9 -120 q 60 -77 36 -77 q 97 -82 85 -77 q 119 -95 109 -87 z "},"z":{"ha":627,"x_min":41,"x_max":583,"o":"m 267 56 q 309 58 288 57 q 359 60 330 58 q 413 74 388 62 q 455 101 439 85 q 482 136 472 117 q 500 176 492 155 q 538 252 524 234 l 583 252 l 583 0 l 230 0 l 267 56 m 574 609 l 160 1 l 41 1 l 41 64 q 247 366 145 216 q 455 665 349 516 l 574 665 l 574 609 m 351 610 q 281 605 325 609 q 215 590 237 600 q 179 565 193 580 q 157 533 165 551 q 142 499 149 516 q 114 438 125 452 l 69 438 l 69 666 l 391 666 l 351 610 z "},"{":{"ha":669,"x_min":115,"x_max":486,"o":"m 237 191 q 218 296 237 268 q 176 338 200 323 q 115 363 153 353 q 214 423 187 382 q 237 536 237 459 l 237 791 q 302 966 237 919 q 486 1003 355 1003 l 486 966 q 371 856 387 949 q 366 786 366 825 l 366 557 q 346 438 366 471 q 302 390 327 406 q 237 364 277 374 l 237 361 q 341 295 313 342 q 366 168 366 254 l 366 -61 q 385 -175 366 -144 q 427 -220 404 -206 q 486 -240 450 -234 l 486 -277 q 302 -239 355 -277 q 237 -65 237 -192 l 237 191 z "},"|":{"ha":357,"x_min":124,"x_max":232,"o":"m 124 964 l 232 964 l 232 0 l 124 0 l 124 964 z "},"}":{"ha":670,"x_min":183,"x_max":555,"o":"m 433 536 q 452 431 433 459 q 493 388 470 402 q 555 363 517 373 q 456 302 484 344 q 433 191 433 268 l 433 -65 q 368 -239 433 -192 q 183 -277 315 -277 l 183 -240 q 279 -184 252 -228 q 304 -61 304 -142 l 304 168 q 324 287 304 254 q 368 335 343 319 q 433 361 393 351 l 433 364 q 329 430 357 382 q 304 557 304 471 l 304 786 q 242 946 304 909 q 183 966 218 960 l 183 1003 q 368 966 315 1003 q 433 791 433 919 l 433 536 z "},"~":{"ha":966,"x_min":113,"x_max":852,"o":"m 113 309 q 314 428 186 428 q 495 381 376 428 q 580 350 540 364 q 649 335 621 335 q 696 343 677 335 q 733 365 716 351 q 794 432 758 386 l 852 355 q 775 278 804 298 q 660 237 717 237 q 562 252 602 237 q 483 284 522 267 q 402 316 444 301 q 306 330 359 330 q 171 233 223 330 l 113 309 z "}," ":{"ha":358,"x_min":0,"x_max":0,"o":""},"¡":{"ha":402,"x_min":111,"x_max":290,"o":"m 233 410 q 254 189 237 335 q 276 -11 271 43 q 288 -180 288 -130 q 282 -251 288 -230 q 266 -283 277 -271 q 201 -306 245 -306 q 142 -289 158 -306 q 114 -209 114 -258 q 117 -111 114 -159 q 126 -10 121 -63 q 137 99 131 43 q 149 209 144 155 q 168 410 163 337 l 233 410 m 290 604 q 266 541 290 566 q 213 517 242 517 q 167 524 183 517 q 138 543 151 530 q 111 596 111 568 q 118 640 111 623 q 137 668 125 656 q 203 693 165 693 q 266 668 242 693 q 290 604 290 643 z "},"¢":{"ha":715,"x_min":73,"x_max":652,"o":"m 299 718 q 227 489 227 646 q 300 267 227 333 l 299 171 q 136 281 196 199 q 73 486 73 365 q 136 685 73 597 q 299 806 198 772 l 299 718 m 420 0 l 351 0 l 351 965 l 420 965 l 420 0 m 541 707 q 464 765 532 746 l 464 821 q 639 724 597 804 q 652 665 652 699 q 632 607 652 631 q 575 583 611 583 q 518 602 538 583 q 498 657 498 621 q 541 707 498 693 m 464 227 q 578 322 538 248 q 600 367 590 344 l 652 349 q 464 168 605 200 l 464 227 z "},"£":{"ha":714,"x_min":-41,"x_max":750,"o":"m 459 890 q 377 931 442 925 l 377 984 q 520 930 467 979 q 570 831 570 886 q 483 734 570 734 q 430 753 450 734 q 410 795 410 771 q 417 832 410 819 q 433 855 424 845 q 450 873 442 865 q 459 890 458 882 m 507 467 l 697 467 l 697 407 l 551 407 l 507 467 m 268 407 l 68 407 l 68 467 l 207 467 l 268 407 m 397 157 q 416 238 416 195 q 390 321 416 281 q 319 407 364 362 l 260 467 q 191 536 222 504 q 136 601 159 568 q 86 749 86 671 q 143 899 86 833 q 320 983 209 973 l 320 927 q 248 886 276 917 q 220 813 220 854 q 230 744 220 772 q 260 688 241 715 q 306 633 279 661 q 363 572 332 605 q 533 349 510 417 q 543 277 543 319 q 475 112 543 193 l 397 157 m 545 49 q 697 158 635 49 l 750 118 q 675 26 705 51 q 555 -21 616 -21 q 454 -7 493 -21 q 381 31 416 7 l 315 74 q 201 137 237 126 q 138 147 165 147 q 93 134 111 147 q 75 96 75 120 q 99 54 75 71 q 182 37 123 37 q 273 50 241 37 l 340 7 q 198 -21 277 -21 q 80 -11 120 -21 q 14 17 41 -1 q -41 107 -41 54 q 54 218 -41 191 q 125 227 84 227 q 204 215 167 227 q 273 186 241 203 q 330 152 304 170 q 375 122 355 134 l 446 79 q 545 49 502 49 z "},"¤":{"ha":715,"x_min":24,"x_max":690,"o":"m 357 200 q 163 258 242 200 l 90 192 l 24 250 l 98 314 q 31 483 31 383 q 98 648 31 583 l 24 714 l 90 772 l 164 707 q 356 764 244 764 q 551 707 469 764 l 625 772 l 690 714 l 616 648 q 684 484 684 585 q 616 314 684 383 l 690 250 l 625 192 l 552 258 q 357 200 473 200 m 357 684 q 198 624 264 684 q 132 482 132 565 q 198 339 132 397 q 357 281 264 281 q 517 339 451 281 q 583 482 583 397 q 517 624 583 565 q 357 684 451 684 z "},"¥":{"ha":714,"x_min":-54,"x_max":785,"o":"m 172 496 l 38 496 l 38 555 l 141 555 l 172 496 m 48 852 q -27 909 28 890 q -54 921 -41 914 l -54 964 l 302 964 l 302 921 q 269 911 286 914 q 239 903 252 907 q 210 869 210 893 q 231 811 210 852 q 273 729 252 770 q 324 629 294 689 q 398 485 355 570 l 430 422 l 430 157 q 467 65 430 80 q 490 58 477 61 q 540 40 527 49 l 540 0 l 165 0 l 165 40 q 204 55 180 50 q 239 65 228 60 q 258 80 250 69 q 274 160 274 102 l 274 409 l 48 852 m 473 465 l 432 537 q 573 818 564 793 q 585 864 585 848 q 576 888 585 879 q 554 902 567 897 q 524 911 541 907 q 494 921 508 915 l 494 964 l 785 964 l 785 921 q 761 909 775 913 q 734 901 747 905 q 687 871 701 890 q 588 697 637 798 q 513 547 538 597 q 473 465 488 497 m 571 555 l 681 555 l 681 496 l 543 496 l 571 555 m 486 379 l 681 379 l 681 319 l 486 319 l 486 379 m 218 319 l 38 319 l 38 379 l 218 379 l 218 319 z "},"¦":{"ha":357,"x_min":124,"x_max":232,"o":"m 124 364 l 232 364 l 232 0 l 124 0 l 124 364 m 124 964 l 232 964 l 232 599 l 124 599 l 124 964 z "},"§":{"ha":806,"x_min":114,"x_max":688,"o":"m 425 984 q 556 941 502 980 q 609 850 609 904 q 587 794 609 814 q 528 774 565 774 q 471 791 492 774 q 450 830 450 809 q 459 863 450 852 q 479 883 468 875 q 498 898 490 891 q 507 916 507 905 q 484 940 507 928 q 425 955 460 951 l 425 984 m 369 -161 q 217 -111 273 -155 q 168 -21 168 -72 q 191 34 168 13 q 242 54 214 54 q 285 49 270 54 q 311 35 300 43 q 334 -4 334 18 q 325 -37 334 -26 q 306 -55 317 -47 q 287 -69 296 -62 q 279 -84 279 -75 q 286 -100 279 -93 q 304 -114 292 -108 q 369 -131 330 -127 l 369 -161 m 335 610 q 229 699 252 671 q 179 817 179 755 q 233 932 179 887 q 369 983 284 975 l 369 953 q 293 919 321 945 q 266 861 266 893 q 279 807 266 828 q 315 765 292 786 q 372 721 338 744 q 453 665 405 698 q 545 597 500 631 q 621 530 590 564 q 688 389 688 460 q 602 248 688 296 q 545 229 576 234 l 498 262 q 566 279 543 262 q 604 342 604 309 q 577 413 604 376 q 486 497 551 449 l 335 610 m 315 572 q 293 573 307 573 q 262 567 279 573 q 230 549 244 561 q 198 486 198 525 q 219 418 198 446 q 321 323 256 368 l 477 216 q 578 131 553 163 q 625 16 625 72 q 571 -102 625 -53 q 425 -160 515 -152 l 425 -130 q 503 -96 473 -123 q 533 -33 533 -68 q 515 30 533 3 q 468 81 497 56 q 400 130 438 106 q 323 180 363 155 q 247 232 284 205 q 179 291 209 260 q 114 439 114 360 q 161 552 114 508 q 278 601 205 594 l 315 572 z "},"¨":{"ha":432,"x_min":-6,"x_max":439,"o":"m -6 836 q -6 851 -6 836 q 17 886 -6 867 q 65 905 40 905 q 106 900 91 905 q 132 886 121 895 q 155 843 155 866 q 149 808 155 821 q 132 785 142 795 q 74 766 109 766 q 17 785 40 766 q -6 836 -6 804 m 279 836 q 279 851 279 836 q 302 886 279 867 q 359 905 325 905 q 416 886 393 905 q 439 836 439 867 q 416 785 439 804 q 359 766 393 766 q 302 785 325 766 q 279 836 279 804 z "},"©":{"ha":1288,"x_min":75,"x_max":1213,"o":"m 711 774 q 878 743 832 770 q 892 726 892 735 l 897 612 l 865 612 q 777 724 852 690 q 711 739 750 736 l 711 774 m 711 242 q 896 368 841 249 l 926 368 l 888 254 q 711 208 876 215 l 711 242 m 655 208 q 347 370 418 216 q 322 486 322 422 q 345 599 322 549 q 410 686 367 649 q 655 774 499 766 l 655 739 q 511 659 561 729 q 466 496 466 595 q 569 273 466 336 q 655 244 605 250 l 655 208 m 615 -20 q 231 134 386 -10 q 75 482 75 279 q 148 730 75 615 q 469 961 256 901 q 615 984 539 981 l 615 913 q 392 845 496 907 q 191 591 239 754 q 176 482 176 538 q 191 373 176 426 q 234 273 206 320 q 302 187 262 227 q 391 118 342 147 q 615 51 494 56 l 615 -20 m 671 51 q 985 188 856 61 q 1113 482 1113 314 q 985 777 1113 651 q 671 913 857 903 l 671 984 q 1057 830 899 976 q 1194 612 1155 739 q 1213 482 1213 550 q 1056 134 1213 280 q 817 3 957 43 q 671 -20 747 -17 l 671 51 z "},"ª":{"ha":429,"x_min":6,"x_max":443,"o":"m 258 882 q 222 942 258 926 l 222 984 q 361 836 361 974 l 361 643 q 383 617 361 617 q 401 626 392 617 q 415 654 410 635 l 443 646 q 425 587 437 601 q 350 564 403 564 q 258 597 297 564 l 258 882 m 201 772 q 115 665 115 736 q 130 627 115 642 q 165 612 145 612 q 201 619 186 612 l 201 570 q 148 564 178 564 q 44 591 82 564 q 6 659 6 618 q 25 724 6 700 q 73 766 44 749 q 201 816 117 793 l 201 772 m 97 843 q 37 893 37 843 q 71 954 37 929 q 166 983 106 978 l 166 947 q 129 926 133 943 q 152 893 152 918 q 136 856 152 868 q 97 843 121 843 z "},"«":{"ha":764,"x_min":96,"x_max":648,"o":"m 648 718 l 648 640 l 467 407 l 648 174 l 648 96 l 361 379 l 361 435 l 648 718 m 382 718 l 382 640 l 201 407 l 382 174 l 382 96 l 96 379 l 96 435 l 382 718 z "},"¬":{"ha":966,"x_min":97,"x_max":868,"o":"m 760 404 l 97 404 l 97 497 l 868 497 l 868 168 l 760 168 l 760 404 z "},"­":{"ha":432,"x_min":52,"x_max":380,"o":"m 380 378 l 380 288 l 52 288 l 52 378 l 380 378 z "},"®":{"ha":1288,"x_min":74,"x_max":1211,"o":"m 623 492 q 712 523 681 492 q 743 614 743 554 q 670 717 743 694 q 623 724 648 724 l 623 758 l 671 758 q 850 684 803 758 q 867 628 867 659 q 857 573 867 597 q 828 529 846 549 q 731 473 791 490 l 828 361 q 953 240 899 278 l 953 221 l 842 221 q 794 241 817 221 q 748 295 772 262 q 694 371 724 328 q 623 457 664 413 l 623 492 m 567 302 q 579 262 567 271 q 648 249 598 250 l 648 221 l 368 221 l 368 249 q 428 258 417 250 q 446 302 446 271 l 446 676 q 434 715 446 707 q 368 730 418 728 l 368 758 l 567 758 l 567 302 m 614 -20 q 229 134 385 -10 q 74 482 74 279 q 146 730 74 615 q 468 961 255 901 q 614 984 538 981 l 614 913 q 391 845 494 907 q 190 591 238 754 q 174 482 174 538 q 190 373 174 426 q 233 273 205 320 q 301 187 261 227 q 389 118 340 147 q 614 51 493 56 l 614 -20 m 670 51 q 983 188 854 61 q 1112 482 1112 314 q 983 777 1112 651 q 670 913 855 903 l 670 984 q 1055 830 897 976 q 1192 612 1154 739 q 1211 482 1211 550 q 1055 134 1211 280 q 815 3 956 43 q 670 -20 746 -17 l 670 51 z "},"¯":{"ha":432,"x_min":-3,"x_max":437,"o":"m 437 872 l 437 799 l -3 799 l -3 872 l 437 872 z "},"°":{"ha":644,"x_min":94,"x_max":551,"o":"m 322 926 q 212 884 257 926 q 170 786 170 844 q 212 689 170 729 q 322 647 257 647 q 432 689 387 647 q 475 786 475 730 q 432 884 475 843 q 322 926 387 926 m 322 985 q 485 927 418 985 q 551 786 551 870 q 484 646 551 703 q 322 589 418 589 q 160 646 227 589 q 94 786 94 703 q 160 927 94 870 q 322 985 226 985 z "},"±":{"ha":966,"x_min":97,"x_max":868,"o":"m 429 665 l 536 665 l 536 450 l 868 450 l 868 357 l 536 357 l 536 142 l 429 142 l 429 357 l 97 357 l 97 450 l 429 450 l 429 665 m 97 93 l 868 93 l 868 0 l 97 0 l 97 93 z "},"²":{"ha":429,"x_min":24,"x_max":378,"o":"m 96 775 q 38 848 38 775 q 117 967 38 928 q 174 983 142 980 l 174 953 q 96 905 117 949 q 90 880 90 892 q 106 868 97 873 q 124 856 116 863 q 144 821 144 841 q 96 775 144 775 m 133 462 l 203 462 q 309 495 281 462 q 330 530 323 511 q 348 571 336 550 l 368 571 l 368 393 l 83 393 l 133 462 m 277 827 q 208 949 277 931 l 208 985 q 335 935 288 982 q 378 827 378 890 q 256 610 378 728 q 192 552 223 579 q 98 463 111 481 l 46 393 l 24 393 l 33 470 q 66 509 50 490 q 101 550 83 528 q 143 597 120 571 q 192 651 166 624 q 236 705 217 678 q 277 827 277 764 z "},"³":{"ha":429,"x_min":35,"x_max":397,"o":"m 186 955 q 115 895 123 949 q 153 868 146 882 q 160 837 160 855 q 146 804 160 818 q 107 791 133 791 q 64 807 81 791 q 47 853 47 823 q 57 904 47 883 q 86 941 68 924 q 186 983 125 977 l 186 955 m 35 498 q 108 577 35 577 q 151 542 138 577 q 155 522 155 532 q 151 502 155 511 q 140 486 146 492 q 104 469 128 477 q 128 428 105 445 q 186 410 151 411 l 186 380 q 74 416 113 383 q 35 498 35 450 m 255 703 q 397 554 397 677 q 349 435 397 484 q 220 380 298 385 l 220 414 q 298 547 298 431 q 237 675 298 653 q 203 681 220 681 l 184 680 l 172 680 q 149 698 149 680 q 172 715 149 715 q 184 718 174 718 q 206 719 193 718 q 233 725 219 720 q 260 743 248 730 q 288 829 288 772 q 220 952 288 936 l 220 984 q 338 940 294 980 q 382 841 382 900 q 255 705 382 731 l 255 703 z "},"´":{"ha":432,"x_min":100,"x_max":438,"o":"m 100 743 l 294 929 q 337 965 316 949 q 377 981 359 981 q 407 976 396 981 q 424 964 417 972 q 438 932 438 949 q 395 879 438 905 l 164 743 l 100 743 z "},"µ":{"ha":789,"x_min":32,"x_max":748,"o":"m 32 -265 l 32 -229 q 62 -216 46 -221 q 90 -205 77 -211 q 119 -158 119 -190 l 119 557 q 93 606 119 592 q 67 616 81 612 q 40 628 53 620 l 40 669 l 264 669 l 264 -265 l 32 -265 m 321 62 q 370 54 344 54 q 422 67 395 54 q 469 100 448 79 q 522 199 510 140 l 522 525 q 513 589 522 576 q 496 605 505 602 q 479 612 488 609 q 438 628 450 619 l 438 669 l 667 669 l 667 111 q 694 62 667 76 q 721 52 707 56 q 748 40 735 48 l 748 0 l 532 0 l 532 83 l 530 83 q 321 -18 469 -16 l 321 62 z "},"¶":{"ha":966,"x_min":95,"x_max":791,"o":"m 95 685 q 389 964 95 964 l 478 964 l 478 -163 l 380 -163 l 380 397 q 165 479 241 397 q 95 685 95 554 m 573 964 l 791 964 l 791 932 q 705 916 725 929 q 671 851 671 895 l 671 -163 l 573 -163 l 573 964 z "},"·":{"ha":358,"x_min":87,"x_max":270,"o":"m 270 332 q 243 272 270 296 q 188 248 216 248 q 143 254 160 248 q 114 272 126 260 q 87 332 87 296 q 114 392 87 368 q 169 416 140 416 q 243 392 216 416 q 270 332 270 368 z "},"¸":{"ha":432,"x_min":41,"x_max":375,"o":"m 186 -138 q 137 -147 156 -138 l 113 -139 l 183 0 l 237 0 l 191 -93 q 244 -86 214 -86 q 298 -93 275 -86 q 338 -113 321 -100 q 375 -183 375 -139 q 325 -268 375 -236 q 186 -301 273 -301 q 41 -278 106 -301 l 66 -236 q 161 -254 109 -254 q 238 -237 214 -254 q 262 -195 262 -220 q 186 -138 262 -138 z "},"¹":{"ha":429,"x_min":84,"x_max":355,"o":"m 176 956 q 227 985 205 969 l 268 985 l 268 503 q 292 436 268 448 q 320 429 304 431 q 355 418 336 427 l 355 393 l 87 393 l 87 418 q 123 429 107 427 q 152 436 140 431 q 176 503 176 448 l 176 956 m 142 895 q 84 903 127 903 l 84 928 q 142 945 121 935 l 142 895 z "},"º":{"ha":429,"x_min":14,"x_max":412,"o":"m 240 614 q 302 774 302 640 q 240 935 302 908 l 240 983 q 359 922 312 975 q 412 775 412 865 q 359 627 412 684 q 240 566 311 574 l 240 614 m 184 935 q 124 774 124 909 q 184 614 124 640 l 184 566 q 28 690 69 582 q 14 775 14 728 q 28 859 14 822 q 65 921 42 895 q 184 983 111 972 l 184 935 z "},"»":{"ha":764,"x_min":118,"x_max":669,"o":"m 382 718 l 669 435 l 669 379 l 382 96 l 382 174 l 564 407 l 382 640 l 382 718 m 118 718 l 404 435 l 404 379 l 118 96 l 118 174 l 298 407 l 118 640 l 118 718 z "},"¼":{"ha":1072,"x_min":84,"x_max":1057,"o":"m 278 -21 l 177 -21 l 880 985 l 984 985 l 278 -21 m 964 98 q 981 46 964 55 q 999 40 988 41 q 1022 31 1009 38 l 1022 0 l 789 0 l 789 28 q 819 41 805 39 q 842 45 832 42 q 865 102 865 53 l 865 541 l 901 590 l 964 590 l 964 98 m 808 155 l 628 155 l 628 205 l 808 460 l 808 379 l 690 207 l 690 204 l 808 204 l 808 155 m 1021 204 l 1057 204 l 1057 155 l 1021 155 l 1021 204 m 176 956 q 227 985 205 969 l 268 985 l 268 503 q 292 436 268 448 q 320 429 304 431 q 355 418 336 427 l 355 393 l 87 393 l 87 418 q 123 429 107 427 q 152 436 140 431 q 176 503 176 448 l 176 956 m 142 895 q 84 903 127 903 l 84 928 q 142 945 121 935 l 142 895 z "},"½":{"ha":1073,"x_min":84,"x_max":1044,"o":"m 240 -21 l 138 -21 l 842 985 l 945 985 l 240 -21 m 176 956 q 227 985 205 969 l 268 985 l 268 503 q 292 436 268 448 q 320 429 304 431 q 355 418 336 427 l 355 393 l 87 393 l 87 418 q 123 429 107 427 q 152 436 140 431 q 176 503 176 448 l 176 956 m 142 895 q 84 903 127 903 l 84 928 q 142 945 121 935 l 142 895 m 762 382 q 704 456 704 382 q 783 575 704 536 q 840 591 808 587 l 840 560 q 762 513 783 556 q 756 487 756 500 q 772 475 763 481 q 790 464 782 470 q 810 428 810 448 q 762 382 810 382 m 799 69 l 869 69 q 975 103 947 69 q 996 138 989 118 q 1014 178 1002 157 l 1034 178 l 1034 0 l 749 0 l 799 69 m 943 434 q 874 557 943 538 l 874 592 q 1001 542 954 589 q 1044 434 1044 498 q 922 218 1044 335 q 858 159 889 186 q 764 70 777 88 l 712 0 l 690 0 l 699 77 q 732 116 715 97 q 767 157 749 136 q 809 205 786 178 q 858 258 832 231 q 902 313 883 286 q 943 434 943 371 z "},"¾":{"ha":1072,"x_min":35,"x_max":1057,"o":"m 278 -21 l 177 -21 l 880 985 l 983 985 l 278 -21 m 964 98 q 981 46 964 55 q 999 40 988 41 q 1022 31 1009 38 l 1022 0 l 789 0 l 789 28 q 819 41 805 39 q 842 45 832 42 q 865 102 865 53 l 865 541 l 901 590 l 964 590 l 964 98 m 808 155 l 628 155 l 628 205 l 808 460 l 808 379 l 690 207 l 690 204 l 808 204 l 808 155 m 1021 204 l 1057 204 l 1057 155 l 1021 155 l 1021 204 m 186 955 q 115 895 123 949 q 153 868 146 882 q 160 837 160 855 q 146 804 160 818 q 107 791 133 791 q 64 807 81 791 q 47 853 47 823 q 57 904 47 883 q 86 941 68 924 q 186 983 125 977 l 186 955 m 35 498 q 108 577 35 577 q 151 542 138 577 q 155 522 155 532 q 151 502 155 511 q 140 486 146 492 q 104 469 128 477 q 128 428 105 445 q 186 410 151 411 l 186 380 q 74 416 113 383 q 35 498 35 450 m 255 703 q 397 554 397 677 q 349 435 397 484 q 220 380 298 385 l 220 414 q 298 547 298 431 q 237 675 298 653 q 203 681 220 681 l 184 680 l 172 680 q 149 698 149 680 q 172 715 149 715 q 184 718 174 718 q 206 719 193 718 q 233 725 219 720 q 260 743 248 730 q 288 829 288 772 q 220 952 288 936 l 220 984 q 338 940 294 980 q 382 841 382 900 q 255 705 382 731 l 255 703 z "},"¿":{"ha":627,"x_min":50,"x_max":562,"o":"m 356 -247 q 439 -221 406 -247 q 471 -161 469 -197 q 405 -129 429 -153 q 381 -71 381 -105 q 403 -16 381 -37 q 466 5 425 5 q 535 -22 508 5 q 562 -95 562 -49 q 547 -176 562 -142 q 507 -236 533 -210 q 356 -304 450 -293 l 356 -247 m 214 -79 q 300 -237 214 -203 l 300 -306 q 115 -232 185 -302 q 50 -79 50 -168 q 117 77 50 9 q 181 132 146 106 q 244 187 215 157 q 312 347 312 256 l 312 406 l 376 406 l 376 333 q 334 187 376 252 q 295 135 316 159 q 256 80 274 110 q 214 -79 214 11 m 426 605 q 426 586 426 605 q 401 541 426 566 q 347 516 376 516 q 302 523 318 516 q 274 543 286 530 q 248 596 248 569 q 254 640 248 624 q 273 667 261 656 q 328 692 299 692 q 373 686 356 692 q 401 668 389 680 q 426 605 426 644 z "},"À":{"ha":850,"x_min":-24,"x_max":874,"o":"m 482 306 l 276 306 l 293 368 l 462 368 l 482 306 m 348 680 l 189 204 q 168 114 168 144 q 178 74 169 83 q 201 60 186 64 q 233 54 215 56 q 271 41 252 51 l 271 0 l -24 0 l -24 41 q 5 54 -10 50 q 35 65 21 59 q 78 110 68 80 l 307 790 l 348 680 m 331 859 q 281 885 294 872 q 285 912 283 899 q 290 937 288 924 q 295 958 292 949 q 444 985 424 985 q 471 942 458 973 l 768 121 q 813 65 783 80 q 842 54 827 58 q 874 41 857 50 l 874 0 l 507 0 l 507 41 q 540 52 523 49 q 571 58 557 55 q 602 89 602 66 q 570 199 602 109 q 512 358 537 288 q 375 750 442 554 l 331 859 m 530 1046 l 300 1181 q 256 1236 256 1206 q 288 1279 256 1265 q 316 1283 297 1283 q 399 1232 345 1283 l 594 1046 l 530 1046 z "},"Á":{"ha":850,"x_min":-24,"x_max":874,"o":"m 482 306 l 276 306 l 293 368 l 462 368 l 482 306 m 348 680 l 189 204 q 168 114 168 144 q 178 74 169 83 q 201 60 186 64 q 233 54 215 56 q 271 41 252 51 l 271 0 l -24 0 l -24 41 q 5 54 -10 50 q 35 65 21 59 q 78 110 68 80 l 307 790 l 348 680 m 331 859 q 281 885 294 872 q 285 912 283 899 q 290 937 288 924 q 295 958 292 949 q 444 985 424 985 q 471 942 458 973 l 768 121 q 813 65 783 80 q 842 54 827 58 q 874 41 857 50 l 874 0 l 507 0 l 507 41 q 540 52 523 49 q 571 58 557 55 q 602 89 602 66 q 570 199 602 109 q 512 358 537 288 q 375 750 442 554 l 331 859 m 256 1046 l 450 1232 q 493 1267 472 1252 q 533 1283 515 1283 q 563 1279 552 1283 q 580 1267 573 1274 q 594 1235 594 1252 q 551 1181 594 1207 l 320 1046 l 256 1046 z "},"Â":{"ha":850,"x_min":-24,"x_max":874,"o":"m 482 306 l 276 306 l 293 368 l 462 368 l 482 306 m 348 680 l 189 204 q 168 114 168 144 q 178 74 169 83 q 201 60 186 64 q 233 54 215 56 q 271 41 252 51 l 271 0 l -24 0 l -24 41 q 5 54 -10 50 q 35 65 21 59 q 78 110 68 80 l 307 790 l 348 680 m 331 859 q 281 885 294 872 q 285 912 283 899 q 290 937 288 924 q 295 958 292 949 q 444 985 424 985 q 471 942 458 973 l 768 121 q 813 65 783 80 q 842 54 827 58 q 874 41 857 50 l 874 0 l 507 0 l 507 41 q 540 52 523 49 q 571 58 557 55 q 602 89 602 66 q 570 199 602 109 q 512 358 537 288 q 375 750 442 554 l 331 859 m 475 1279 l 655 1046 l 596 1046 l 425 1200 l 252 1046 l 195 1046 l 373 1279 l 475 1279 z "},"Ã":{"ha":850,"x_min":-24,"x_max":874,"o":"m 482 306 l 276 306 l 293 368 l 462 368 l 482 306 m 348 680 l 189 204 q 168 114 168 144 q 178 74 169 83 q 201 60 186 64 q 233 54 215 56 q 271 41 252 51 l 271 0 l -24 0 l -24 41 q 5 54 -10 50 q 35 65 21 59 q 78 110 68 80 l 307 790 l 348 680 m 331 859 q 281 885 294 872 q 285 912 283 899 q 290 937 288 924 q 295 958 292 949 q 444 985 424 985 q 471 942 458 973 l 768 121 q 813 65 783 80 q 842 54 827 58 q 874 41 857 50 l 874 0 l 507 0 l 507 41 q 540 52 523 49 q 571 58 557 55 q 602 89 602 66 q 570 199 602 109 q 512 358 537 288 q 375 750 442 554 l 331 859 m 666 1229 q 513 1082 625 1082 q 426 1104 473 1082 q 354 1138 378 1127 q 309 1148 330 1148 q 275 1142 288 1148 q 252 1126 262 1136 q 228 1079 239 1111 l 184 1079 q 240 1186 199 1151 q 336 1222 280 1222 q 422 1199 374 1222 q 494 1165 471 1176 q 537 1155 517 1155 q 569 1161 556 1155 q 591 1176 582 1166 q 622 1229 602 1187 l 666 1229 z "},"Ä":{"ha":850,"x_min":-24,"x_max":874,"o":"m 482 306 l 276 306 l 293 368 l 462 368 l 482 306 m 348 680 l 189 204 q 168 114 168 144 q 178 74 169 83 q 201 60 186 64 q 233 54 215 56 q 271 41 252 51 l 271 0 l -24 0 l -24 41 q 5 54 -10 50 q 35 65 21 59 q 78 110 68 80 l 307 790 l 348 680 m 331 859 q 281 885 294 872 q 285 912 283 899 q 290 937 288 924 q 295 958 292 949 q 444 985 424 985 q 471 942 458 973 l 768 121 q 813 65 783 80 q 842 54 827 58 q 874 41 857 50 l 874 0 l 507 0 l 507 41 q 540 52 523 49 q 571 58 557 55 q 602 89 602 66 q 570 199 602 109 q 512 358 537 288 q 375 750 442 554 l 331 859 m 202 1138 q 202 1154 202 1138 q 225 1188 202 1169 q 274 1208 248 1208 q 314 1203 299 1208 q 340 1188 329 1198 q 363 1146 363 1168 q 357 1110 363 1123 q 340 1088 351 1097 q 282 1069 317 1069 q 225 1088 248 1069 q 202 1138 202 1107 m 487 1138 q 487 1154 487 1138 q 510 1188 487 1169 q 567 1208 533 1208 q 625 1188 602 1208 q 648 1138 648 1169 q 625 1088 648 1107 q 567 1069 602 1069 q 510 1088 533 1069 q 487 1138 487 1107 z "},"Å":{"ha":850,"x_min":-24,"x_max":874,"o":"m 482 306 l 276 306 l 293 368 l 462 368 l 482 306 m 348 680 l 189 204 q 168 114 168 144 q 178 74 169 83 q 201 60 186 64 q 233 54 215 56 q 271 41 252 51 l 271 0 l -24 0 l -24 41 q 5 54 -10 50 q 35 65 21 59 q 78 110 68 80 l 307 790 l 348 680 m 331 859 q 281 885 294 872 q 285 912 283 899 q 290 937 288 924 q 295 958 292 949 q 444 985 424 985 q 471 942 458 973 l 768 121 q 813 65 783 80 q 842 54 827 58 q 874 41 857 50 l 874 0 l 507 0 l 507 41 q 540 52 523 49 q 571 58 557 55 q 602 89 602 66 q 570 199 602 109 q 512 358 537 288 q 375 750 442 554 l 331 859 m 262 1196 q 309 1296 262 1255 q 425 1336 356 1336 q 540 1296 494 1336 q 588 1196 588 1255 q 540 1095 588 1136 q 425 1054 493 1054 q 309 1095 357 1054 q 262 1196 262 1136 m 321 1195 q 329 1159 321 1176 q 351 1130 337 1143 q 425 1103 380 1103 q 521 1160 494 1103 q 529 1195 529 1176 q 521 1232 529 1215 q 499 1261 513 1249 q 425 1287 469 1287 q 351 1261 381 1287 q 321 1195 321 1234 z "},"Æ":{"ha":1312,"x_min":-43,"x_max":1248,"o":"m 601 893 q 567 901 586 901 q 538 860 555 894 l 321 447 q 170 168 191 218 q 149 99 149 117 q 158 74 149 82 q 182 61 168 66 q 214 54 196 57 q 249 41 231 50 l 249 0 l -43 0 l -43 41 q -15 57 -28 52 q 13 69 -1 62 q 69 134 43 85 l 431 802 q 459 869 459 852 q 427 902 459 891 q 396 910 413 906 q 362 921 378 914 l 362 964 l 770 964 l 770 114 q 838 57 770 62 q 903 56 859 56 q 991 64 947 56 q 1068 92 1036 73 q 1155 221 1128 128 q 1165 259 1161 242 q 1175 291 1170 277 q 1204 339 1186 321 l 1248 339 l 1248 0 l 499 0 l 499 40 q 526 52 513 48 q 550 58 539 55 q 571 65 562 61 q 587 80 581 70 q 601 154 601 101 l 601 893 m 900 908 q 827 905 846 908 l 827 964 l 1078 964 q 1217 974 1115 964 l 1217 642 l 1171 642 q 1139 693 1149 661 q 1118 762 1129 724 q 1053 873 1094 843 q 900 908 1005 908 m 825 539 l 930 539 l 930 447 l 825 447 l 825 539 m 545 447 l 381 447 l 414 539 l 545 507 l 545 447 z "},"Ç":{"ha":896,"x_min":58,"x_max":831,"o":"m 710 917 q 750 953 734 917 l 810 953 l 810 614 l 764 614 q 715 698 736 640 q 681 791 694 757 q 647 853 667 825 q 523 927 602 916 l 523 983 q 687 926 608 975 q 710 917 701 917 m 523 44 q 735 193 672 44 q 766 317 757 245 l 831 301 q 734 65 810 143 q 523 -20 658 -14 l 523 44 m 467 -20 q 171 124 283 -11 q 58 482 58 260 q 175 840 58 698 q 467 985 290 979 l 467 928 q 267 687 317 913 q 249 485 249 603 q 267 290 249 368 q 316 161 286 212 q 467 48 372 66 l 467 -20 m 425 -138 q 376 -147 395 -138 l 352 -139 l 422 0 l 476 0 l 430 -93 q 538 -93 484 -77 q 605 -142 585 -106 q 614 -185 614 -161 q 602 -231 614 -209 q 564 -268 589 -252 q 425 -301 512 -301 q 281 -278 346 -301 l 305 -236 q 401 -254 349 -254 q 477 -237 453 -254 q 502 -195 502 -220 q 425 -138 502 -138 z "},"È":{"ha":850,"x_min":57,"x_max":794,"o":"m 57 0 l 57 40 q 94 56 73 50 q 123 66 115 61 q 138 81 132 71 q 152 158 152 102 l 152 804 q 142 877 152 861 q 124 897 132 892 q 104 905 115 901 q 57 924 71 914 l 57 964 l 321 964 l 321 0 l 57 0 m 377 56 l 390 55 q 606 87 543 55 q 701 221 673 121 q 712 259 707 242 q 722 291 716 277 q 750 339 732 321 l 794 339 l 794 0 l 377 0 l 377 56 m 628 964 q 764 974 670 964 l 764 642 l 716 642 q 680 710 692 672 q 653 784 667 748 q 626 842 640 820 q 592 878 612 863 q 482 908 551 908 q 377 898 412 908 l 377 964 l 628 964 m 377 574 l 575 574 l 575 446 l 377 446 l 377 574 m 529 1046 l 299 1181 q 256 1236 256 1206 q 286 1279 256 1265 q 309 1283 296 1283 q 333 1279 322 1283 q 353 1267 344 1274 q 377 1232 372 1253 l 593 1046 l 529 1046 z "},"É":{"ha":850,"x_min":57,"x_max":794,"o":"m 57 0 l 57 40 q 94 56 73 50 q 123 66 115 61 q 138 81 132 71 q 152 158 152 102 l 152 804 q 142 877 152 861 q 124 897 132 892 q 104 905 115 901 q 57 924 71 914 l 57 964 l 321 964 l 321 0 l 57 0 m 377 56 l 390 55 q 606 87 543 55 q 701 221 673 121 q 712 259 707 242 q 722 291 716 277 q 750 339 732 321 l 794 339 l 794 0 l 377 0 l 377 56 m 628 964 q 764 974 670 964 l 764 642 l 716 642 q 680 710 692 672 q 653 784 667 748 q 626 842 640 820 q 592 878 612 863 q 482 908 551 908 q 377 898 412 908 l 377 964 l 628 964 m 377 574 l 575 574 l 575 446 l 377 446 l 377 574 m 256 1046 l 450 1232 q 493 1267 472 1252 q 533 1283 515 1283 q 563 1279 552 1283 q 580 1267 573 1274 q 594 1235 594 1252 q 551 1181 594 1207 l 320 1046 l 256 1046 z "},"Ê":{"ha":850,"x_min":57,"x_max":794,"o":"m 57 0 l 57 40 q 94 56 73 50 q 123 66 115 61 q 138 81 132 71 q 152 158 152 102 l 152 804 q 142 877 152 861 q 124 897 132 892 q 104 905 115 901 q 57 924 71 914 l 57 964 l 321 964 l 321 0 l 57 0 m 377 56 l 390 55 q 606 87 543 55 q 701 221 673 121 q 712 259 707 242 q 722 291 716 277 q 750 339 732 321 l 794 339 l 794 0 l 377 0 l 377 56 m 628 964 q 764 974 670 964 l 764 642 l 716 642 q 680 710 692 672 q 653 784 667 748 q 626 842 640 820 q 592 878 612 863 q 482 908 551 908 q 377 898 412 908 l 377 964 l 628 964 m 377 574 l 575 574 l 575 446 l 377 446 l 377 574 m 475 1279 l 655 1046 l 596 1046 l 425 1200 l 252 1046 l 195 1046 l 373 1279 l 475 1279 z "},"Ë":{"ha":850,"x_min":57,"x_max":794,"o":"m 57 0 l 57 40 q 94 56 73 50 q 123 66 115 61 q 138 81 132 71 q 152 158 152 102 l 152 804 q 142 877 152 861 q 124 897 132 892 q 104 905 115 901 q 57 924 71 914 l 57 964 l 321 964 l 321 0 l 57 0 m 377 56 l 390 55 q 606 87 543 55 q 701 221 673 121 q 712 259 707 242 q 722 291 716 277 q 750 339 732 321 l 794 339 l 794 0 l 377 0 l 377 56 m 628 964 q 764 974 670 964 l 764 642 l 716 642 q 680 710 692 672 q 653 784 667 748 q 626 842 640 820 q 592 878 612 863 q 482 908 551 908 q 377 898 412 908 l 377 964 l 628 964 m 377 574 l 575 574 l 575 446 l 377 446 l 377 574 m 202 1138 q 202 1154 202 1138 q 225 1188 202 1169 q 274 1208 248 1208 q 314 1203 299 1208 q 340 1188 329 1198 q 363 1146 363 1168 q 357 1110 363 1123 q 340 1088 351 1097 q 282 1069 317 1069 q 225 1088 248 1069 q 202 1138 202 1107 m 487 1138 q 487 1154 487 1138 q 510 1188 487 1169 q 567 1208 533 1208 q 625 1188 602 1208 q 648 1138 648 1169 q 625 1088 648 1107 q 567 1069 602 1069 q 510 1088 533 1069 q 487 1138 487 1107 z "},"Ì":{"ha":492,"x_min":63,"x_max":429,"o":"m 427 964 l 427 924 q 390 911 408 916 q 359 899 372 906 q 330 839 330 882 l 330 125 q 359 65 330 81 q 391 53 373 58 q 429 40 408 48 l 429 0 l 63 0 l 63 40 q 100 53 83 48 q 132 65 118 58 q 161 125 161 81 l 161 839 q 132 899 161 882 q 100 911 118 906 q 63 924 83 916 l 63 964 l 427 964 m 350 1046 l 120 1181 q 77 1236 77 1206 q 107 1279 77 1265 q 136 1283 117 1283 q 220 1232 165 1283 l 414 1046 l 350 1046 z "},"Í":{"ha":492,"x_min":63,"x_max":429,"o":"m 427 964 l 427 924 q 390 911 408 916 q 359 899 372 906 q 330 839 330 882 l 330 125 q 359 65 330 81 q 391 53 373 58 q 429 40 408 48 l 429 0 l 63 0 l 63 40 q 100 53 83 48 q 132 65 118 58 q 161 125 161 81 l 161 839 q 132 899 161 882 q 100 911 118 906 q 63 924 83 916 l 63 964 l 427 964 m 77 1046 l 271 1232 q 314 1267 293 1252 q 354 1283 336 1283 q 384 1279 373 1283 q 401 1267 394 1274 q 415 1235 415 1252 q 372 1181 415 1207 l 141 1046 l 77 1046 z "},"Î":{"ha":492,"x_min":16,"x_max":476,"o":"m 427 964 l 427 924 q 390 911 408 916 q 359 899 372 906 q 330 839 330 882 l 330 125 q 359 65 330 81 q 391 53 373 58 q 429 40 408 48 l 429 0 l 63 0 l 63 40 q 100 53 83 48 q 132 65 118 58 q 161 125 161 81 l 161 839 q 132 899 161 882 q 100 911 118 906 q 63 924 83 916 l 63 964 l 427 964 m 296 1279 l 476 1046 l 417 1046 l 245 1200 l 73 1046 l 16 1046 l 194 1279 l 296 1279 z "},"Ï":{"ha":492,"x_min":23,"x_max":469,"o":"m 427 964 l 427 924 q 390 911 408 916 q 359 899 372 906 q 330 839 330 882 l 330 125 q 359 65 330 81 q 391 53 373 58 q 429 40 408 48 l 429 0 l 63 0 l 63 40 q 100 53 83 48 q 132 65 118 58 q 161 125 161 81 l 161 839 q 132 899 161 882 q 100 911 118 906 q 63 924 83 916 l 63 964 l 427 964 m 23 1138 q 23 1154 23 1138 q 46 1188 23 1169 q 95 1208 69 1208 q 135 1203 120 1208 q 161 1188 150 1198 q 184 1146 184 1168 q 178 1110 184 1123 q 161 1088 172 1097 q 103 1069 138 1069 q 46 1088 69 1069 q 23 1138 23 1107 m 308 1138 q 308 1154 308 1138 q 331 1188 308 1169 q 388 1208 354 1208 q 446 1188 422 1208 q 469 1138 469 1169 q 446 1088 469 1107 q 388 1069 422 1069 q 331 1088 354 1069 q 308 1138 308 1107 z "},"Ð":{"ha":984,"x_min":48,"x_max":916,"o":"m 48 550 l 152 550 l 152 839 q 123 899 152 882 q 93 911 110 906 q 57 924 75 916 l 57 964 l 332 964 l 332 550 l 545 550 l 545 485 l 332 485 l 332 0 l 57 0 l 57 40 q 93 53 75 48 q 123 65 110 58 q 152 125 152 81 l 152 485 l 48 485 l 48 550 m 560 892 q 457 913 507 913 q 388 909 406 913 l 388 964 l 454 964 q 795 829 671 964 q 916 482 916 699 q 795 134 916 264 q 454 0 671 0 l 388 0 l 388 55 q 461 52 415 52 q 561 72 507 52 q 650 142 614 93 q 725 482 725 244 q 560 892 725 828 z "},"Ñ":{"ha":969,"x_min":37,"x_max":926,"o":"m 747 361 l 747 839 q 713 895 747 876 q 679 910 698 903 q 642 925 661 917 l 642 965 l 926 965 l 926 925 q 891 910 909 917 q 859 895 873 903 q 825 839 825 876 l 825 239 l 747 361 m 221 720 l 221 126 q 256 71 221 89 q 293 55 272 62 q 335 40 313 48 l 335 0 l 37 0 l 37 40 q 75 55 56 48 q 109 71 94 62 q 143 126 143 90 l 143 822 l 221 720 m 224 804 q 79 911 151 890 q 41 924 60 918 l 41 964 l 306 964 l 825 143 l 825 -5 l 725 -5 l 224 804 m 726 1229 q 572 1082 684 1082 q 486 1104 533 1082 q 414 1138 438 1127 q 369 1148 390 1148 q 335 1142 348 1148 q 312 1126 321 1136 q 288 1079 298 1111 l 243 1079 q 299 1186 259 1151 q 395 1222 340 1222 q 482 1199 434 1222 q 554 1165 530 1176 q 596 1155 577 1155 q 629 1161 616 1155 q 651 1176 642 1166 q 682 1229 662 1187 l 726 1229 z "},"Ò":{"ha":969,"x_min":58,"x_max":909,"o":"m 455 -20 q 168 137 281 -8 q 58 482 58 278 q 168 826 58 685 q 455 983 281 971 l 455 928 q 305 822 355 918 q 249 482 249 712 q 370 65 249 144 q 455 36 408 41 l 455 -20 m 511 36 q 703 278 663 52 q 718 482 718 361 q 596 898 718 819 q 511 928 558 922 l 511 984 q 799 827 686 972 q 909 482 909 686 q 799 137 909 279 q 511 -20 686 -7 l 511 36 m 589 1046 l 359 1181 q 315 1236 315 1206 q 346 1279 315 1265 q 374 1283 356 1283 q 458 1232 404 1283 l 653 1046 l 589 1046 z "},"Ó":{"ha":969,"x_min":58,"x_max":909,"o":"m 455 -20 q 168 137 281 -8 q 58 482 58 278 q 168 826 58 685 q 455 983 281 971 l 455 928 q 305 822 355 918 q 249 482 249 712 q 370 65 249 144 q 455 36 408 41 l 455 -20 m 511 36 q 703 278 663 52 q 718 482 718 361 q 596 898 718 819 q 511 928 558 922 l 511 984 q 799 827 686 972 q 909 482 909 686 q 799 137 909 279 q 511 -20 686 -7 l 511 36 m 315 1046 l 510 1232 q 553 1267 532 1252 q 593 1283 574 1283 q 622 1279 612 1283 q 640 1267 633 1274 q 654 1235 654 1252 q 610 1181 654 1207 l 380 1046 l 315 1046 z "},"Ô":{"ha":969,"x_min":58,"x_max":909,"o":"m 455 -20 q 168 137 281 -8 q 58 482 58 278 q 168 826 58 685 q 455 983 281 971 l 455 928 q 305 822 355 918 q 249 482 249 712 q 370 65 249 144 q 455 36 408 41 l 455 -20 m 511 36 q 703 278 663 52 q 718 482 718 361 q 596 898 718 819 q 511 928 558 922 l 511 984 q 799 827 686 972 q 909 482 909 686 q 799 137 909 279 q 511 -20 686 -7 l 511 36 m 534 1279 l 715 1046 l 656 1046 l 484 1200 l 312 1046 l 254 1046 l 433 1279 l 534 1279 z "},"Õ":{"ha":969,"x_min":58,"x_max":909,"o":"m 455 -20 q 168 137 281 -8 q 58 482 58 278 q 168 826 58 685 q 455 983 281 971 l 455 928 q 305 822 355 918 q 249 482 249 712 q 370 65 249 144 q 455 36 408 41 l 455 -20 m 511 36 q 703 278 663 52 q 718 482 718 361 q 596 898 718 819 q 511 928 558 922 l 511 984 q 799 827 686 972 q 909 482 909 686 q 799 137 909 279 q 511 -20 686 -7 l 511 36 m 726 1229 q 572 1082 684 1082 q 486 1104 533 1082 q 414 1138 438 1127 q 369 1148 390 1148 q 335 1142 348 1148 q 312 1126 321 1136 q 288 1079 298 1111 l 243 1079 q 299 1186 259 1151 q 395 1222 340 1222 q 482 1199 434 1222 q 554 1165 530 1176 q 596 1155 577 1155 q 629 1161 616 1155 q 651 1176 642 1166 q 682 1229 662 1187 l 726 1229 z "},"Ö":{"ha":969,"x_min":58,"x_max":909,"o":"m 455 -20 q 168 137 281 -8 q 58 482 58 278 q 168 826 58 685 q 455 983 281 971 l 455 928 q 305 822 355 918 q 249 482 249 712 q 370 65 249 144 q 455 36 408 41 l 455 -20 m 511 36 q 703 278 663 52 q 718 482 718 361 q 596 898 718 819 q 511 928 558 922 l 511 984 q 799 827 686 972 q 909 482 909 686 q 799 137 909 279 q 511 -20 686 -7 l 511 36 m 262 1138 q 262 1154 262 1138 q 285 1188 262 1169 q 333 1208 308 1208 q 374 1203 359 1208 q 399 1188 389 1198 q 423 1146 423 1168 q 417 1110 423 1123 q 399 1088 410 1097 q 342 1069 376 1069 q 285 1088 308 1069 q 262 1138 262 1107 m 547 1138 q 547 1154 547 1138 q 570 1188 547 1169 q 627 1208 593 1208 q 684 1188 661 1208 q 707 1138 707 1169 q 684 1088 707 1107 q 627 1069 661 1069 q 570 1088 593 1069 q 547 1138 547 1107 z "},"×":{"ha":966,"x_min":97,"x_max":868,"o":"m 174 665 l 483 399 l 793 665 l 868 599 l 559 332 l 868 65 l 793 0 l 483 267 l 174 0 l 97 65 l 406 332 l 97 599 l 174 665 z "},"Ø":{"ha":969,"x_min":58,"x_max":909,"o":"m 309 137 q 455 36 359 46 l 455 -20 q 256 51 344 -12 l 168 -94 l 89 -94 l 204 96 q 97 265 135 165 q 58 473 58 364 q 87 670 58 582 q 168 826 116 759 q 455 983 281 971 l 455 928 q 305 822 355 918 q 249 482 249 712 q 277 216 249 319 l 653 833 q 511 928 605 916 l 511 984 q 704 917 616 976 l 784 1048 l 863 1048 l 757 874 q 869 703 829 804 q 909 492 909 602 q 881 293 909 382 q 799 137 852 205 q 511 -20 686 -7 l 511 36 q 703 278 663 52 q 718 467 718 361 q 686 758 718 654 l 309 137 z "},"Ù":{"ha":953,"x_min":43,"x_max":921,"o":"m 538 35 q 724 146 680 41 q 739 227 739 181 l 739 831 q 673 909 739 887 q 636 924 654 916 l 636 964 l 921 964 l 921 924 q 884 909 903 916 q 850 894 865 903 q 817 831 817 873 l 817 248 q 538 -19 817 1 l 538 35 m 481 -21 q 159 137 228 -21 q 136 257 136 189 l 136 839 q 109 899 136 882 q 80 911 97 906 q 43 924 63 916 l 43 964 l 398 964 l 398 924 q 361 911 378 916 q 331 899 344 906 q 304 839 304 883 l 304 225 q 353 95 304 146 q 481 37 399 46 l 481 -21 m 581 1046 l 351 1181 q 307 1236 307 1206 q 338 1279 307 1265 q 366 1283 348 1283 q 450 1232 395 1283 l 645 1046 l 581 1046 z "},"Ú":{"ha":953,"x_min":43,"x_max":921,"o":"m 538 35 q 724 146 680 41 q 739 227 739 181 l 739 831 q 673 909 739 887 q 636 924 654 916 l 636 964 l 921 964 l 921 924 q 884 909 903 916 q 850 894 865 903 q 817 831 817 873 l 817 248 q 538 -19 817 1 l 538 35 m 481 -21 q 159 137 228 -21 q 136 257 136 189 l 136 839 q 109 899 136 882 q 80 911 97 906 q 43 924 63 916 l 43 964 l 398 964 l 398 924 q 361 911 378 916 q 331 899 344 906 q 304 839 304 883 l 304 225 q 353 95 304 146 q 481 37 399 46 l 481 -21 m 307 1046 l 502 1232 q 545 1267 524 1252 q 585 1283 566 1283 q 614 1279 604 1283 q 631 1267 625 1274 q 646 1235 646 1252 q 602 1181 646 1207 l 372 1046 l 307 1046 z "},"Û":{"ha":953,"x_min":43,"x_max":921,"o":"m 538 35 q 724 146 680 41 q 739 227 739 181 l 739 831 q 673 909 739 887 q 636 924 654 916 l 636 964 l 921 964 l 921 924 q 884 909 903 916 q 850 894 865 903 q 817 831 817 873 l 817 248 q 538 -19 817 1 l 538 35 m 481 -21 q 159 137 228 -21 q 136 257 136 189 l 136 839 q 109 899 136 882 q 80 911 97 906 q 43 924 63 916 l 43 964 l 398 964 l 398 924 q 361 911 378 916 q 331 899 344 906 q 304 839 304 883 l 304 225 q 353 95 304 146 q 481 37 399 46 l 481 -21 m 526 1279 l 707 1046 l 648 1046 l 476 1200 l 304 1046 l 246 1046 l 425 1279 l 526 1279 z "},"Ü":{"ha":953,"x_min":43,"x_max":921,"o":"m 538 35 q 724 146 680 41 q 739 227 739 181 l 739 831 q 673 909 739 887 q 636 924 654 916 l 636 964 l 921 964 l 921 924 q 884 909 903 916 q 850 894 865 903 q 817 831 817 873 l 817 248 q 538 -19 817 1 l 538 35 m 481 -21 q 159 137 228 -21 q 136 257 136 189 l 136 839 q 109 899 136 882 q 80 911 97 906 q 43 924 63 916 l 43 964 l 398 964 l 398 924 q 361 911 378 916 q 331 899 344 906 q 304 839 304 883 l 304 225 q 353 95 304 146 q 481 37 399 46 l 481 -21 m 254 1138 q 254 1154 254 1138 q 277 1188 254 1169 q 325 1208 300 1208 q 366 1203 351 1208 q 391 1188 380 1198 q 415 1146 415 1168 q 409 1110 415 1123 q 391 1088 402 1097 q 334 1069 368 1069 q 277 1088 300 1069 q 254 1138 254 1107 m 538 1138 q 538 1154 538 1138 q 562 1188 538 1169 q 619 1208 585 1208 q 676 1188 653 1208 q 699 1138 699 1169 q 676 1088 699 1107 q 619 1069 653 1069 q 562 1088 585 1069 q 538 1138 538 1107 z "},"Ý":{"ha":805,"x_min":-21,"x_max":834,"o":"m 481 537 q 622 818 612 793 q 633 864 633 848 q 625 888 633 879 q 603 902 616 897 q 573 911 589 907 q 543 921 557 915 l 543 964 l 834 964 l 834 921 q 796 904 823 913 q 756 889 769 896 q 726 856 744 883 q 680 779 707 828 q 627 677 653 730 q 574 571 600 625 q 522 465 548 517 l 481 537 m 493 409 l 486 399 l 486 157 q 523 65 486 80 q 546 58 534 61 q 596 40 583 49 l 596 0 l 208 0 l 208 40 q 247 55 222 50 q 281 65 271 60 q 300 80 292 69 q 317 160 317 102 l 317 401 l 81 852 q 5 909 62 890 q -21 921 -8 914 l -21 964 l 358 964 l 358 921 q 325 911 342 914 q 296 903 309 907 q 266 869 266 893 q 287 811 266 852 q 329 729 308 770 q 380 629 349 689 q 454 485 411 570 l 493 409 m 233 1046 l 428 1232 q 471 1267 450 1252 q 511 1283 492 1283 q 540 1279 530 1283 q 557 1267 551 1274 q 572 1239 572 1252 q 568 1219 572 1227 q 556 1206 565 1212 q 493 1181 538 1194 l 298 1046 l 233 1046 z "},"Þ":{"ha":834,"x_min":62,"x_max":814,"o":"m 326 149 q 350 81 326 115 q 384 60 361 65 q 440 40 430 49 l 440 0 l 62 0 l 62 40 q 97 53 80 48 q 127 65 115 58 q 157 125 157 81 l 157 810 q 154 866 157 850 q 141 891 151 883 q 118 903 131 899 q 90 912 104 908 q 62 924 75 916 l 62 964 l 421 964 l 421 924 q 384 907 405 913 q 355 898 363 902 q 339 884 346 894 q 326 814 326 866 l 326 149 m 437 704 q 382 700 407 704 l 382 755 l 449 755 q 792 606 723 755 q 814 503 814 559 q 792 400 814 447 q 726 319 770 353 q 461 244 631 244 l 382 244 l 382 296 l 389 296 q 563 340 508 296 q 623 503 623 388 q 437 704 623 704 z "},"ß":{"ha":917,"x_min":47,"x_max":840,"o":"m 553 -18 q 370 88 414 -12 q 357 151 357 120 q 370 193 357 182 q 399 203 383 203 q 450 158 440 203 q 553 29 476 43 l 553 -18 m 287 86 q 304 64 287 70 q 321 50 321 59 l 321 0 l 47 0 l 47 36 q 78 49 62 44 q 109 61 95 54 q 142 109 142 77 l 142 693 q 288 949 142 878 l 287 86 m 344 970 q 455 985 395 985 q 568 969 515 985 q 661 926 621 954 q 747 768 747 866 q 614 572 747 648 q 481 519 555 538 q 523 485 492 501 q 593 451 553 469 q 677 410 633 433 q 757 357 720 388 q 840 192 840 287 q 779 52 840 111 q 610 -18 715 -9 l 610 28 q 688 72 661 36 q 711 140 711 102 q 697 205 711 179 q 658 253 682 232 q 604 291 634 274 q 542 323 573 308 q 479 355 510 339 q 425 389 449 371 q 372 484 372 431 q 441 578 372 549 q 520 615 500 603 q 555 647 540 628 q 589 768 589 690 q 501 926 589 895 q 426 936 473 936 q 344 909 378 936 l 344 970 z "},"à":{"ha":715,"x_min":41,"x_max":713,"o":"m 388 346 q 206 154 206 280 q 231 72 206 103 q 303 41 255 41 q 388 77 352 41 l 388 13 q 270 -18 336 -18 q 164 -5 204 -18 q 98 30 125 7 q 41 150 41 75 q 315 382 41 304 q 388 403 353 394 l 388 346 m 227 589 q 264 524 264 574 q 241 471 264 491 q 179 452 218 452 q 118 473 140 452 q 95 527 95 494 q 111 587 95 560 q 155 633 126 613 q 303 683 214 676 l 303 631 q 227 589 248 626 m 631 67 q 678 135 668 67 l 713 117 q 676 16 706 51 q 583 -18 647 -18 q 508 0 532 -18 q 444 90 469 30 l 444 513 q 422 586 444 555 q 359 627 400 616 l 359 683 q 589 440 589 671 l 589 119 q 631 67 589 67 m 462 743 l 232 879 q 189 933 189 904 q 220 977 189 962 q 248 981 229 981 q 332 929 277 981 l 526 743 l 462 743 z "},"á":{"ha":715,"x_min":41,"x_max":713,"o":"m 388 346 q 206 154 206 280 q 231 72 206 103 q 303 41 255 41 q 388 77 352 41 l 388 13 q 270 -18 336 -18 q 164 -5 204 -18 q 98 30 125 7 q 41 150 41 75 q 315 382 41 304 q 388 403 353 394 l 388 346 m 227 589 q 264 524 264 574 q 241 471 264 491 q 179 452 218 452 q 118 473 140 452 q 95 527 95 494 q 111 587 95 560 q 155 633 126 613 q 303 683 214 676 l 303 631 q 227 589 248 626 m 631 67 q 678 135 668 67 l 713 117 q 676 16 706 51 q 583 -18 647 -18 q 508 0 532 -18 q 444 90 469 30 l 444 513 q 422 586 444 555 q 359 627 400 616 l 359 683 q 589 440 589 671 l 589 119 q 631 67 589 67 m 188 743 l 382 929 q 426 965 404 949 q 466 981 447 981 q 495 976 484 981 q 512 964 505 972 q 526 932 526 949 q 483 879 526 905 l 252 743 l 188 743 z "},"â":{"ha":715,"x_min":41,"x_max":713,"o":"m 388 346 q 206 154 206 280 q 231 72 206 103 q 303 41 255 41 q 388 77 352 41 l 388 13 q 270 -18 336 -18 q 164 -5 204 -18 q 98 30 125 7 q 41 150 41 75 q 315 382 41 304 q 388 403 353 394 l 388 346 m 227 589 q 264 524 264 574 q 241 471 264 491 q 179 452 218 452 q 118 473 140 452 q 95 527 95 494 q 111 587 95 560 q 155 633 126 613 q 303 683 214 676 l 303 631 q 227 589 248 626 m 631 67 q 678 135 668 67 l 713 117 q 676 16 706 51 q 583 -18 647 -18 q 508 0 532 -18 q 444 90 469 30 l 444 513 q 422 586 444 555 q 359 627 400 616 l 359 683 q 589 440 589 671 l 589 119 q 631 67 589 67 m 407 977 l 587 743 l 528 743 l 357 897 l 184 743 l 127 743 l 305 977 l 407 977 z "},"ã":{"ha":715,"x_min":41,"x_max":713,"o":"m 388 346 q 206 154 206 280 q 231 72 206 103 q 303 41 255 41 q 388 77 352 41 l 388 13 q 270 -18 336 -18 q 164 -5 204 -18 q 98 30 125 7 q 41 150 41 75 q 315 382 41 304 q 388 403 353 394 l 388 346 m 227 589 q 264 524 264 574 q 241 471 264 491 q 179 452 218 452 q 118 473 140 452 q 95 527 95 494 q 111 587 95 560 q 155 633 126 613 q 303 683 214 676 l 303 631 q 227 589 248 626 m 631 67 q 678 135 668 67 l 713 117 q 676 16 706 51 q 583 -18 647 -18 q 508 0 532 -18 q 444 90 469 30 l 444 513 q 422 586 444 555 q 359 627 400 616 l 359 683 q 589 440 589 671 l 589 119 q 631 67 589 67 m 598 926 q 445 779 557 779 q 358 802 406 779 q 287 835 311 825 q 241 846 262 846 q 207 840 220 846 q 184 823 194 833 q 160 777 171 808 l 116 777 q 172 884 132 848 q 268 920 212 920 q 355 897 307 920 q 426 863 403 873 q 469 852 450 852 q 501 858 488 852 q 524 873 514 864 q 554 926 534 885 l 598 926 z "},"ä":{"ha":715,"x_min":41,"x_max":713,"o":"m 388 346 q 206 154 206 280 q 231 72 206 103 q 303 41 255 41 q 388 77 352 41 l 388 13 q 270 -18 336 -18 q 164 -5 204 -18 q 98 30 125 7 q 41 150 41 75 q 315 382 41 304 q 388 403 353 394 l 388 346 m 227 589 q 264 524 264 574 q 241 471 264 491 q 179 452 218 452 q 118 473 140 452 q 95 527 95 494 q 111 587 95 560 q 155 633 126 613 q 303 683 214 676 l 303 631 q 227 589 248 626 m 631 67 q 678 135 668 67 l 713 117 q 676 16 706 51 q 583 -18 647 -18 q 508 0 532 -18 q 444 90 469 30 l 444 513 q 422 586 444 555 q 359 627 400 616 l 359 683 q 589 440 589 671 l 589 119 q 631 67 589 67 m 134 836 q 134 851 134 836 q 157 886 134 867 q 206 905 180 905 q 246 900 231 905 q 272 886 261 895 q 296 843 296 866 q 289 808 296 821 q 272 785 283 795 q 215 766 249 766 q 157 785 180 766 q 134 836 134 804 m 419 836 q 419 851 419 836 q 442 886 419 867 q 499 905 465 905 q 557 886 534 905 q 580 836 580 867 q 557 785 580 804 q 499 766 534 766 q 442 785 465 766 q 419 836 419 804 z "},"å":{"ha":715,"x_min":41,"x_max":713,"o":"m 388 346 q 206 154 206 280 q 231 72 206 103 q 303 41 255 41 q 388 77 352 41 l 388 13 q 270 -18 336 -18 q 164 -5 204 -18 q 98 30 125 7 q 41 150 41 75 q 315 382 41 304 q 388 403 353 394 l 388 346 m 227 589 q 264 524 264 574 q 241 471 264 491 q 179 452 218 452 q 118 473 140 452 q 95 527 95 494 q 111 587 95 560 q 155 633 126 613 q 303 683 214 676 l 303 631 q 227 589 248 626 m 631 67 q 678 135 668 67 l 713 117 q 676 16 706 51 q 583 -18 647 -18 q 508 0 532 -18 q 444 90 469 30 l 444 513 q 422 586 444 555 q 359 627 400 616 l 359 683 q 589 440 589 671 l 589 119 q 631 67 589 67 m 194 893 q 241 994 194 952 q 357 1034 288 1034 q 472 994 426 1034 q 520 893 520 952 q 472 792 520 833 q 357 751 425 751 q 241 792 289 751 q 194 893 194 833 m 253 892 q 261 857 253 873 q 283 827 269 840 q 357 800 313 800 q 453 857 427 800 q 461 893 461 873 q 453 929 461 912 q 431 958 446 946 q 357 985 401 985 q 283 958 313 985 q 253 892 253 932 z "},"æ":{"ha":1088,"x_min":54,"x_max":1042,"o":"m 755 -18 q 532 117 604 -12 q 454 48 495 77 l 454 505 q 406 615 454 581 q 363 632 389 627 l 363 683 q 547 604 477 677 q 715 682 614 673 l 715 625 q 612 375 612 597 q 755 44 612 73 l 755 -18 m 306 41 q 398 82 361 41 l 398 12 q 279 -18 341 -18 q 176 -5 216 -18 q 109 31 136 8 q 54 154 54 79 q 398 401 54 334 l 398 345 q 222 218 262 310 q 210 158 210 189 q 306 41 210 41 m 873 404 q 772 625 873 604 l 772 683 q 972 576 901 674 q 1036 345 1036 487 l 668 345 l 668 404 l 873 404 m 187 457 q 106 534 106 457 q 163 635 106 593 q 307 683 218 676 l 307 633 q 231 591 250 627 q 269 529 269 580 q 246 477 269 496 q 187 457 223 457 m 812 43 q 961 155 916 54 q 983 215 974 184 l 1042 193 q 812 -16 988 3 l 812 43 z "},"ç":{"ha":656,"x_min":48,"x_max":607,"o":"m 493 574 q 408 627 474 621 l 408 682 q 552 623 498 677 q 599 515 599 576 q 551 430 599 452 q 507 422 534 422 q 457 443 479 422 q 435 491 435 464 q 441 531 435 518 q 456 552 447 544 q 475 565 465 560 q 493 574 485 570 m 408 43 q 530 148 491 56 q 551 200 542 174 l 607 183 q 483 8 569 52 q 408 -15 451 -9 l 408 43 m 210 334 q 352 43 210 68 l 352 -18 q 138 73 224 -16 q 48 326 48 169 q 132 568 48 465 q 352 683 219 673 l 352 623 q 220 451 250 600 q 210 334 210 400 m 305 -138 q 256 -147 275 -138 l 232 -139 l 302 0 l 356 0 l 310 -93 q 418 -93 363 -77 q 484 -142 465 -106 q 494 -185 494 -161 q 481 -231 494 -209 q 444 -268 469 -252 q 305 -301 392 -301 q 161 -278 226 -301 l 185 -236 q 281 -254 229 -254 q 357 -237 333 -254 q 382 -195 382 -220 q 305 -138 382 -138 z "},"è":{"ha":712,"x_min":48,"x_max":650,"o":"m 488 404 q 391 624 488 600 l 391 682 q 586 576 517 671 q 650 345 650 487 l 267 345 l 267 404 l 488 404 m 393 41 q 561 153 511 47 q 585 215 575 183 l 644 193 q 488 3 606 52 q 393 -18 447 -14 l 393 41 m 210 375 q 337 47 210 83 l 337 -16 q 126 95 204 -1 q 48 332 48 189 q 126 578 48 481 q 334 683 205 675 l 334 627 q 210 375 210 612 m 460 743 l 231 879 q 187 933 187 904 q 218 977 187 962 q 247 981 228 981 q 330 929 275 981 l 525 743 l 460 743 z "},"é":{"ha":712,"x_min":48,"x_max":650,"o":"m 488 404 q 391 624 488 600 l 391 682 q 586 576 517 671 q 650 345 650 487 l 267 345 l 267 404 l 488 404 m 393 41 q 561 153 511 47 q 585 215 575 183 l 644 193 q 488 3 606 52 q 393 -18 447 -14 l 393 41 m 210 375 q 337 47 210 83 l 337 -16 q 126 95 204 -1 q 48 332 48 189 q 126 578 48 481 q 334 683 205 675 l 334 627 q 210 375 210 612 m 186 743 l 381 929 q 424 965 403 949 q 464 981 446 981 q 493 976 483 981 q 511 964 504 972 q 525 932 525 949 q 481 879 525 905 l 251 743 l 186 743 z "},"ê":{"ha":712,"x_min":48,"x_max":650,"o":"m 488 404 q 391 624 488 600 l 391 682 q 586 576 517 671 q 650 345 650 487 l 267 345 l 267 404 l 488 404 m 393 41 q 561 153 511 47 q 585 215 575 183 l 644 193 q 488 3 606 52 q 393 -18 447 -14 l 393 41 m 210 375 q 337 47 210 83 l 337 -16 q 126 95 204 -1 q 48 332 48 189 q 126 578 48 481 q 334 683 205 675 l 334 627 q 210 375 210 612 m 406 977 l 586 743 l 527 743 l 355 897 l 183 743 l 125 743 l 304 977 l 406 977 z "},"ë":{"ha":712,"x_min":48,"x_max":650,"o":"m 488 404 q 391 624 488 600 l 391 682 q 586 576 517 671 q 650 345 650 487 l 267 345 l 267 404 l 488 404 m 393 41 q 561 153 511 47 q 585 215 575 183 l 644 193 q 488 3 606 52 q 393 -18 447 -14 l 393 41 m 210 375 q 337 47 210 83 l 337 -16 q 126 95 204 -1 q 48 332 48 189 q 126 578 48 481 q 334 683 205 675 l 334 627 q 210 375 210 612 m 133 836 q 133 851 133 836 q 156 886 133 867 q 204 905 179 905 q 245 900 230 905 q 271 886 260 895 q 294 843 294 866 q 288 808 294 821 q 271 785 281 795 q 213 766 248 766 q 156 785 179 766 q 133 836 133 804 m 418 836 q 418 851 418 836 q 441 886 418 867 q 498 905 464 905 q 555 886 532 905 q 578 836 578 867 q 555 785 578 804 q 498 766 532 766 q 441 785 464 766 q 418 836 418 804 z "},"ì":{"ha":431,"x_min":47,"x_max":385,"o":"m 296 673 l 296 107 q 324 61 296 75 q 352 49 337 54 q 381 36 367 44 l 381 0 l 66 0 l 66 36 q 95 49 80 44 q 123 61 111 54 q 152 107 152 75 l 152 561 q 125 610 152 597 q 97 620 113 616 q 66 632 81 624 l 66 673 l 296 673 m 320 743 l 90 879 q 47 933 47 904 q 77 977 47 962 q 106 981 87 981 q 190 929 135 981 l 385 743 l 320 743 z "},"í":{"ha":431,"x_min":47,"x_max":385,"o":"m 296 673 l 296 107 q 324 61 296 75 q 352 49 337 54 q 381 36 367 44 l 381 0 l 66 0 l 66 36 q 95 49 80 44 q 123 61 111 54 q 152 107 152 75 l 152 561 q 125 610 152 597 q 97 620 113 616 q 66 632 81 624 l 66 673 l 296 673 m 47 743 l 241 929 q 284 965 263 949 q 325 981 306 981 q 354 976 343 981 q 371 964 364 972 q 385 932 385 949 q 342 879 385 905 l 111 743 l 47 743 z "},"î":{"ha":431,"x_min":-14,"x_max":446,"o":"m 296 673 l 296 107 q 324 61 296 75 q 352 49 337 54 q 381 36 367 44 l 381 0 l 66 0 l 66 36 q 95 49 80 44 q 123 61 111 54 q 152 107 152 75 l 152 561 q 125 610 152 597 q 97 620 113 616 q 66 632 81 624 l 66 673 l 296 673 m 266 977 l 446 743 l 387 743 l 216 897 l 43 743 l -14 743 l 164 977 l 266 977 z "},"ï":{"ha":431,"x_min":-7,"x_max":439,"o":"m 296 673 l 296 107 q 324 61 296 75 q 352 49 337 54 q 381 36 367 44 l 381 0 l 66 0 l 66 36 q 95 49 80 44 q 123 61 111 54 q 152 107 152 75 l 152 561 q 125 610 152 597 q 97 620 113 616 q 66 632 81 624 l 66 673 l 296 673 m -7 836 q -7 851 -7 836 q 16 886 -7 867 q 65 905 39 905 q 105 900 90 905 q 131 886 120 895 q 155 843 155 866 q 148 808 155 821 q 131 785 142 795 q 74 766 108 766 q 16 785 39 766 q -7 836 -7 804 m 278 836 q 278 851 278 836 q 301 886 278 867 q 358 905 324 905 q 416 886 393 905 q 439 836 439 867 q 416 785 439 804 q 358 766 393 766 q 301 785 324 766 q 278 836 278 804 z "},"ð":{"ha":714,"x_min":54,"x_max":662,"o":"m 324 608 q 210 322 210 581 q 324 37 210 64 l 324 -17 q 130 87 205 -5 q 54 322 54 181 q 130 556 54 463 q 324 661 206 648 l 324 608 m 380 35 q 504 320 504 53 q 380 609 504 587 l 380 661 q 465 639 429 656 q 370 819 437 743 l 208 728 l 174 774 l 327 861 q 255 912 290 895 q 209 936 219 928 q 193 953 199 943 l 212 991 q 401 901 317 963 l 561 991 l 594 946 l 447 863 q 648 496 604 724 q 662 343 662 424 q 640 196 662 262 q 581 83 618 130 q 380 -18 505 -9 l 380 35 z "},"ñ":{"ha":806,"x_min":47,"x_max":770,"o":"m 438 611 q 335 567 382 611 l 335 641 q 475 684 395 684 q 627 635 569 684 q 686 492 686 584 l 686 135 q 712 60 686 71 q 730 54 720 56 q 770 36 755 47 l 770 0 l 507 0 l 507 46 q 519 70 507 59 q 536 89 530 81 q 541 111 541 96 l 541 498 q 438 611 541 611 m 279 138 q 306 61 279 74 q 323 54 314 58 q 364 36 351 45 l 364 0 l 48 0 l 48 36 q 79 52 60 45 q 106 61 98 58 q 121 73 115 64 q 134 136 134 91 l 134 528 q 107 606 134 595 q 90 612 99 609 q 47 628 60 618 l 47 669 l 279 669 l 279 138 m 644 926 q 490 779 602 779 q 404 802 451 779 q 332 835 356 825 q 287 846 308 846 q 253 840 266 846 q 231 823 239 833 q 205 777 216 808 l 161 777 q 217 884 177 848 q 313 920 258 920 q 400 897 352 920 q 472 863 448 873 q 514 852 495 852 q 547 858 534 852 q 569 873 559 864 q 600 926 580 885 l 644 926 z "},"ò":{"ha":714,"x_min":54,"x_max":662,"o":"m 328 -17 q 137 81 212 -5 q 54 332 54 178 q 137 583 54 486 q 328 682 212 671 l 328 629 q 240 551 268 618 q 210 332 210 478 q 277 60 210 117 q 328 36 299 41 l 328 -17 m 384 35 q 504 332 504 56 q 433 608 504 551 q 384 630 411 625 l 384 683 q 576 586 499 674 q 662 332 662 488 q 578 79 662 176 q 384 -18 500 -9 l 384 35 m 461 743 l 231 879 q 188 933 188 904 q 218 977 188 962 q 247 981 229 981 q 331 929 276 981 l 526 743 l 461 743 z "},"ó":{"ha":714,"x_min":54,"x_max":662,"o":"m 328 -17 q 137 81 212 -5 q 54 332 54 178 q 137 583 54 486 q 328 682 212 671 l 328 629 q 240 551 268 618 q 210 332 210 478 q 277 60 210 117 q 328 36 299 41 l 328 -17 m 384 35 q 504 332 504 56 q 433 608 504 551 q 384 630 411 625 l 384 683 q 576 586 499 674 q 662 332 662 488 q 578 79 662 176 q 384 -18 500 -9 l 384 35 m 188 743 l 382 929 q 426 965 404 949 q 466 981 447 981 q 495 976 484 981 q 512 964 505 972 q 526 932 526 949 q 483 879 526 905 l 252 743 l 188 743 z "},"ô":{"ha":714,"x_min":54,"x_max":662,"o":"m 328 -17 q 137 81 212 -5 q 54 332 54 178 q 137 583 54 486 q 328 682 212 671 l 328 629 q 240 551 268 618 q 210 332 210 478 q 277 60 210 117 q 328 36 299 41 l 328 -17 m 384 35 q 504 332 504 56 q 433 608 504 551 q 384 630 411 625 l 384 683 q 576 586 499 674 q 662 332 662 488 q 578 79 662 176 q 384 -18 500 -9 l 384 35 m 407 977 l 587 743 l 528 743 l 357 897 l 184 743 l 127 743 l 305 977 l 407 977 z "},"õ":{"ha":714,"x_min":54,"x_max":662,"o":"m 328 -17 q 137 81 212 -5 q 54 332 54 178 q 137 583 54 486 q 328 682 212 671 l 328 629 q 240 551 268 618 q 210 332 210 478 q 277 60 210 117 q 328 36 299 41 l 328 -17 m 384 35 q 504 332 504 56 q 433 608 504 551 q 384 630 411 625 l 384 683 q 576 586 499 674 q 662 332 662 488 q 578 79 662 176 q 384 -18 500 -9 l 384 35 m 598 926 q 445 779 557 779 q 358 802 406 779 q 287 835 311 825 q 241 846 262 846 q 207 840 220 846 q 184 823 194 833 q 160 777 171 808 l 116 777 q 172 884 132 848 q 268 920 212 920 q 355 897 307 920 q 426 863 403 873 q 469 852 450 852 q 501 858 488 852 q 524 873 514 864 q 554 926 534 885 l 598 926 z "},"ö":{"ha":714,"x_min":54,"x_max":662,"o":"m 328 -17 q 137 81 212 -5 q 54 332 54 178 q 137 583 54 486 q 328 682 212 671 l 328 629 q 240 551 268 618 q 210 332 210 478 q 277 60 210 117 q 328 36 299 41 l 328 -17 m 384 35 q 504 332 504 56 q 433 608 504 551 q 384 630 411 625 l 384 683 q 576 586 499 674 q 662 332 662 488 q 578 79 662 176 q 384 -18 500 -9 l 384 35 m 134 836 q 134 851 134 836 q 157 886 134 867 q 206 905 180 905 q 246 900 231 905 q 272 886 261 895 q 296 843 296 866 q 289 808 296 821 q 272 785 283 795 q 215 766 249 766 q 157 785 180 766 q 134 836 134 804 m 419 836 q 419 851 419 836 q 442 886 419 867 q 499 905 465 905 q 557 886 534 905 q 580 836 580 867 q 557 785 580 804 q 499 766 534 766 q 442 785 465 766 q 419 836 419 804 z "},"÷":{"ha":966,"x_min":97,"x_max":868,"o":"m 97 286 l 97 379 l 868 379 l 868 286 l 97 286 m 411 666 q 418 672 411 666 q 443 685 425 678 q 483 692 461 692 q 522 685 504 692 q 553 666 541 678 q 583 613 583 640 q 575 571 583 587 q 553 543 567 555 q 493 518 525 518 q 443 525 461 518 q 411 543 425 532 q 382 595 382 568 q 390 638 382 623 q 411 666 397 654 m 411 122 q 417 128 411 122 q 442 140 424 134 q 482 147 460 147 q 522 140 503 147 q 553 122 540 134 q 583 69 583 96 q 575 26 583 42 q 553 -1 567 10 q 492 -26 524 -26 q 442 -20 460 -26 q 411 -1 424 -13 q 382 51 382 24 q 390 94 382 78 q 411 122 397 110 z "},"ø":{"ha":714,"x_min":54,"x_max":662,"o":"m 249 96 q 328 36 276 45 l 328 -17 q 207 22 260 -10 l 132 -107 l 66 -107 l 160 57 q 54 332 54 155 q 137 583 54 486 q 328 682 212 671 l 328 629 q 240 551 268 618 q 210 332 210 478 q 224 168 210 227 l 459 578 q 384 630 432 621 l 384 683 q 499 648 444 677 l 565 762 l 633 762 l 547 614 q 662 332 662 515 q 578 79 662 176 q 384 -18 500 -9 l 384 35 q 504 332 504 56 q 486 509 504 442 l 249 96 z "},"ù":{"ha":789,"x_min":40,"x_max":748,"o":"m 366 54 q 466 98 421 54 l 466 20 q 315 -18 405 -18 q 132 85 168 -18 q 119 172 119 121 l 119 557 q 93 606 119 592 q 67 616 81 612 q 40 628 53 620 l 40 669 l 264 669 l 264 160 q 366 54 264 54 m 522 557 q 495 606 522 593 q 468 616 483 612 q 438 628 453 620 l 438 669 l 667 669 l 667 111 q 694 62 667 76 q 721 52 707 56 q 748 40 735 48 l 748 0 l 532 0 l 522 72 l 522 557 m 499 743 l 269 879 q 226 933 226 904 q 256 977 226 962 q 285 981 267 981 q 369 929 314 981 l 564 743 l 499 743 z "},"ú":{"ha":789,"x_min":40,"x_max":748,"o":"m 366 54 q 466 98 421 54 l 466 20 q 315 -18 405 -18 q 132 85 168 -18 q 119 172 119 121 l 119 557 q 93 606 119 592 q 67 616 81 612 q 40 628 53 620 l 40 669 l 264 669 l 264 160 q 366 54 264 54 m 522 557 q 495 606 522 593 q 468 616 483 612 q 438 628 453 620 l 438 669 l 667 669 l 667 111 q 694 62 667 76 q 721 52 707 56 q 748 40 735 48 l 748 0 l 532 0 l 522 72 l 522 557 m 225 743 l 420 929 q 463 965 441 949 q 503 981 484 981 q 532 976 522 981 q 549 964 543 972 q 564 932 564 949 q 520 879 564 905 l 290 743 l 225 743 z "},"û":{"ha":789,"x_min":40,"x_max":748,"o":"m 366 54 q 466 98 421 54 l 466 20 q 315 -18 405 -18 q 132 85 168 -18 q 119 172 119 121 l 119 557 q 93 606 119 592 q 67 616 81 612 q 40 628 53 620 l 40 669 l 264 669 l 264 160 q 366 54 264 54 m 522 557 q 495 606 522 593 q 468 616 483 612 q 438 628 453 620 l 438 669 l 667 669 l 667 111 q 694 62 667 76 q 721 52 707 56 q 748 40 735 48 l 748 0 l 532 0 l 522 72 l 522 557 m 444 977 l 625 743 l 566 743 l 394 897 l 222 743 l 164 743 l 342 977 l 444 977 z "},"ü":{"ha":789,"x_min":40,"x_max":748,"o":"m 366 54 q 466 98 421 54 l 466 20 q 315 -18 405 -18 q 132 85 168 -18 q 119 172 119 121 l 119 557 q 93 606 119 592 q 67 616 81 612 q 40 628 53 620 l 40 669 l 264 669 l 264 160 q 366 54 264 54 m 522 557 q 495 606 522 593 q 468 616 483 612 q 438 628 453 620 l 438 669 l 667 669 l 667 111 q 694 62 667 76 q 721 52 707 56 q 748 40 735 48 l 748 0 l 532 0 l 522 72 l 522 557 m 172 836 q 172 851 172 836 q 195 886 172 867 q 243 905 218 905 q 283 900 269 905 q 309 886 298 895 q 333 843 333 866 q 327 808 333 821 q 309 785 320 795 q 252 766 286 766 q 195 785 218 766 q 172 836 172 804 m 456 836 q 456 851 456 836 q 479 886 456 867 q 537 905 503 905 q 594 886 571 905 q 617 836 617 867 q 594 785 617 804 q 537 766 571 766 q 479 785 503 766 q 456 836 456 804 z "},"ý":{"ha":627,"x_min":-26,"x_max":652,"o":"m 380 248 q 422 365 403 311 q 456 459 441 418 q 488 569 488 547 q 481 598 488 591 q 462 608 473 604 q 437 615 451 612 q 412 624 424 618 l 412 665 l 652 665 l 652 624 q 630 614 641 617 q 608 606 618 610 q 574 570 584 595 l 419 159 l 380 248 m 119 -95 q 123 -100 119 -95 q 134 -116 128 -104 q 139 -147 139 -127 q 115 -192 139 -167 q 142 -205 125 -205 q 219 -153 182 -205 q 285 -4 256 -100 l 52 576 q -5 617 41 606 q -26 624 -16 620 l -26 665 l 285 665 l 285 625 q 256 616 271 620 q 231 608 242 612 q 204 582 204 598 q 232 500 204 572 l 233 499 q 313 295 273 397 q 393 92 353 194 l 314 -114 q 118 -279 248 -279 q 0 -210 30 -279 q -9 -154 -9 -188 q 13 -98 -9 -120 q 60 -77 36 -77 q 97 -82 85 -77 q 119 -95 109 -87 m 144 743 l 339 928 q 382 964 361 949 q 422 980 404 980 q 451 976 441 980 q 469 964 462 971 q 483 932 483 949 q 439 878 483 904 l 209 743 l 144 743 z "},"þ":{"ha":744,"x_min":20,"x_max":691,"o":"m 251 -158 q 281 -205 251 -190 q 310 -216 294 -211 q 345 -229 327 -221 l 345 -265 l 22 -265 l 22 -229 q 51 -216 36 -221 q 79 -205 66 -211 q 106 -158 106 -190 l 106 854 q 50 913 106 896 q 20 926 34 918 l 20 968 l 251 968 l 251 -158 m 392 616 q 307 564 342 616 l 307 641 q 424 684 367 684 q 530 656 480 684 q 616 581 580 629 q 691 332 691 479 q 612 75 691 169 q 404 -18 533 -18 q 307 2 352 -18 l 307 64 q 382 40 335 40 q 489 111 450 40 q 528 328 528 181 q 445 602 528 553 q 392 616 420 616 z "},"ÿ":{"ha":627,"x_min":-26,"x_max":652,"o":"m 380 248 q 422 365 403 311 q 456 459 441 418 q 488 569 488 547 q 481 598 488 591 q 462 608 473 604 q 437 615 451 612 q 412 624 424 618 l 412 665 l 652 665 l 652 624 q 630 614 641 617 q 608 606 618 610 q 574 570 584 595 l 419 159 l 380 248 m 119 -95 q 123 -100 119 -95 q 134 -116 128 -104 q 139 -147 139 -127 q 115 -192 139 -167 q 142 -205 125 -205 q 219 -153 182 -205 q 285 -4 256 -100 l 52 576 q -5 617 41 606 q -26 624 -16 620 l -26 665 l 285 665 l 285 625 q 256 616 271 620 q 231 608 242 612 q 204 582 204 598 q 232 500 204 572 l 233 499 q 313 295 273 397 q 393 92 353 194 l 314 -114 q 118 -279 248 -279 q 0 -210 30 -279 q -9 -154 -9 -188 q 13 -98 -9 -120 q 60 -77 36 -77 q 97 -82 85 -77 q 119 -95 109 -87 m 91 835 q 91 850 91 835 q 114 885 91 866 q 162 905 137 905 q 203 900 188 905 q 229 886 218 895 q 252 843 252 865 q 246 807 252 820 q 229 785 239 794 q 171 766 205 766 q 114 785 137 766 q 91 835 91 804 m 376 835 q 376 850 376 835 q 399 885 376 866 q 456 905 422 905 q 513 885 490 905 q 536 835 536 866 q 513 785 536 804 q 456 766 490 766 q 399 785 422 766 q 376 835 376 804 z "},"ħ":{"ha":806,"x_min":-63,"x_max":770,"o":"m 471 831 l 471 758 l 335 758 l 335 831 l 471 831 m 73 831 l 73 758 l -63 758 l -63 831 l 73 831 m 279 107 q 307 61 279 75 q 335 49 319 54 q 364 36 350 44 l 364 0 l 48 0 l 48 36 q 78 49 63 44 q 106 61 94 54 q 134 107 134 75 l 134 856 q 106 905 134 892 q 79 915 94 911 q 47 926 63 918 l 47 968 l 279 968 l 279 107 m 437 611 q 335 569 381 611 l 335 643 q 473 684 395 684 q 623 635 564 684 q 686 492 686 582 l 686 107 q 714 61 686 76 q 741 49 726 54 q 770 36 756 44 l 770 0 l 507 0 l 507 49 q 513 67 507 61 q 524 80 518 74 q 541 119 541 98 l 541 494 q 437 611 541 611 z "},"Ĩ":{"ha":492,"x_min":5,"x_max":487,"o":"m 427 964 l 427 924 q 390 911 408 916 q 359 899 372 906 q 330 839 330 882 l 330 125 q 359 65 330 81 q 391 53 373 58 q 429 40 408 48 l 429 0 l 63 0 l 63 40 q 100 53 83 48 q 132 65 118 58 q 161 125 161 81 l 161 839 q 132 899 161 882 q 100 911 118 906 q 63 924 83 916 l 63 964 l 427 964 m 487 1235 q 334 1088 446 1088 q 247 1111 294 1088 q 175 1144 199 1133 q 130 1154 151 1154 q 96 1148 109 1154 q 74 1132 83 1142 q 49 1085 60 1117 l 5 1085 q 61 1193 20 1157 q 157 1228 101 1228 q 243 1205 195 1228 q 315 1172 292 1182 q 358 1161 338 1161 q 390 1167 377 1161 q 412 1182 403 1173 q 443 1235 423 1194 l 487 1235 z "},"ĩ":{"ha":431,"x_min":-24,"x_max":458,"o":"m 296 673 l 296 107 q 324 61 296 75 q 352 49 337 54 q 381 36 367 44 l 381 0 l 66 0 l 66 36 q 95 49 80 44 q 123 61 111 54 q 152 107 152 75 l 152 561 q 125 610 152 597 q 97 620 113 616 q 66 632 81 624 l 66 673 l 296 673 m 458 926 q 304 779 416 779 q 218 802 265 779 q 146 835 170 825 q 101 846 122 846 q 67 840 80 846 q 45 823 54 833 q 20 777 31 808 l -24 777 q 32 884 -9 848 q 127 920 72 920 q 214 897 166 920 q 286 863 262 873 q 329 852 309 852 q 361 858 348 852 q 383 873 374 864 q 414 926 394 885 l 458 926 z "},"ı":{"ha":431,"x_min":66,"x_max":381,"o":"m 296 673 l 296 107 q 324 61 296 75 q 352 49 337 54 q 381 36 367 44 l 381 0 l 66 0 l 66 36 q 95 49 80 44 q 123 61 111 54 q 152 107 152 75 l 152 561 q 125 610 152 597 q 97 620 113 616 q 66 632 81 624 l 66 673 l 296 673 z "},"Ĳ":{"ha":1147,"x_min":63,"x_max":1094,"o":"m 427 964 l 427 924 q 390 911 408 916 q 359 899 372 906 q 330 839 330 882 l 330 125 q 359 65 330 81 q 391 53 373 58 q 429 40 408 48 l 429 0 l 63 0 l 63 40 q 100 53 83 48 q 132 65 118 58 q 161 125 161 81 l 161 839 q 132 899 161 882 q 100 911 118 906 q 63 924 83 916 l 63 964 l 427 964 m 711 -20 q 557 33 613 -16 q 506 140 506 77 q 533 232 506 203 q 601 260 559 260 q 666 237 643 260 q 688 184 688 214 q 682 141 688 155 q 667 119 676 127 q 624 97 656 110 q 648 53 625 71 q 711 31 671 35 l 711 -20 m 830 843 q 795 899 830 884 q 760 911 779 906 q 720 924 740 916 l 720 964 l 1094 964 l 1094 924 q 1060 911 1076 916 q 1030 899 1043 906 q 1000 843 1000 884 l 1000 237 q 942 51 1000 113 q 767 -20 884 -12 l 767 35 q 817 75 802 45 q 831 161 831 105 l 830 843 z "},"ĳ":{"ha":803,"x_min":66,"x_max":705,"o":"m 296 673 l 296 107 q 324 61 296 75 q 352 49 337 54 q 381 36 367 44 l 381 0 l 66 0 l 66 36 q 95 49 80 44 q 123 61 111 54 q 152 107 152 75 l 152 561 q 125 610 152 597 q 97 620 113 616 q 66 632 81 624 l 66 669 l 296 673 m 127 884 q 127 903 127 884 q 152 947 127 923 q 207 971 177 971 q 253 965 236 971 q 281 947 269 958 q 307 884 307 922 q 281 821 307 846 q 217 798 256 798 q 152 821 177 798 q 127 884 127 845 m 499 -282 q 487 -283 493 -283 l 475 -283 q 330 -214 366 -283 q 319 -162 319 -193 q 340 -111 319 -131 q 389 -90 361 -90 q 430 -97 416 -90 q 453 -115 444 -104 q 468 -158 468 -136 q 451 -204 468 -204 q 490 -220 458 -220 l 499 -220 l 499 -282 m 555 555 q 525 605 555 588 q 495 617 511 612 q 465 632 479 623 l 465 673 l 701 673 l 701 7 q 626 -236 701 -170 q 555 -273 598 -261 l 555 555 m 614 971 q 679 947 654 971 q 705 884 705 923 q 679 821 705 845 q 614 798 654 798 q 550 821 575 798 q 525 884 525 845 q 550 947 525 923 q 614 971 575 971 z "},"Ĵ":{"ha":655,"x_min":14,"x_max":646,"o":"m 465 1300 l 646 1067 l 587 1067 l 415 1221 l 243 1067 l 185 1067 l 363 1300 l 465 1300 m 219 -20 q 65 33 121 -16 q 14 140 14 77 q 41 232 14 203 q 110 260 68 260 q 174 237 151 260 q 197 184 197 214 q 191 141 197 155 q 175 119 184 127 q 132 97 165 110 q 157 53 134 71 q 219 31 180 35 l 219 -20 m 338 843 q 303 899 338 884 q 268 911 288 906 q 229 924 248 916 l 229 964 l 602 964 l 602 924 q 568 911 585 916 q 538 899 551 906 q 509 843 509 884 l 509 237 q 450 51 509 113 q 275 -20 392 -12 l 275 35 q 325 75 311 45 q 339 161 339 105 l 338 843 z "},"ĵ":{"ha":372,"x_min":-113,"x_max":382,"o":"m 201 999 l 382 766 l 323 766 l 151 920 l -21 766 l -79 766 l 100 999 l 201 999 m 68 -282 q 56 -283 62 -283 l 44 -283 q -102 -214 -65 -283 q -113 -162 -113 -193 q -91 -111 -113 -131 q -42 -90 -70 -90 q -1 -97 -15 -90 q 22 -115 13 -104 q 37 -158 37 -136 q 20 -204 37 -204 q 58 -220 26 -220 l 68 -220 l 68 -282 m 124 555 q 94 605 124 588 q 64 617 80 612 q 34 632 48 623 l 34 673 l 269 673 l 269 7 q 195 -236 269 -170 q 124 -273 167 -261 l 124 555 z "},"ķ":{"ha":730,"x_min":35,"x_max":741,"o":"m 266 136 q 293 61 266 74 q 311 54 301 58 q 351 36 338 45 l 351 0 l 35 0 l 35 36 q 66 52 50 48 q 94 61 81 55 q 121 136 121 76 l 121 825 q 95 904 121 893 q 77 910 87 907 q 35 926 47 917 l 35 968 l 266 968 l 266 136 m 322 406 l 443 518 q 490 582 490 562 q 435 613 490 602 q 408 623 420 616 l 408 665 l 709 665 l 709 625 q 675 610 693 618 q 633 589 656 602 q 518 498 579 557 l 441 424 l 644 94 q 683 58 662 64 q 715 48 703 51 q 741 37 728 45 l 741 0 l 443 0 l 443 36 q 477 83 476 52 q 473 100 477 92 l 322 365 l 322 406 m 279 -519 q 327 -452 307 -487 q 347 -387 347 -418 q 330 -292 347 -335 q 286 -264 304 -285 q 267 -207 267 -244 q 291 -145 267 -170 q 346 -121 314 -121 q 397 -129 378 -121 q 431 -155 416 -137 q 463 -264 463 -192 q 336 -548 463 -413 l 279 -519 z "},"Ŀ":{"ha":774,"x_min":61,"x_max":743,"o":"m 61 0 l 61 40 q 88 52 73 48 q 115 60 102 55 q 151 97 147 70 q 156 167 156 124 l 156 798 q 138 891 156 877 q 99 909 124 903 q 61 924 73 916 l 61 964 l 425 964 l 425 924 q 395 912 410 916 q 366 903 379 908 q 330 867 334 892 q 326 799 326 840 l 326 0 l 61 0 m 382 56 q 403 56 392 56 l 425 56 q 609 136 553 56 q 648 219 634 172 q 669 283 663 267 q 701 345 682 320 l 743 345 l 743 0 l 382 0 l 382 56 m 656 555 q 629 496 656 520 q 575 471 603 471 q 530 478 547 471 q 500 496 513 484 q 473 555 473 520 q 500 616 473 591 q 555 640 527 640 q 630 616 603 640 q 656 555 656 591 z "},"ŀ":{"ha":745,"x_min":37,"x_max":656,"o":"m 269 968 l 269 107 q 297 61 269 75 q 325 49 309 54 q 355 36 340 44 l 355 0 l 39 0 l 39 36 q 68 49 53 44 q 96 61 83 54 q 124 107 124 76 l 124 854 q 95 902 124 886 q 66 913 82 909 q 37 926 51 918 l 37 968 l 269 968 m 656 332 q 629 272 656 296 q 575 248 603 248 q 530 254 547 248 q 500 272 513 260 q 473 332 473 296 q 500 392 473 368 q 555 416 527 416 q 630 392 603 416 q 656 332 656 368 z "},"Ł":{"ha":774,"x_min":13,"x_max":743,"o":"m 13 349 l 13 418 l 106 458 l 106 389 l 13 349 m 61 0 l 61 40 q 88 52 73 48 q 115 60 102 55 q 151 97 147 70 q 156 167 156 124 l 156 798 q 138 891 156 877 q 99 909 124 903 q 61 924 73 916 l 61 964 l 425 964 l 425 924 q 395 912 410 916 q 366 903 379 908 q 330 867 334 892 q 326 799 326 840 l 326 0 l 61 0 m 382 56 q 403 56 392 56 l 425 56 q 609 136 553 56 q 648 219 634 172 q 669 283 663 267 q 701 345 682 320 l 743 345 l 743 0 l 382 0 l 382 56 m 382 509 l 382 578 l 595 671 l 595 602 l 382 509 z "},"ł":{"ha":387,"x_min":-16,"x_max":413,"o":"m -16 383 l -16 443 l 81 486 l 81 427 l -16 383 m 269 968 l 269 107 q 297 61 269 75 q 325 49 309 54 q 355 36 340 44 l 355 0 l 39 0 l 39 36 q 68 49 53 44 q 96 61 83 54 q 124 107 124 76 l 124 854 q 95 902 124 886 q 66 913 82 909 q 37 926 51 918 l 37 968 l 269 968 m 317 532 l 317 591 l 413 634 l 413 574 l 317 532 z "},"Ń":{"ha":969,"x_min":37,"x_max":926,"o":"m 747 361 l 747 839 q 713 895 747 876 q 679 910 698 903 q 642 925 661 917 l 642 965 l 926 965 l 926 925 q 891 910 909 917 q 859 895 873 903 q 825 839 825 876 l 825 239 l 747 361 m 221 720 l 221 126 q 256 71 221 89 q 293 55 272 62 q 335 40 313 48 l 335 0 l 37 0 l 37 40 q 75 55 56 48 q 109 71 94 62 q 143 126 143 90 l 143 822 l 221 720 m 224 804 q 79 911 151 890 q 41 924 60 918 l 41 964 l 306 964 l 825 143 l 825 -5 l 725 -5 l 224 804 m 315 1052 l 510 1238 q 553 1274 532 1258 q 593 1289 574 1289 q 622 1285 612 1289 q 640 1273 633 1280 q 654 1241 654 1258 q 610 1187 654 1213 l 380 1052 l 315 1052 z "},"ń":{"ha":806,"x_min":47,"x_max":770,"o":"m 438 611 q 335 567 382 611 l 335 641 q 475 684 395 684 q 627 635 569 684 q 686 492 686 584 l 686 135 q 712 60 686 71 q 730 54 720 56 q 770 36 755 47 l 770 0 l 507 0 l 507 46 q 519 70 507 59 q 536 89 530 81 q 541 111 541 96 l 541 498 q 438 611 541 611 m 279 138 q 306 61 279 74 q 323 54 314 58 q 364 36 351 45 l 364 0 l 48 0 l 48 36 q 79 52 60 45 q 106 61 98 58 q 121 73 115 64 q 134 136 134 91 l 134 528 q 107 606 134 595 q 90 612 99 609 q 47 628 60 618 l 47 669 l 279 669 l 279 138 m 233 743 l 428 929 q 471 965 450 949 q 511 981 492 981 q 540 976 530 981 q 557 964 551 972 q 572 932 572 949 q 528 879 572 905 l 298 743 l 233 743 z "},"Œ":{"ha":1385,"x_min":54,"x_max":1331,"o":"m 481 46 q 629 92 578 46 l 629 -4 q 503 -9 540 -9 q 176 134 302 -9 q 54 482 54 273 q 174 827 54 686 q 492 974 297 974 q 533 972 512 974 q 576 970 555 971 l 629 967 l 629 889 q 481 918 576 918 q 296 810 354 918 q 239 482 239 703 q 372 73 239 149 q 481 46 418 46 m 685 965 q 743 964 716 964 l 854 964 l 854 0 l 752 0 q 685 -1 719 0 l 685 965 m 910 58 q 974 56 929 56 q 1065 63 1018 56 q 1145 87 1112 70 q 1235 212 1206 120 q 1246 252 1242 233 q 1256 286 1251 270 q 1286 339 1267 319 l 1331 339 l 1331 0 l 910 0 l 910 58 m 1132 876 q 1120 884 1132 876 q 1072 900 1108 892 q 982 908 1035 908 q 910 905 929 908 l 910 964 l 1156 964 q 1300 974 1184 964 l 1300 642 l 1253 642 q 1208 734 1228 667 q 1172 831 1188 803 q 1132 876 1156 860 m 910 574 l 1108 574 l 1108 446 l 910 446 l 910 574 z "},"œ":{"ha":1162,"x_min":61,"x_max":1112,"o":"m 336 -16 q 145 83 220 -3 q 61 332 61 180 q 145 582 61 485 q 336 682 220 669 l 336 629 q 219 332 219 607 q 286 60 219 118 q 336 36 308 41 l 336 -16 m 878 43 q 1031 155 987 54 q 1054 215 1044 184 l 1112 193 q 967 7 1076 58 q 878 -16 928 -12 l 878 43 m 729 404 l 943 404 q 919 562 943 509 q 844 625 895 615 l 844 682 q 1041 576 972 671 q 1106 345 1106 486 l 729 345 l 729 404 m 788 625 q 673 378 673 601 q 832 43 673 66 l 832 -18 q 699 15 759 -16 q 601 96 639 45 q 393 -17 519 -5 l 393 35 q 510 332 510 55 q 442 606 510 549 q 393 629 420 624 l 393 682 q 593 579 511 671 q 788 682 665 671 l 788 625 z "},"Ŕ":{"ha":909,"x_min":61,"x_max":893,"o":"m 407 964 q 805 724 805 964 q 733 561 805 626 q 528 488 658 493 l 528 485 q 637 414 599 468 q 682 323 658 385 q 721 225 707 261 q 749 159 735 189 q 806 94 781 94 q 823 103 816 94 q 838 123 831 112 q 876 153 859 153 q 886 149 878 153 q 893 134 893 145 q 888 111 893 123 q 830 31 850 50 q 737 -11 788 -11 q 655 5 686 -11 q 605 49 625 22 q 572 113 585 77 q 550 188 559 149 q 530 267 540 227 q 507 343 521 307 q 416 452 474 424 q 382 468 402 460 l 382 524 q 614 631 574 524 q 628 720 628 669 q 574 862 628 811 q 410 913 521 913 q 382 911 391 913 l 382 964 l 407 964 m 326 161 q 328 98 326 117 q 341 72 331 80 q 364 59 351 64 q 393 52 378 55 q 420 40 408 48 l 420 0 l 61 0 l 61 40 q 85 52 71 48 q 114 60 100 55 q 152 98 148 70 q 156 163 156 126 l 156 802 q 138 891 156 877 q 99 909 124 903 q 61 924 73 916 l 61 964 l 326 964 l 326 161 m 286 1052 l 480 1238 q 523 1274 502 1258 q 563 1289 545 1289 q 592 1285 582 1289 q 610 1273 603 1280 q 624 1241 624 1258 q 581 1187 624 1213 l 350 1052 l 286 1052 z "},"Ŗ":{"ha":909,"x_min":61,"x_max":893,"o":"m 407 964 q 805 724 805 964 q 733 561 805 626 q 528 488 658 493 l 528 485 q 637 414 599 468 q 682 323 658 385 q 721 225 707 261 q 749 159 735 189 q 806 94 781 94 q 823 103 816 94 q 838 123 831 112 q 876 153 859 153 q 886 149 878 153 q 893 134 893 145 q 888 111 893 123 q 830 31 850 50 q 737 -11 788 -11 q 655 5 686 -11 q 605 49 625 22 q 572 113 585 77 q 550 188 559 149 q 530 267 540 227 q 507 343 521 307 q 416 452 474 424 q 382 468 402 460 l 382 524 q 614 631 574 524 q 628 720 628 669 q 574 862 628 811 q 410 913 521 913 q 382 911 391 913 l 382 964 l 407 964 m 326 161 q 328 98 326 117 q 341 72 331 80 q 364 59 351 64 q 393 52 378 55 q 420 40 408 48 l 420 0 l 61 0 l 61 40 q 85 52 71 48 q 114 60 100 55 q 152 98 148 70 q 156 163 156 126 l 156 802 q 138 891 156 877 q 99 909 124 903 q 61 924 73 916 l 61 964 l 326 964 l 326 161 m 389 -519 q 436 -452 416 -487 q 456 -387 456 -418 q 439 -292 456 -335 q 395 -264 413 -285 q 376 -207 376 -244 q 400 -145 376 -170 q 455 -121 423 -121 q 506 -129 487 -121 q 541 -155 526 -137 q 572 -264 572 -192 q 445 -548 572 -413 l 389 -519 z "},"ŗ":{"ha":551,"x_min":47,"x_max":552,"o":"m 275 509 l 275 134 q 305 61 275 73 q 326 54 315 57 q 376 36 361 44 l 376 0 l 50 0 l 50 36 q 77 49 62 44 q 103 61 91 54 q 131 107 131 75 l 131 500 q 118 590 131 578 q 94 608 106 602 q 69 617 82 613 q 47 628 56 621 l 47 669 l 267 669 l 275 509 m 483 487 q 468 487 483 487 q 436 501 453 487 q 419 536 419 515 q 437 578 419 557 q 421 582 431 582 q 332 517 375 581 l 332 621 q 446 684 382 684 q 544 620 519 684 q 552 567 552 600 q 532 510 552 534 q 483 487 513 487 m 190 -519 q 237 -452 218 -487 q 257 -387 257 -418 q 241 -292 257 -335 q 196 -264 214 -285 q 178 -207 178 -244 q 201 -145 178 -170 q 256 -121 224 -121 q 308 -129 288 -121 q 342 -155 327 -137 q 373 -264 373 -192 q 246 -548 373 -413 l 190 -519 z "},"Ř":{"ha":909,"x_min":61,"x_max":893,"o":"m 407 964 q 805 724 805 964 q 733 561 805 626 q 528 488 658 493 l 528 485 q 637 414 599 468 q 682 323 658 385 q 721 225 707 261 q 749 159 735 189 q 806 94 781 94 q 823 103 816 94 q 838 123 831 112 q 876 153 859 153 q 886 149 878 153 q 893 134 893 145 q 888 111 893 123 q 830 31 850 50 q 737 -11 788 -11 q 655 5 686 -11 q 605 49 625 22 q 572 113 585 77 q 550 188 559 149 q 530 267 540 227 q 507 343 521 307 q 416 452 474 424 q 382 468 402 460 l 382 524 q 614 631 574 524 q 628 720 628 669 q 574 862 628 811 q 410 913 521 913 q 382 911 391 913 l 382 964 l 407 964 m 326 161 q 328 98 326 117 q 341 72 331 80 q 364 59 351 64 q 393 52 378 55 q 420 40 408 48 l 420 0 l 61 0 l 61 40 q 85 52 71 48 q 114 60 100 55 q 152 98 148 70 q 156 163 156 126 l 156 802 q 138 891 156 877 q 99 909 124 903 q 61 924 73 916 l 61 964 l 326 964 l 326 161 m 403 1052 l 224 1285 l 282 1285 l 454 1131 l 627 1285 l 685 1285 l 505 1052 l 403 1052 z "},"ř":{"ha":551,"x_min":45,"x_max":552,"o":"m 275 509 l 275 134 q 305 61 275 73 q 326 54 315 57 q 376 36 361 44 l 376 0 l 50 0 l 50 36 q 77 49 62 44 q 103 61 91 54 q 131 107 131 75 l 131 500 q 118 590 131 578 q 94 608 106 602 q 69 617 82 613 q 47 628 56 621 l 47 669 l 267 669 l 275 509 m 483 487 q 468 487 483 487 q 436 501 453 487 q 419 536 419 515 q 437 578 419 557 q 421 582 431 582 q 332 517 375 581 l 332 621 q 446 684 382 684 q 544 620 519 684 q 552 567 552 600 q 532 510 552 534 q 483 487 513 487 m 223 743 l 45 977 l 102 977 l 275 822 l 448 977 l 505 977 l 325 743 l 223 743 z "},"Š":{"ha":789,"x_min":73,"x_max":725,"o":"m 401 983 q 487 960 452 978 q 536 934 523 941 q 558 926 549 926 q 574 930 568 926 q 585 940 580 935 q 593 952 589 945 q 600 964 596 958 l 662 964 l 662 646 l 613 646 q 579 714 598 661 q 547 798 560 766 q 514 856 534 829 q 401 927 471 916 l 401 983 m 264 4 q 244 13 264 4 q 208 30 224 22 q 174 37 191 37 q 136 0 157 37 l 73 0 l 73 335 l 119 335 q 146 292 134 319 q 171 234 158 265 q 200 169 184 202 q 238 107 216 136 q 366 36 288 44 l 366 -20 q 264 4 304 -14 m 422 37 q 535 96 495 45 q 570 200 570 142 q 549 295 570 259 q 494 358 528 330 q 416 408 460 385 q 326 452 372 430 q 236 498 280 474 q 159 553 193 522 q 82 725 82 624 q 152 900 82 827 q 345 984 227 976 l 345 928 q 232 842 261 917 q 222 781 222 817 q 244 712 222 744 q 301 655 266 680 q 381 609 336 630 q 474 566 427 588 q 566 519 521 545 q 646 461 611 494 q 725 279 725 386 q 642 79 725 164 q 422 -20 554 -12 l 422 37 m 342 1046 l 164 1279 l 222 1279 l 394 1124 l 567 1279 l 625 1279 l 444 1046 l 342 1046 z "},"š":{"ha":610,"x_min":56,"x_max":567,"o":"m 321 36 q 402 74 372 43 q 433 144 433 104 q 417 206 433 184 q 375 244 401 228 q 316 272 349 260 q 248 297 283 285 q 180 326 214 310 q 121 363 147 341 q 63 489 63 411 q 116 613 63 559 q 272 683 176 675 l 272 629 q 209 597 233 622 q 186 538 186 572 q 202 484 186 504 q 245 449 218 464 q 306 423 272 435 q 376 398 340 411 q 447 369 412 385 q 507 329 481 353 q 567 192 567 276 q 511 60 567 118 q 321 -18 445 -10 l 321 36 m 367 524 q 404 589 367 574 q 328 631 383 626 l 328 683 q 477 633 418 676 q 536 530 536 591 q 514 473 536 494 q 452 452 491 452 q 390 471 413 452 q 367 524 367 491 m 226 142 q 189 77 226 91 q 264 34 210 39 l 264 -18 q 115 32 177 -12 q 56 135 56 75 q 79 193 56 172 q 141 214 102 214 q 203 194 180 214 q 226 142 226 174 m 253 743 l 75 977 l 132 977 l 304 822 l 477 977 l 535 977 l 355 743 l 253 743 z "},"Ÿ":{"ha":805,"x_min":-21,"x_max":834,"o":"m 481 537 q 622 818 612 793 q 633 864 633 848 q 625 888 633 879 q 603 902 616 897 q 573 911 589 907 q 543 921 557 915 l 543 964 l 834 964 l 834 921 q 796 904 823 913 q 756 889 769 896 q 726 856 744 883 q 680 779 707 828 q 627 677 653 730 q 574 571 600 625 q 522 465 548 517 l 481 537 m 493 409 l 486 399 l 486 157 q 523 65 486 80 q 546 58 534 61 q 596 40 583 49 l 596 0 l 208 0 l 208 40 q 247 55 222 50 q 281 65 271 60 q 300 80 292 69 q 317 160 317 102 l 317 401 l 81 852 q 5 909 62 890 q -21 921 -8 914 l -21 964 l 358 964 l 358 921 q 325 911 342 914 q 296 903 309 907 q 266 869 266 893 q 287 811 266 852 q 329 729 308 770 q 380 629 349 689 q 454 485 411 570 l 493 409 m 180 1138 q 180 1154 180 1138 q 203 1188 180 1169 q 251 1208 226 1208 q 292 1203 277 1208 q 317 1188 307 1198 q 341 1146 341 1168 q 335 1110 341 1123 q 317 1088 328 1097 q 260 1069 294 1069 q 203 1088 226 1069 q 180 1138 180 1107 m 465 1138 q 465 1154 465 1138 q 488 1188 465 1169 q 545 1208 511 1208 q 602 1188 579 1208 q 625 1138 625 1169 q 602 1088 625 1107 q 545 1069 579 1069 q 488 1088 511 1069 q 465 1138 465 1107 z "},"Ž":{"ha":789,"x_min":40,"x_max":742,"o":"m 294 60 q 453 70 387 60 q 550 96 520 79 q 600 136 581 113 q 631 187 620 159 q 652 243 643 215 q 694 346 678 323 l 742 346 l 742 0 l 260 0 l 294 60 m 83 974 q 192 964 129 964 l 511 964 l 477 904 q 271 879 326 904 q 187 798 212 852 q 157 720 172 766 q 129 656 142 674 l 83 656 l 83 974 m 572 964 l 730 964 l 730 913 l 193 0 l 40 0 l 40 62 l 572 964 m 342 1046 l 164 1279 l 222 1279 l 394 1124 l 567 1279 l 625 1279 l 444 1046 l 342 1046 z "},"ž":{"ha":627,"x_min":41,"x_max":583,"o":"m 267 56 q 309 58 288 57 q 359 60 330 58 q 413 74 388 62 q 455 101 439 85 q 482 136 472 117 q 500 176 492 155 q 538 252 524 234 l 583 252 l 583 0 l 230 0 l 267 56 m 574 609 l 160 1 l 41 1 l 41 64 q 247 366 145 216 q 455 665 349 516 l 574 665 l 574 609 m 351 610 q 281 605 325 609 q 215 590 237 600 q 179 565 193 580 q 157 533 165 551 q 142 499 149 516 q 114 438 125 452 l 69 438 l 69 666 l 391 666 l 351 610 m 261 744 l 83 977 l 140 977 l 313 823 l 486 977 l 543 977 l 363 744 l 261 744 z "},"ƒ":{"ha":714,"x_min":-120,"x_max":737,"o":"m 572 982 q 726 928 688 980 q 737 890 737 912 q 722 849 737 868 q 682 831 707 831 q 646 836 656 831 q 630 849 636 841 q 618 868 623 858 q 608 888 614 878 q 572 926 594 915 l 572 982 m 46 -284 q -102 -235 -53 -281 q -120 -200 -120 -218 q -116 -171 -120 -182 q -103 -151 -111 -159 q -60 -132 -85 -132 q -22 -138 -35 -132 q -1 -153 -9 -144 q 11 -173 7 -161 q 20 -195 16 -184 q 46 -229 30 -221 l 46 -284 m 462 604 l 585 604 l 572 549 l 454 549 l 462 604 m 221 549 l 100 549 l 115 604 l 232 604 l 221 549 m 268 584 q 282 682 268 584 q 356 871 297 780 q 515 979 416 962 l 515 918 q 429 718 452 880 l 355 175 q 247 -181 319 -77 q 102 -280 189 -264 l 102 -226 q 170 -79 153 -190 q 190 59 178 -18 q 214 224 201 136 q 268 584 238 387 z "},"Ȁ":{"ha":850,"x_min":-24,"x_max":874,"o":"m 482 306 l 276 306 l 293 368 l 462 368 l 482 306 m 348 680 l 189 204 q 168 114 168 144 q 178 74 169 83 q 201 60 186 64 q 233 54 215 56 q 271 41 252 51 l 271 0 l -24 0 l -24 41 q 5 54 -10 50 q 35 65 21 59 q 78 110 68 80 l 307 790 l 348 680 m 331 859 q 281 885 294 872 q 285 912 283 899 q 290 937 288 924 q 295 958 292 949 q 444 985 424 985 q 471 942 458 973 l 768 121 q 813 65 783 80 q 842 54 827 58 q 874 41 857 50 l 874 0 l 507 0 l 507 41 q 540 52 523 49 q 571 58 557 55 q 602 89 602 66 q 570 199 602 109 q 512 358 537 288 q 375 750 442 554 l 331 859 m 369 1242 q 421 1289 369 1289 q 532 1238 477 1289 l 722 1052 l 632 1052 l 410 1188 q 369 1242 369 1213 m 127 1242 q 180 1289 127 1289 q 291 1238 235 1289 l 481 1052 l 391 1052 l 169 1188 q 127 1242 127 1213 z "},"ȁ":{"ha":715,"x_min":41,"x_max":713,"o":"m 388 346 q 206 154 206 280 q 231 72 206 103 q 303 41 255 41 q 388 77 352 41 l 388 13 q 270 -18 336 -18 q 164 -5 204 -18 q 98 30 125 7 q 41 150 41 75 q 315 382 41 304 q 388 403 353 394 l 388 346 m 227 589 q 264 524 264 574 q 241 471 264 491 q 179 452 218 452 q 118 473 140 452 q 95 527 95 494 q 111 587 95 560 q 155 633 126 613 q 303 683 214 676 l 303 631 q 227 589 248 626 m 631 67 q 678 135 668 67 l 713 117 q 676 16 706 51 q 583 -18 647 -18 q 508 0 532 -18 q 444 90 469 30 l 444 513 q 422 586 444 555 q 359 627 400 616 l 359 683 q 589 440 589 671 l 589 119 q 631 67 589 67 m 301 933 q 353 980 301 980 q 465 930 409 980 l 654 743 l 564 743 l 342 880 q 301 933 301 905 m 60 933 q 112 980 60 980 q 223 930 168 980 l 413 743 l 323 743 l 101 880 q 60 933 60 905 z "},"Ȃ":{"ha":850,"x_min":-24,"x_max":874,"o":"m 482 306 l 276 306 l 293 368 l 462 368 l 482 306 m 348 680 l 189 204 q 168 114 168 144 q 178 74 169 83 q 201 60 186 64 q 233 54 215 56 q 271 41 252 51 l 271 0 l -24 0 l -24 41 q 5 54 -10 50 q 35 65 21 59 q 78 110 68 80 l 307 790 l 348 680 m 331 859 q 281 885 294 872 q 285 912 283 899 q 290 937 288 924 q 295 958 292 949 q 444 985 424 985 q 471 942 458 973 l 768 121 q 813 65 783 80 q 842 54 827 58 q 874 41 857 50 l 874 0 l 507 0 l 507 41 q 540 52 523 49 q 571 58 557 55 q 602 89 602 66 q 570 199 602 109 q 512 358 537 288 q 375 750 442 554 l 331 859 m 581 1052 q 423 1177 554 1177 q 315 1143 353 1177 q 269 1052 277 1109 l 224 1052 q 280 1207 229 1156 q 418 1259 332 1259 q 572 1195 514 1259 q 626 1052 625 1137 l 581 1052 z "},"ȃ":{"ha":715,"x_min":41,"x_max":713,"o":"m 388 346 q 206 154 206 280 q 231 72 206 103 q 303 41 255 41 q 388 77 352 41 l 388 13 q 270 -18 336 -18 q 164 -5 204 -18 q 98 30 125 7 q 41 150 41 75 q 315 382 41 304 q 388 403 353 394 l 388 346 m 227 589 q 264 524 264 574 q 241 471 264 491 q 179 452 218 452 q 118 473 140 452 q 95 527 95 494 q 111 587 95 560 q 155 633 126 613 q 303 683 214 676 l 303 631 q 227 589 248 626 m 631 67 q 678 135 668 67 l 713 117 q 676 16 706 51 q 583 -18 647 -18 q 508 0 532 -18 q 444 90 469 30 l 444 513 q 422 586 444 555 q 359 627 400 616 l 359 683 q 589 440 589 671 l 589 119 q 631 67 589 67 m 513 743 q 355 868 486 868 q 248 834 286 868 q 201 743 210 801 l 156 743 q 213 899 161 847 q 351 950 264 950 q 504 886 446 950 q 558 743 557 828 l 513 743 z "},"Ȅ":{"ha":850,"x_min":57,"x_max":794,"o":"m 57 0 l 57 40 q 94 56 73 50 q 123 66 115 61 q 138 81 132 71 q 152 158 152 102 l 152 804 q 142 877 152 861 q 124 897 132 892 q 104 905 115 901 q 57 924 71 914 l 57 964 l 321 964 l 321 0 l 57 0 m 377 56 l 390 55 q 606 87 543 55 q 701 221 673 121 q 712 259 707 242 q 722 291 716 277 q 750 339 732 321 l 794 339 l 794 0 l 377 0 l 377 56 m 628 964 q 764 974 670 964 l 764 642 l 716 642 q 680 710 692 672 q 653 784 667 748 q 626 842 640 820 q 592 878 612 863 q 482 908 551 908 q 377 898 412 908 l 377 964 l 628 964 m 377 574 l 575 574 l 575 446 l 377 446 l 377 574 m 369 1242 q 421 1289 369 1289 q 532 1238 477 1289 l 722 1052 l 632 1052 l 410 1188 q 369 1242 369 1213 m 127 1242 q 180 1289 127 1289 q 291 1238 235 1289 l 481 1052 l 391 1052 l 169 1188 q 127 1242 127 1213 z "},"ȅ":{"ha":712,"x_min":48,"x_max":653,"o":"m 488 404 q 391 624 488 600 l 391 682 q 586 576 517 671 q 650 345 650 487 l 267 345 l 267 404 l 488 404 m 393 41 q 561 153 511 47 q 585 215 575 183 l 644 193 q 488 3 606 52 q 393 -18 447 -14 l 393 41 m 210 375 q 337 47 210 83 l 337 -16 q 126 95 204 -1 q 48 332 48 189 q 126 578 48 481 q 334 683 205 675 l 334 627 q 210 375 210 612 m 300 933 q 352 980 300 980 q 463 930 408 980 l 653 743 l 563 743 l 341 880 q 300 933 300 905 m 58 933 q 111 980 58 980 q 222 930 166 980 l 412 743 l 321 743 l 100 880 q 58 933 58 905 z "},"Ȇ":{"ha":850,"x_min":57,"x_max":794,"o":"m 57 0 l 57 40 q 94 56 73 50 q 123 66 115 61 q 138 81 132 71 q 152 158 152 102 l 152 804 q 142 877 152 861 q 124 897 132 892 q 104 905 115 901 q 57 924 71 914 l 57 964 l 321 964 l 321 0 l 57 0 m 377 56 l 390 55 q 606 87 543 55 q 701 221 673 121 q 712 259 707 242 q 722 291 716 277 q 750 339 732 321 l 794 339 l 794 0 l 377 0 l 377 56 m 628 964 q 764 974 670 964 l 764 642 l 716 642 q 680 710 692 672 q 653 784 667 748 q 626 842 640 820 q 592 878 612 863 q 482 908 551 908 q 377 898 412 908 l 377 964 l 628 964 m 377 574 l 575 574 l 575 446 l 377 446 l 377 574 m 581 1052 q 423 1177 554 1177 q 315 1143 353 1177 q 269 1052 277 1109 l 224 1052 q 280 1207 229 1156 q 418 1259 332 1259 q 572 1195 514 1259 q 626 1052 625 1137 l 581 1052 z "},"ȇ":{"ha":712,"x_min":48,"x_max":650,"o":"m 488 404 q 391 624 488 600 l 391 682 q 586 576 517 671 q 650 345 650 487 l 267 345 l 267 404 l 488 404 m 393 41 q 561 153 511 47 q 585 215 575 183 l 644 193 q 488 3 606 52 q 393 -18 447 -14 l 393 41 m 210 375 q 337 47 210 83 l 337 -16 q 126 95 204 -1 q 48 332 48 189 q 126 578 48 481 q 334 683 205 675 l 334 627 q 210 375 210 612 m 512 743 q 354 868 485 868 q 246 834 284 868 q 200 743 208 801 l 155 743 q 211 899 160 847 q 349 950 262 950 q 503 886 445 950 q 557 743 555 828 l 512 743 z "},"Ȉ":{"ha":492,"x_min":-52,"x_max":543,"o":"m 427 964 l 427 924 q 390 911 408 916 q 359 899 372 906 q 330 839 330 882 l 330 125 q 359 65 330 81 q 391 53 373 58 q 429 40 408 48 l 429 0 l 63 0 l 63 40 q 100 53 83 48 q 132 65 118 58 q 161 125 161 81 l 161 839 q 132 899 161 882 q 100 911 118 906 q 63 924 83 916 l 63 964 l 427 964 m 190 1242 q 242 1289 190 1289 q 353 1238 298 1289 l 543 1052 l 453 1052 l 231 1188 q 190 1242 190 1213 m -52 1242 q 1 1289 -52 1289 q 112 1238 56 1289 l 302 1052 l 212 1052 l -10 1188 q -52 1242 -52 1213 z "},"ȉ":{"ha":431,"x_min":-82,"x_max":513,"o":"m 296 673 l 296 107 q 324 61 296 75 q 352 49 337 54 q 381 36 367 44 l 381 0 l 66 0 l 66 36 q 95 49 80 44 q 123 61 111 54 q 152 107 152 75 l 152 561 q 125 610 152 597 q 97 620 113 616 q 66 632 81 624 l 66 673 l 296 673 m 159 933 q 212 980 159 980 q 323 930 267 980 l 513 743 l 422 743 l 201 880 q 159 933 159 905 m -82 933 q -30 980 -82 980 q 81 930 26 980 l 271 743 l 181 743 l -41 880 q -82 933 -82 905 z "},"Ȋ":{"ha":492,"x_min":45,"x_max":447,"o":"m 427 964 l 427 924 q 390 911 408 916 q 359 899 372 906 q 330 839 330 882 l 330 125 q 359 65 330 81 q 391 53 373 58 q 429 40 408 48 l 429 0 l 63 0 l 63 40 q 100 53 83 48 q 132 65 118 58 q 161 125 161 81 l 161 839 q 132 899 161 882 q 100 911 118 906 q 63 924 83 916 l 63 964 l 427 964 m 402 1052 q 244 1177 375 1177 q 136 1143 174 1177 q 90 1052 98 1109 l 45 1052 q 101 1207 50 1156 q 239 1259 153 1259 q 393 1195 335 1259 q 447 1052 446 1137 l 402 1052 z "},"ȋ":{"ha":431,"x_min":14,"x_max":416,"o":"m 296 673 l 296 107 q 324 61 296 75 q 352 49 337 54 q 381 36 367 44 l 381 0 l 66 0 l 66 36 q 95 49 80 44 q 123 61 111 54 q 152 107 152 75 l 152 561 q 125 610 152 597 q 97 620 113 616 q 66 632 81 624 l 66 669 l 296 673 m 127 884 q 127 903 127 884 q 152 947 127 923 q 207 971 177 971 q 253 965 236 971 q 281 947 269 958 q 307 884 307 922 q 281 821 307 846 q 217 798 256 798 q 152 821 177 798 q 127 884 127 845 m 372 743 q 214 868 345 868 q 106 834 144 868 q 60 743 68 801 l 14 743 q 71 899 20 847 q 209 950 122 950 q 362 886 304 950 q 416 743 415 828 l 372 743 z "},"Ȍ":{"ha":969,"x_min":58,"x_max":909,"o":"m 455 -20 q 168 137 281 -8 q 58 482 58 278 q 168 826 58 685 q 455 983 281 971 l 455 928 q 305 822 355 918 q 249 482 249 712 q 370 65 249 144 q 455 36 408 41 l 455 -20 m 511 36 q 703 278 663 52 q 718 482 718 361 q 596 898 718 819 q 511 928 558 922 l 511 984 q 799 827 686 972 q 909 482 909 686 q 799 137 909 279 q 511 -20 686 -7 l 511 36 m 429 1242 q 481 1289 429 1289 q 592 1238 536 1289 l 782 1052 l 692 1052 l 470 1188 q 429 1242 429 1213 m 187 1242 q 239 1289 187 1289 q 351 1238 295 1289 l 541 1052 l 450 1052 l 229 1188 q 187 1242 187 1213 z "},"ȍ":{"ha":714,"x_min":54,"x_max":662,"o":"m 328 -17 q 137 81 212 -5 q 54 332 54 178 q 137 583 54 486 q 328 682 212 671 l 328 629 q 240 551 268 618 q 210 332 210 478 q 277 60 210 117 q 328 36 299 41 l 328 -17 m 384 35 q 504 332 504 56 q 433 608 504 551 q 384 630 411 625 l 384 683 q 576 586 499 674 q 662 332 662 488 q 578 79 662 176 q 384 -18 500 -9 l 384 35 m 301 933 q 353 980 301 980 q 465 930 409 980 l 654 743 l 564 743 l 342 880 q 301 933 301 905 m 60 933 q 112 980 60 980 q 223 930 168 980 l 413 743 l 323 743 l 101 880 q 60 933 60 905 z "},"Ȏ":{"ha":969,"x_min":58,"x_max":909,"o":"m 455 -20 q 168 137 281 -8 q 58 482 58 278 q 168 826 58 685 q 455 983 281 971 l 455 928 q 305 822 355 918 q 249 482 249 712 q 370 65 249 144 q 455 36 408 41 l 455 -20 m 511 36 q 703 278 663 52 q 718 482 718 361 q 596 898 718 819 q 511 928 558 922 l 511 984 q 799 827 686 972 q 909 482 909 686 q 799 137 909 279 q 511 -20 686 -7 l 511 36 m 641 1052 q 483 1177 614 1177 q 375 1143 413 1177 q 329 1052 337 1109 l 283 1052 q 340 1207 289 1156 q 478 1259 391 1259 q 631 1195 574 1259 q 686 1052 684 1137 l 641 1052 z "},"ȏ":{"ha":714,"x_min":54,"x_max":662,"o":"m 328 -17 q 137 81 212 -5 q 54 332 54 178 q 137 583 54 486 q 328 682 212 671 l 328 629 q 240 551 268 618 q 210 332 210 478 q 277 60 210 117 q 328 36 299 41 l 328 -17 m 384 35 q 504 332 504 56 q 433 608 504 551 q 384 630 411 625 l 384 683 q 576 586 499 674 q 662 332 662 488 q 578 79 662 176 q 384 -18 500 -9 l 384 35 m 513 743 q 355 868 486 868 q 248 834 286 868 q 201 743 210 801 l 156 743 q 213 899 161 847 q 351 950 264 950 q 504 886 446 950 q 558 743 557 828 l 513 743 z "},"Ȑ":{"ha":909,"x_min":61,"x_max":893,"o":"m 407 964 q 805 724 805 964 q 733 561 805 626 q 528 488 658 493 l 528 485 q 637 414 599 468 q 682 323 658 385 q 721 225 707 261 q 749 159 735 189 q 806 94 781 94 q 823 103 816 94 q 838 123 831 112 q 876 153 859 153 q 886 149 878 153 q 893 134 893 145 q 888 111 893 123 q 830 31 850 50 q 737 -11 788 -11 q 655 5 686 -11 q 605 49 625 22 q 572 113 585 77 q 550 188 559 149 q 530 267 540 227 q 507 343 521 307 q 416 452 474 424 q 382 468 402 460 l 382 524 q 614 631 574 524 q 628 720 628 669 q 574 862 628 811 q 410 913 521 913 q 382 911 391 913 l 382 964 l 407 964 m 326 161 q 328 98 326 117 q 341 72 331 80 q 364 59 351 64 q 393 52 378 55 q 420 40 408 48 l 420 0 l 61 0 l 61 40 q 85 52 71 48 q 114 60 100 55 q 152 98 148 70 q 156 163 156 126 l 156 802 q 138 891 156 877 q 99 909 124 903 q 61 924 73 916 l 61 964 l 326 964 l 326 161 m 399 1242 q 451 1289 399 1289 q 562 1238 507 1289 l 752 1052 l 662 1052 l 440 1188 q 399 1242 399 1213 m 157 1242 q 210 1289 157 1289 q 321 1238 265 1289 l 511 1052 l 420 1052 l 199 1188 q 157 1242 157 1213 z "},"ȑ":{"ha":551,"x_min":-22,"x_max":572,"o":"m 275 509 l 275 134 q 305 61 275 73 q 326 54 315 57 q 376 36 361 44 l 376 0 l 50 0 l 50 36 q 77 49 62 44 q 103 61 91 54 q 131 107 131 75 l 131 500 q 118 590 131 578 q 94 608 106 602 q 69 617 82 613 q 47 628 56 621 l 47 669 l 267 669 l 275 509 m 483 487 q 468 487 483 487 q 436 501 453 487 q 419 536 419 515 q 437 578 419 557 q 421 582 431 582 q 332 517 375 581 l 332 621 q 446 684 382 684 q 544 620 519 684 q 552 567 552 600 q 532 510 552 534 q 483 487 513 487 m 219 933 q 271 980 219 980 q 382 930 327 980 l 572 743 l 482 743 l 260 880 q 219 933 219 905 m -22 933 q 30 980 -22 980 q 141 930 85 980 l 331 743 l 241 743 l 19 880 q -22 933 -22 905 z "},"Ȓ":{"ha":909,"x_min":61,"x_max":893,"o":"m 407 964 q 805 724 805 964 q 733 561 805 626 q 528 488 658 493 l 528 485 q 637 414 599 468 q 682 323 658 385 q 721 225 707 261 q 749 159 735 189 q 806 94 781 94 q 823 103 816 94 q 838 123 831 112 q 876 153 859 153 q 886 149 878 153 q 893 134 893 145 q 888 111 893 123 q 830 31 850 50 q 737 -11 788 -11 q 655 5 686 -11 q 605 49 625 22 q 572 113 585 77 q 550 188 559 149 q 530 267 540 227 q 507 343 521 307 q 416 452 474 424 q 382 468 402 460 l 382 524 q 614 631 574 524 q 628 720 628 669 q 574 862 628 811 q 410 913 521 913 q 382 911 391 913 l 382 964 l 407 964 m 326 161 q 328 98 326 117 q 341 72 331 80 q 364 59 351 64 q 393 52 378 55 q 420 40 408 48 l 420 0 l 61 0 l 61 40 q 85 52 71 48 q 114 60 100 55 q 152 98 148 70 q 156 163 156 126 l 156 802 q 138 891 156 877 q 99 909 124 903 q 61 924 73 916 l 61 964 l 326 964 l 326 161 m 611 1052 q 453 1177 584 1177 q 345 1143 383 1177 q 299 1052 307 1109 l 254 1052 q 310 1207 259 1156 q 448 1259 361 1259 q 602 1195 544 1259 q 656 1052 654 1137 l 611 1052 z "},"ȓ":{"ha":551,"x_min":47,"x_max":552,"o":"m 275 509 l 275 134 q 305 61 275 73 q 326 54 315 57 q 376 36 361 44 l 376 0 l 50 0 l 50 36 q 77 49 62 44 q 103 61 91 54 q 131 107 131 75 l 131 500 q 118 590 131 578 q 94 608 106 602 q 69 617 82 613 q 47 628 56 621 l 47 669 l 267 669 l 275 509 m 483 487 q 468 487 483 487 q 436 501 453 487 q 419 536 419 515 q 437 578 419 557 q 421 582 431 582 q 332 517 375 581 l 332 621 q 446 684 382 684 q 544 620 519 684 q 552 567 552 600 q 532 510 552 534 q 483 487 513 487 m 431 743 q 273 868 404 868 q 165 834 203 868 q 119 743 127 801 l 74 743 q 131 899 79 847 q 269 950 182 950 q 422 886 364 950 q 476 743 475 828 l 431 743 z "},"Ȕ":{"ha":953,"x_min":43,"x_max":921,"o":"m 538 35 q 724 146 680 41 q 739 227 739 181 l 739 831 q 673 909 739 887 q 636 924 654 916 l 636 964 l 921 964 l 921 924 q 884 909 903 916 q 850 894 865 903 q 817 831 817 873 l 817 248 q 538 -19 817 1 l 538 35 m 481 -21 q 159 137 228 -21 q 136 257 136 189 l 136 839 q 109 899 136 882 q 80 911 97 906 q 43 924 63 916 l 43 964 l 398 964 l 398 924 q 361 911 378 916 q 331 899 344 906 q 304 839 304 883 l 304 225 q 353 95 304 146 q 481 37 399 46 l 481 -21 m 420 1242 q 473 1289 420 1289 q 584 1238 528 1289 l 774 1052 l 684 1052 l 462 1188 q 420 1242 420 1213 m 179 1242 q 231 1289 179 1289 q 342 1238 287 1289 l 532 1052 l 442 1052 l 220 1188 q 179 1242 179 1213 z "},"ȕ":{"ha":789,"x_min":40,"x_max":748,"o":"m 366 54 q 466 98 421 54 l 466 20 q 315 -18 405 -18 q 132 85 168 -18 q 119 172 119 121 l 119 557 q 93 606 119 592 q 67 616 81 612 q 40 628 53 620 l 40 669 l 264 669 l 264 160 q 366 54 264 54 m 522 557 q 495 606 522 593 q 468 616 483 612 q 438 628 453 620 l 438 669 l 667 669 l 667 111 q 694 62 667 76 q 721 52 707 56 q 748 40 735 48 l 748 0 l 532 0 l 522 72 l 522 557 m 338 933 q 391 980 338 980 q 502 930 446 980 l 692 743 l 602 743 l 380 880 q 338 933 338 905 m 97 933 q 149 980 97 980 q 260 930 205 980 l 450 743 l 360 743 l 138 880 q 97 933 97 905 z "},"Ȗ":{"ha":953,"x_min":43,"x_max":921,"o":"m 538 35 q 724 146 680 41 q 739 227 739 181 l 739 831 q 673 909 739 887 q 636 924 654 916 l 636 964 l 921 964 l 921 924 q 884 909 903 916 q 850 894 865 903 q 817 831 817 873 l 817 248 q 538 -19 817 1 l 538 35 m 481 -21 q 159 137 228 -21 q 136 257 136 189 l 136 839 q 109 899 136 882 q 80 911 97 906 q 43 924 63 916 l 43 964 l 398 964 l 398 924 q 361 911 378 916 q 331 899 344 906 q 304 839 304 883 l 304 225 q 353 95 304 146 q 481 37 399 46 l 481 -21 m 633 1052 q 475 1177 606 1177 q 367 1143 405 1177 q 321 1052 329 1109 l 275 1052 q 332 1207 281 1156 q 470 1259 383 1259 q 623 1195 566 1259 q 677 1052 676 1137 l 633 1052 z "},"ȗ":{"ha":789,"x_min":40,"x_max":748,"o":"m 366 54 q 466 98 421 54 l 466 20 q 315 -18 405 -18 q 132 85 168 -18 q 119 172 119 121 l 119 557 q 93 606 119 592 q 67 616 81 612 q 40 628 53 620 l 40 669 l 264 669 l 264 160 q 366 54 264 54 m 522 557 q 495 606 522 593 q 468 616 483 612 q 438 628 453 620 l 438 669 l 667 669 l 667 111 q 694 62 667 76 q 721 52 707 56 q 748 40 735 48 l 748 0 l 532 0 l 522 72 l 522 557 m 551 743 q 393 868 524 868 q 285 834 323 868 q 239 743 247 801 l 193 743 q 250 899 199 847 q 388 950 301 950 q 541 886 484 950 q 595 743 594 828 l 551 743 z "},"Ș":{"ha":789,"x_min":73,"x_max":725,"o":"m 336 -500 q 384 -434 364 -469 q 404 -368 404 -399 q 387 -274 404 -317 q 342 -246 361 -267 q 324 -189 324 -226 q 348 -127 324 -151 q 403 -103 371 -103 q 454 -111 435 -103 q 488 -136 473 -119 q 519 -245 519 -174 q 393 -530 519 -395 l 336 -500 m 401 983 q 487 960 452 978 q 536 934 523 941 q 558 926 549 926 q 574 930 568 926 q 585 940 580 935 q 593 952 589 945 q 600 964 596 958 l 662 964 l 662 646 l 613 646 q 579 714 598 661 q 547 798 560 766 q 514 856 534 829 q 401 927 471 916 l 401 983 m 264 4 q 244 13 264 4 q 208 30 224 22 q 174 37 191 37 q 136 0 157 37 l 73 0 l 73 335 l 119 335 q 146 292 134 319 q 171 234 158 265 q 200 169 184 202 q 238 107 216 136 q 366 36 288 44 l 366 -20 q 264 4 304 -14 m 422 37 q 535 96 495 45 q 570 200 570 142 q 549 295 570 259 q 494 358 528 330 q 416 408 460 385 q 326 452 372 430 q 236 498 280 474 q 159 553 193 522 q 82 725 82 624 q 152 900 82 827 q 345 984 227 976 l 345 928 q 232 842 261 917 q 222 781 222 817 q 244 712 222 744 q 301 655 266 680 q 381 609 336 630 q 474 566 427 588 q 566 519 521 545 q 646 461 611 494 q 725 279 725 386 q 642 79 725 164 q 422 -20 554 -12 l 422 37 z "},"ș":{"ha":610,"x_min":56,"x_max":567,"o":"m 208 -498 q 255 -431 235 -466 q 275 -366 275 -397 q 258 -271 275 -314 q 214 -243 232 -264 q 195 -186 195 -223 q 219 -124 195 -149 q 274 -100 242 -100 q 325 -108 306 -100 q 359 -134 345 -116 q 391 -243 391 -171 q 264 -527 391 -392 l 208 -498 m 321 36 q 402 74 372 43 q 433 144 433 104 q 417 206 433 184 q 375 244 401 228 q 316 272 349 260 q 248 297 283 285 q 180 326 214 310 q 121 363 147 341 q 63 489 63 411 q 116 613 63 559 q 272 683 176 675 l 272 629 q 209 597 233 622 q 186 538 186 572 q 202 484 186 504 q 245 449 218 464 q 306 423 272 435 q 376 398 340 411 q 447 369 412 385 q 507 329 481 353 q 567 192 567 276 q 511 60 567 118 q 321 -18 445 -10 l 321 36 m 367 524 q 404 589 367 574 q 328 631 383 626 l 328 683 q 477 633 418 676 q 536 530 536 591 q 514 473 536 494 q 452 452 491 452 q 390 471 413 452 q 367 524 367 491 m 226 142 q 189 77 226 91 q 264 34 210 39 l 264 -18 q 115 32 177 -12 q 56 135 56 75 q 79 193 56 172 q 141 214 102 214 q 203 194 180 214 q 226 142 226 174 z "},"Ț":{"ha":805,"x_min":23,"x_max":781,"o":"m 486 964 l 486 155 q 498 86 486 102 q 519 67 509 71 q 541 60 529 62 q 593 40 576 51 l 593 0 l 212 0 l 212 40 q 251 56 227 50 q 285 66 275 62 q 302 80 295 71 q 317 155 317 100 l 317 964 l 486 964 m 688 964 q 781 974 715 964 l 781 653 l 734 653 q 718 708 725 679 q 702 765 711 736 q 682 819 693 793 q 652 865 670 845 q 543 908 611 908 l 543 964 l 688 964 m 24 974 q 74 964 57 964 l 260 964 l 260 908 q 122 818 163 908 q 91 727 102 775 q 71 653 79 678 l 23 653 l 23 972 l 24 974 z "},"ț":{"ha":477,"x_min":28,"x_max":460,"o":"m 321 657 l 432 657 l 432 597 l 321 597 l 321 657 m 264 -18 q 126 87 147 -12 q 119 157 119 118 l 119 597 l 28 597 l 28 639 q 50 653 38 648 q 73 665 62 659 q 117 701 103 680 q 139 747 130 722 q 155 797 149 772 q 167 845 161 821 q 182 892 173 869 l 264 896 l 264 -18 m 321 44 q 400 117 372 44 q 417 165 409 139 l 460 155 q 377 0 442 34 q 321 -16 353 -12 l 321 44 m 153 -519 q 200 -452 180 -487 q 220 -387 220 -418 q 203 -292 220 -335 q 159 -264 177 -285 q 140 -207 140 -244 q 164 -145 140 -170 q 219 -121 187 -121 q 270 -129 251 -121 q 304 -155 290 -137 q 336 -264 336 -192 q 209 -548 336 -413 l 153 -519 z "},"ȷ":{"ha":372,"x_min":-113,"x_max":269,"o":"m 68 -282 q 56 -283 62 -283 l 44 -283 q -102 -214 -65 -283 q -113 -162 -113 -193 q -91 -111 -113 -131 q -42 -90 -70 -90 q -1 -97 -15 -90 q 22 -115 13 -104 q 37 -158 37 -136 q 20 -204 37 -204 q 58 -220 26 -220 l 68 -220 l 68 -282 m 124 555 q 94 605 124 588 q 64 617 80 612 q 34 632 48 623 l 34 673 l 269 673 l 269 7 q 195 -236 269 -170 q 124 -273 167 -261 l 124 555 z "},"ˆ":{"ha":432,"x_min":-14,"x_max":446,"o":"m 266 977 l 446 743 l 387 743 l 216 897 l 43 743 l -14 743 l 164 977 l 266 977 z "},"ˇ":{"ha":432,"x_min":-14,"x_max":446,"o":"m 164 743 l -14 977 l 43 977 l 216 822 l 389 977 l 446 977 l 266 743 l 164 743 z "},"ˉ":{"ha":432,"x_min":-3,"x_max":437,"o":"m 437 872 l 437 799 l -3 799 l -3 872 l 437 872 z "},"˘":{"ha":432,"x_min":14,"x_max":416,"o":"m 214 825 q 372 950 345 825 l 416 950 q 362 807 415 865 q 213 743 304 743 q 71 795 122 743 q 14 950 20 846 l 60 950 q 106 859 68 892 q 214 825 144 825 z "},"˙":{"ha":432,"x_min":136,"x_max":297,"o":"m 136 836 q 136 851 136 836 q 159 886 136 867 q 207 905 182 905 q 248 900 233 905 q 273 886 262 895 q 297 843 297 866 q 291 808 297 821 q 273 785 284 795 q 216 766 250 766 q 159 785 182 766 q 136 836 136 804 z "},"˚":{"ha":432,"x_min":59,"x_max":372,"o":"m 59 893 q 104 994 59 953 q 216 1034 150 1034 q 326 994 281 1034 q 372 893 372 953 q 326 792 372 833 q 216 751 280 751 q 105 792 151 751 q 59 893 59 833 m 146 958 q 140 952 146 958 q 125 929 133 946 q 118 893 118 912 q 125 857 118 873 q 146 827 133 840 q 205 800 174 800 q 254 807 237 800 q 285 827 272 814 q 313 884 313 855 q 305 929 313 912 q 285 958 298 946 q 226 985 257 985 q 177 978 195 985 q 146 958 159 970 z "},"˛":{"ha":432,"x_min":55,"x_max":444,"o":"m 168 -163 q 264 -232 168 -232 q 420 -172 313 -232 l 444 -215 q 210 -292 306 -292 q 99 -260 143 -292 q 55 -183 55 -228 q 84 -104 55 -138 q 163 -45 113 -70 q 415 25 258 5 l 415 14 q 168 -163 168 -66 z "},"˜":{"ha":432,"x_min":-24,"x_max":458,"o":"m 458 926 q 304 779 416 779 q 218 802 265 779 q 146 835 170 825 q 101 846 122 846 q 67 840 80 846 q 45 823 54 833 q 20 777 31 808 l -24 777 q 32 884 -9 848 q 127 920 72 920 q 214 897 166 920 q 286 863 262 873 q 329 852 309 852 q 361 858 348 852 q 383 873 374 864 q 414 926 394 885 l 458 926 z "},"˝":{"ha":432,"x_min":-119,"x_max":476,"o":"m 235 933 q 193 880 235 905 l -28 743 l -119 743 l 71 930 q 181 980 127 980 q 235 933 235 980 m 476 933 q 435 880 476 905 l 213 743 l 123 743 l 313 930 q 422 980 368 980 q 476 933 476 980 z "},"̇":{"ha":432,"x_min":118,"x_max":313,"o":"m 146 827 q 140 834 146 827 q 125 857 133 840 q 118 893 118 873 q 125 929 118 912 q 146 958 133 946 q 206 985 175 985 q 254 978 237 985 q 285 958 272 970 q 313 903 313 932 q 305 857 313 873 q 285 827 298 840 q 227 800 258 800 q 177 807 195 800 q 146 827 159 814 z "},"̏":{"ha":432,"x_min":-119,"x_max":476,"o":"m 123 933 q 175 980 123 980 q 286 930 231 980 l 476 743 l 386 743 l 164 880 q 123 933 123 905 m -119 933 q -66 980 -119 980 q 45 930 -11 980 l 235 743 l 144 743 l -77 880 q -119 933 -119 905 z "},"̑":{"ha":432,"x_min":14,"x_max":416,"o":"m 372 743 q 214 868 345 868 q 106 834 144 868 q 60 743 68 801 l 14 743 q 71 899 20 847 q 209 950 122 950 q 362 886 304 950 q 416 743 415 828 l 372 743 z "},"̦":{"ha":358,"x_min":81,"x_max":277,"o":"m 94 -519 q 141 -452 121 -487 q 161 -387 161 -418 q 144 -292 161 -335 q 100 -264 118 -285 q 81 -207 81 -244 q 105 -145 81 -170 q 160 -121 128 -121 q 211 -129 192 -121 q 245 -155 231 -137 q 277 -264 277 -192 q 150 -548 277 -413 l 94 -519 z "},"Ω":{"ha":936,"x_min":41,"x_max":891,"o":"m 315 100 q 83 550 83 309 q 196 867 83 745 q 471 983 304 983 q 740 869 634 983 q 848 557 848 752 q 689 182 848 361 q 612 100 647 136 l 750 100 q 806 113 793 100 q 848 197 829 134 l 891 196 l 860 0 l 547 0 l 536 21 q 585 136 558 74 q 636 267 612 199 q 692 540 692 427 q 673 728 692 652 q 623 850 654 803 q 466 940 563 940 q 259 730 307 940 q 241 563 241 654 q 256 403 241 472 q 292 269 270 334 q 395 22 326 170 l 382 0 l 71 0 l 41 196 l 83 197 q 119 121 102 136 q 186 100 144 100 l 315 100 z "},"μ":{"ha":789,"x_min":32,"x_max":748,"o":"m 32 -265 l 32 -229 q 62 -216 46 -221 q 90 -205 77 -211 q 119 -158 119 -190 l 119 557 q 93 606 119 592 q 67 616 81 612 q 40 628 53 620 l 40 669 l 264 669 l 264 -265 l 32 -265 m 321 62 q 370 54 344 54 q 422 67 395 54 q 469 100 448 79 q 522 199 510 140 l 522 525 q 513 589 522 576 q 496 605 505 602 q 479 612 488 609 q 438 628 450 619 l 438 669 l 667 669 l 667 111 q 694 62 667 76 q 721 52 707 56 q 748 40 735 48 l 748 0 l 532 0 l 532 83 l 530 83 q 321 -18 469 -16 l 321 62 z "},"π":{"ha":777,"x_min":20,"x_max":739,"o":"m 264 608 l 618 603 q 686 623 669 603 q 701 644 692 631 l 739 635 q 690 513 725 565 q 598 505 665 505 q 591 310 591 427 q 592 161 591 193 q 600 109 594 130 q 649 66 612 66 q 716 104 682 66 l 738 77 q 670 7 711 32 q 595 -18 629 -18 q 537 -10 561 -18 q 496 19 513 -2 q 458 172 458 63 q 472 509 458 281 l 281 511 l 281 488 q 243 137 281 280 q 187 7 218 45 q 96 -18 144 -14 l 86 7 q 214 392 191 140 q 220 514 220 459 q 126 503 156 514 q 40 458 87 489 l 20 490 q 52 525 33 505 q 99 564 71 545 q 264 608 168 608 z "},"–":{"ha":805,"x_min":0,"x_max":805,"o":"m 805 372 l 805 293 l 0 293 l 0 372 l 805 372 z "},"—":{"ha":1610,"x_min":0,"x_max":1610,"o":"m 1610 372 l 1610 293 l 0 293 l 0 372 l 1610 372 z "},"‘":{"ha":343,"x_min":60,"x_max":256,"o":"m 136 783 q 256 690 256 783 q 206 610 256 631 q 168 603 190 603 q 90 637 120 603 q 60 722 60 671 q 68 809 60 773 q 92 879 77 845 q 177 1000 122 945 l 222 964 q 144 833 166 913 q 136 783 136 808 z "},"’":{"ha":343,"x_min":87,"x_max":283,"o":"m 121 624 q 181 705 157 657 q 208 804 205 753 q 199 804 203 804 q 182 804 195 804 q 151 809 170 804 q 118 827 132 815 q 87 897 87 852 q 137 978 87 956 q 176 985 153 985 q 253 950 222 985 q 283 865 283 916 q 274 778 283 814 q 250 709 266 743 q 165 587 220 643 l 121 624 z "},"‚":{"ha":343,"x_min":92,"x_max":288,"o":"m 125 -203 q 212 -22 207 -127 q 204 -23 208 -23 q 187 -23 200 -23 q 155 -17 174 -23 q 122 0 136 -12 q 92 71 92 26 q 141 151 92 130 q 180 158 158 158 q 258 124 227 158 q 288 39 288 90 q 279 -48 288 -12 q 255 -117 271 -83 q 171 -239 223 -186 l 125 -203 z "},"“":{"ha":596,"x_min":45,"x_max":525,"o":"m 404 783 q 525 690 525 783 q 475 610 525 631 q 436 603 458 603 q 358 637 389 603 q 328 722 328 671 q 337 809 328 773 q 361 879 345 845 q 446 1000 391 945 l 491 964 q 412 833 435 913 q 404 783 405 808 m 121 783 q 241 690 241 783 q 192 610 241 631 q 153 603 176 603 q 75 637 106 603 q 45 722 45 671 q 53 809 45 773 q 77 879 62 845 q 163 1000 109 946 l 208 964 q 147 882 171 930 q 121 783 123 833 z "},"”":{"ha":596,"x_min":71,"x_max":551,"o":"m 104 624 q 165 705 141 657 q 192 804 189 753 q 183 804 187 804 q 166 804 179 804 q 134 810 153 804 q 101 827 115 816 q 71 897 71 852 q 121 978 71 956 q 159 985 137 985 q 237 950 207 985 q 267 865 267 916 q 259 778 267 814 q 235 709 250 743 q 149 587 204 641 l 104 624 m 389 624 q 467 753 445 674 q 475 804 473 779 q 467 804 471 804 q 450 804 463 804 q 418 810 437 804 q 385 827 399 816 q 355 897 355 852 q 404 978 355 956 q 443 985 420 985 q 520 950 490 985 q 551 865 551 916 q 542 778 551 814 q 518 709 534 743 q 433 587 488 642 l 389 624 z "},"„":{"ha":596,"x_min":71,"x_max":551,"o":"m 104 -203 q 165 -121 141 -169 q 192 -22 189 -73 q 183 -23 187 -23 q 166 -23 179 -23 q 134 -17 153 -23 q 101 1 115 -11 q 71 71 71 26 q 121 151 71 130 q 159 158 137 158 q 237 124 207 158 q 267 39 267 90 q 259 -48 267 -12 q 235 -117 250 -83 q 149 -239 203 -187 l 104 -203 m 389 -203 q 475 -22 469 -128 q 467 -23 471 -23 q 450 -23 463 -23 q 418 -17 437 -23 q 385 1 399 -11 q 355 71 355 26 q 404 151 355 130 q 443 158 420 158 q 520 124 490 158 q 551 39 551 90 q 542 -48 551 -12 q 518 -117 534 -83 q 433 -239 488 -186 l 389 -203 z "},"†":{"ha":625,"x_min":35,"x_max":590,"o":"m 279 1013 l 368 1013 l 368 713 l 590 732 l 590 619 l 346 639 l 346 -134 l 258 -134 l 258 639 l 35 619 l 35 732 l 279 732 l 279 1013 z "},"‡":{"ha":625,"x_min":35,"x_max":590,"o":"m 279 1013 l 368 1013 l 368 713 l 590 732 l 590 619 l 346 639 l 368 439 l 346 240 l 590 260 l 590 147 l 346 167 l 346 -134 l 258 -134 l 258 167 l 35 147 l 35 260 l 279 240 l 258 439 l 279 639 l 35 619 l 35 732 l 279 732 l 279 1013 z "},"•":{"ha":805,"x_min":123,"x_max":681,"o":"m 123 481 q 145 575 123 532 q 205 652 167 619 q 403 722 287 722 q 600 652 518 722 q 681 482 681 582 q 600 311 681 382 q 403 240 519 240 q 205 311 287 240 q 123 481 123 382 z "},"…":{"ha":1611,"x_min":176,"x_max":1433,"o":"m 176 77 q 176 100 176 77 q 201 145 176 123 q 269 168 227 168 q 336 145 311 168 q 361 77 361 123 q 336 9 361 32 q 269 -14 311 -14 q 201 9 227 -14 q 176 77 176 32 m 711 77 q 711 100 711 77 q 737 145 711 123 q 804 168 762 168 q 872 145 846 168 q 897 77 897 123 q 872 9 897 32 q 804 -14 846 -14 q 737 9 762 -14 q 711 77 711 32 m 1248 77 q 1248 100 1248 77 q 1273 145 1248 123 q 1341 168 1299 168 q 1408 145 1383 168 q 1433 77 1433 123 q 1408 9 1433 32 q 1341 -14 1383 -14 q 1273 9 1299 -14 q 1248 77 1248 32 z "},"‰":{"ha":1461,"x_min":64,"x_max":1436,"o":"m 779 20 q 844 244 844 47 q 779 468 844 440 l 779 507 q 905 429 855 496 q 959 244 959 356 q 905 58 959 132 q 779 -19 857 -9 l 779 20 m 722 468 q 660 244 660 441 q 722 20 660 46 l 722 -19 q 597 60 646 -7 q 544 244 544 132 q 597 429 544 357 q 722 507 646 496 l 722 468 m 119 -21 l 821 985 l 902 985 l 200 -21 l 119 -21 m 299 495 q 364 719 364 523 q 299 943 364 916 l 299 983 q 426 904 376 971 q 479 720 479 831 q 426 534 479 608 q 299 456 377 467 l 299 495 m 243 943 q 180 719 180 917 q 243 495 180 522 l 243 456 q 117 535 167 468 q 64 720 64 607 q 117 905 64 833 q 243 983 166 971 l 243 943 m 1256 20 q 1321 244 1321 47 q 1256 468 1321 440 l 1256 507 q 1382 429 1333 496 q 1436 244 1436 356 q 1383 58 1436 132 q 1256 -19 1334 -9 l 1256 20 m 1200 468 q 1137 244 1137 441 q 1200 20 1137 46 l 1200 -19 q 1074 60 1124 -7 q 1021 244 1021 132 q 1074 429 1021 357 q 1200 507 1123 496 l 1200 468 z "},"‹":{"ha":500,"x_min":96,"x_max":382,"o":"m 382 718 l 382 640 l 201 407 l 382 174 l 382 96 l 96 379 l 96 435 l 382 718 z "},"›":{"ha":500,"x_min":118,"x_max":404,"o":"m 118 718 l 404 435 l 404 379 l 118 96 l 118 174 l 298 407 l 118 640 l 118 718 z "},"⁄":{"ha":269,"x_min":-269,"x_max":538,"o":"m -168 -21 l -269 -21 l 435 985 l 538 985 l -168 -21 z "},"€":{"ha":715,"x_min":3,"x_max":690,"o":"m 597 917 q 628 953 614 917 l 671 953 l 671 669 l 631 669 q 603 682 610 669 q 595 704 597 694 q 587 736 593 713 q 572 794 581 759 q 548 859 563 829 q 455 932 516 924 l 455 983 q 579 926 522 975 q 597 917 590 917 m 473 38 q 602 168 559 54 q 627 279 618 213 l 690 269 q 473 -19 656 3 l 473 38 m 108 482 q 111 553 108 517 l 3 553 l 13 612 l 115 612 q 216 872 140 774 q 399 983 294 972 l 399 926 q 290 743 326 897 q 271 612 277 688 l 512 612 l 504 553 l 267 553 q 266 517 266 535 l 266 453 l 490 453 l 479 393 l 267 393 q 365 74 280 155 q 416 41 389 50 l 416 -20 q 210 98 292 -11 q 111 393 127 210 l 3 393 l 13 453 l 108 453 l 108 482 z "},"ℓ":{"ha":583,"x_min":35,"x_max":559,"o":"m 382 62 q 527 153 465 62 l 559 131 q 326 -18 481 -18 q 176 36 218 -18 q 144 98 151 68 q 132 235 132 149 l 132 357 l 57 304 l 35 338 l 131 408 l 131 593 q 143 813 131 757 q 169 897 155 869 q 208 956 183 925 q 335 1023 260 1023 q 431 973 397 1023 q 466 851 466 924 q 450 723 466 779 q 407 617 434 667 q 268 437 361 534 l 268 294 q 331 73 268 106 q 382 62 352 62 m 390 842 q 330 982 390 982 q 281 917 295 982 q 268 669 268 852 l 268 504 q 381 751 353 604 q 390 842 390 798 z "},"™":{"ha":1594,"x_min":43,"x_max":1532,"o":"m 191 929 q 83 842 105 929 l 43 842 l 43 964 l 600 964 l 600 842 l 559 842 q 530 900 547 884 q 452 929 498 929 l 385 929 l 385 498 q 396 454 385 463 q 466 439 416 440 l 466 407 l 177 407 l 177 439 q 239 449 227 440 q 258 498 258 463 l 258 929 l 191 929 m 825 823 l 821 823 l 821 530 q 833 467 821 481 q 905 439 853 444 l 905 407 l 696 407 l 696 439 q 758 459 746 444 q 777 530 777 481 l 777 860 q 703 924 755 907 q 669 929 686 929 l 669 964 l 873 964 l 1109 547 l 1356 964 l 1532 964 l 1532 929 q 1467 912 1485 928 q 1449 865 1449 897 l 1449 498 q 1461 454 1449 463 q 1527 439 1479 440 l 1527 407 l 1242 407 l 1242 439 q 1304 449 1292 440 q 1322 498 1322 463 l 1322 819 l 1319 819 l 1079 403 l 1062 403 l 825 823 z "},"Ω":{"ha":936,"x_min":41,"x_max":891,"o":"m 315 100 q 83 550 83 309 q 196 867 83 745 q 471 983 304 983 q 740 869 634 983 q 848 557 848 752 q 689 182 848 361 q 612 100 647 136 l 750 100 q 806 113 793 100 q 848 197 829 134 l 891 196 l 860 0 l 547 0 l 536 21 q 585 136 558 74 q 636 267 612 199 q 692 540 692 427 q 673 728 692 652 q 623 850 654 803 q 466 940 563 940 q 259 730 307 940 q 241 563 241 654 q 256 403 241 472 q 292 269 270 334 q 395 22 326 170 l 382 0 l 71 0 l 41 196 l 83 197 q 119 121 102 136 q 186 100 144 100 l 315 100 z "},"∂":{"ha":724,"x_min":60,"x_max":652,"o":"m 353 524 q 205 313 243 496 q 192 197 192 248 q 197 123 192 147 q 214 79 203 98 q 277 25 237 37 l 277 -17 q 119 61 177 -7 q 60 250 60 131 q 140 475 60 378 q 353 583 224 579 l 353 524 m 288 985 q 153 922 218 972 q 113 969 129 922 q 109 995 109 982 q 127 1021 109 1008 q 174 1042 146 1033 q 288 1063 231 1061 l 288 985 m 344 1059 q 583 864 496 1036 q 652 534 652 726 q 578 176 652 331 q 435 15 524 66 q 334 -17 390 -12 l 334 26 q 472 233 412 57 q 517 443 500 314 q 448 515 498 489 q 410 528 430 524 l 410 578 q 530 503 483 562 q 539 594 534 544 q 545 683 545 644 q 542 754 545 722 q 530 819 538 787 q 506 882 521 852 q 469 936 492 912 q 344 990 420 987 l 344 1059 z "},"∆":{"ha":859,"x_min":47,"x_max":810,"o":"m 47 0 l 47 36 l 393 968 l 449 983 l 810 36 l 810 0 l 47 0 m 380 770 l 127 66 l 641 66 l 380 770 z "},"∏":{"ha":939,"x_min":34,"x_max":901,"o":"m 301 29 q 302 -27 301 -5 q 312 -60 303 -48 q 398 -87 327 -81 l 398 -123 l 39 -123 l 39 -87 q 138 -65 121 -81 q 158 -29 154 -50 q 161 29 161 -7 l 161 822 q 158 875 161 855 q 142 906 155 895 q 34 930 121 924 l 34 966 l 301 966 l 301 29 m 901 966 l 901 930 q 797 909 813 924 q 778 874 781 895 q 774 822 774 854 l 774 31 q 790 -58 774 -42 q 830 -79 806 -73 q 897 -87 854 -84 l 897 -123 l 530 -123 l 530 -87 q 617 -67 603 -82 q 633 -30 631 -52 q 636 29 636 -8 l 636 966 l 901 966 m 580 921 l 357 921 l 357 966 l 580 966 l 580 921 z "},"∑":{"ha":749,"x_min":40,"x_max":718,"o":"m 661 966 l 674 755 l 631 750 q 571 897 604 866 q 515 918 552 915 q 439 921 478 921 l 214 921 l 470 469 l 156 -18 l 479 -18 q 553 -15 524 -18 q 602 4 582 -11 q 674 129 635 28 l 718 119 l 657 -127 l 40 -127 l 40 -96 l 349 376 l 45 933 l 45 966 l 661 966 z "},"−":{"ha":966,"x_min":97,"x_max":868,"o":"m 97 286 l 97 379 l 868 379 l 868 286 l 97 286 z "},"∕":{"ha":269,"x_min":-269,"x_max":538,"o":"m -168 -21 l -269 -21 l 435 985 l 538 985 l -168 -21 z "},"∙":{"ha":358,"x_min":80,"x_max":277,"o":"m 277 332 q 248 272 277 297 q 189 248 220 248 q 140 254 159 248 q 109 272 122 260 q 80 332 80 297 q 109 392 80 367 q 168 416 137 416 q 248 392 220 416 q 277 332 277 367 z "},"√":{"ha":777,"x_min":47,"x_max":749,"o":"m 511 -221 l 478 -233 l 186 522 l 63 476 l 47 521 l 279 607 l 492 31 l 494 31 l 688 1240 l 749 1229 l 511 -221 z "},"∞":{"ha":1086,"x_min":66,"x_max":1017,"o":"m 458 355 l 507 296 q 418 228 456 245 q 295 196 351 196 q 200 211 239 196 q 131 252 161 225 q 66 396 66 309 q 131 543 66 486 q 294 600 196 600 q 570 433 451 600 q 746 277 667 296 q 801 271 772 271 q 855 282 831 271 q 895 312 879 294 q 929 387 929 349 q 919 449 929 425 q 892 490 909 473 q 795 526 854 526 q 667 469 732 526 q 634 438 650 453 l 585 497 q 670 564 636 545 q 793 600 736 600 q 890 586 851 600 q 958 545 929 571 q 1017 403 1017 490 q 951 251 1017 309 q 797 196 888 196 q 682 221 727 196 q 519 365 602 267 q 414 479 445 454 q 288 526 353 526 q 190 487 227 526 q 157 395 157 451 q 196 307 157 343 q 302 271 235 271 q 458 355 370 271 z "},"∫":{"ha":555,"x_min":20,"x_max":533,"o":"m 178 -201 q 233 -40 233 -201 q 232 5 233 -19 l 201 579 q 198 691 198 655 q 439 1158 198 1158 q 524 1122 498 1158 q 533 1094 533 1109 q 527 1066 533 1078 q 511 1047 521 1055 q 466 1032 490 1032 q 431 1042 441 1032 q 414 1063 421 1052 q 401 1085 408 1075 q 382 1095 395 1095 q 325 937 325 1095 q 327 879 325 911 l 355 359 q 358 209 358 278 q 349 65 358 140 q 323 -67 340 -11 q 284 -161 307 -123 q 234 -222 261 -199 q 113 -265 183 -265 q 53 -251 73 -265 q 20 -205 20 -226 q 26 -171 20 -184 q 45 -151 33 -159 q 94 -132 69 -132 q 129 -143 119 -132 q 145 -167 138 -154 q 159 -191 153 -180 q 178 -201 166 -201 z "},"≈":{"ha":726,"x_min":48,"x_max":671,"o":"m 671 549 q 551 431 627 460 q 499 421 524 421 q 457 424 474 421 q 422 433 439 427 q 354 465 391 443 q 289 499 316 486 q 236 511 262 511 q 192 504 210 511 q 161 484 175 496 q 111 421 139 465 l 48 461 q 180 578 95 550 q 237 587 209 587 q 286 583 264 587 q 324 571 307 578 q 356 556 342 564 q 386 540 371 548 q 415 525 401 532 q 444 511 430 517 q 493 498 472 498 q 531 505 515 498 q 560 524 547 512 q 612 590 583 545 l 671 549 m 671 332 q 551 214 628 243 q 498 204 524 204 q 456 207 473 204 q 422 216 439 210 q 353 248 391 226 q 289 282 315 271 q 236 294 262 294 q 191 287 209 294 q 159 266 174 279 q 111 203 139 248 l 48 243 q 180 361 95 332 q 237 371 209 371 q 286 366 264 371 q 324 354 307 361 q 356 339 342 347 q 385 324 371 331 q 414 309 399 317 q 441 294 428 300 q 493 281 471 281 q 531 288 515 281 q 560 307 547 294 q 612 374 583 328 l 671 332 z "},"≠":{"ha":726,"x_min":66,"x_max":657,"o":"m 475 555 l 657 555 l 657 476 l 443 476 l 362 309 l 657 309 l 657 229 l 328 229 l 264 96 l 193 119 l 246 229 l 66 229 l 66 309 l 278 309 l 361 476 l 66 476 l 66 555 l 393 555 l 457 689 l 528 665 l 475 555 z "},"≤":{"ha":726,"x_min":68,"x_max":661,"o":"m 68 17 l 68 100 l 661 100 l 661 17 l 68 17 m 74 418 l 74 515 l 654 766 l 654 671 l 74 418 m 270 442 l 654 260 l 654 165 l 144 394 l 270 442 z "},"≥":{"ha":727,"x_min":68,"x_max":659,"o":"m 68 17 l 68 100 l 659 100 l 659 17 l 68 17 m 657 522 l 657 425 l 68 174 l 77 270 l 657 522 m 461 498 l 77 680 l 77 776 l 587 547 l 461 498 z "},"◊":{"ha":777,"x_min":71,"x_max":704,"o":"m 444 -86 l 328 -86 l 71 471 l 332 1031 l 446 1031 l 704 471 l 444 -86 m 391 943 l 387 943 l 172 472 l 387 0 l 391 0 l 602 471 l 391 943 z "},"ﬁ":{"ha":879,"x_min":28,"x_max":829,"o":"m 281 150 q 312 60 281 75 q 347 50 327 53 q 390 36 366 47 l 390 0 l 37 0 l 37 36 q 74 51 51 45 q 106 60 96 56 q 122 73 115 64 q 137 138 137 91 l 137 606 l 28 606 l 28 644 q 66 658 37 654 q 136 679 122 665 q 166 867 143 817 q 215 940 189 917 q 281 975 241 964 l 281 150 m 448 895 q 359 933 433 933 q 338 930 349 933 l 338 983 q 379 985 353 985 q 436 976 406 985 q 488 952 466 968 q 535 861 535 918 q 511 803 535 825 q 469 785 491 785 q 434 788 446 785 q 414 799 422 792 q 393 842 393 814 q 448 895 393 881 m 338 665 l 426 665 l 426 606 l 338 606 l 338 665 m 744 673 l 744 107 q 772 61 744 75 q 800 49 785 54 q 829 36 814 44 l 829 0 l 513 0 l 513 36 q 543 49 528 44 q 571 61 558 54 q 600 107 600 75 l 600 561 q 572 610 600 597 q 545 620 560 616 q 513 632 529 624 l 513 669 l 744 673 m 574 884 q 574 903 574 884 q 600 947 574 923 q 654 971 625 971 q 700 965 684 971 q 729 947 717 958 q 755 884 755 922 q 729 821 755 846 q 664 798 704 798 q 600 821 625 798 q 574 884 574 845 z "},"ﬂ":{"ha":834,"x_min":28,"x_max":802,"o":"m 281 150 q 312 60 281 75 q 347 50 327 53 q 390 36 366 47 l 390 0 l 37 0 l 37 36 q 74 51 51 45 q 106 60 96 56 q 122 73 115 64 q 137 138 137 91 l 137 606 l 28 606 l 28 644 q 66 658 37 654 q 136 679 122 665 q 166 867 143 817 q 215 940 189 917 q 281 975 241 964 l 281 150 m 448 895 q 359 933 433 933 q 338 930 349 933 l 338 983 q 379 985 353 985 q 436 976 406 985 q 488 952 466 968 q 535 861 535 918 q 511 803 535 825 q 469 785 491 785 q 434 788 446 785 q 414 799 422 792 q 393 842 393 814 q 448 895 393 881 m 338 665 l 426 665 l 426 606 l 338 606 l 338 665 m 717 968 l 717 107 q 745 61 717 75 q 772 49 757 54 q 802 36 787 44 l 802 0 l 486 0 l 486 36 q 516 49 500 44 q 543 61 531 54 q 572 107 572 76 l 572 854 q 543 902 572 886 q 514 913 530 909 q 484 926 498 918 l 484 968 l 717 968 z "}}}
